<?xml version="1.0" encoding="UTF-8"?>
<svg preserveAspectRatio="xMidYMid slice" xmlns="http://www.w3.org/2000/svg" width="480px" height="480px" viewBox="0 0 1000 1000" fill="none">
  <path d="M218.744 501.682C214.227 474.458 188.468 456.146 161.367 460.785L169.302 415.188L140.186 410C137.744 415.494 126.757 440.52 121.447 468.598C132.251 475.923 140.186 487.521 142.567 501.56C145.008 516.392 140.735 530.859 131.824 541.602C134.021 544.287 136.524 546.729 139.331 548.927C150.624 557.838 164.358 561.318 177.786 559.059C205.071 554.542 223.383 528.783 218.683 501.682H218.744Z" fill="#282828"></path>
  <path d="M120.958 471.772L121.568 468.72C111.191 461.64 98.3729 458.466 85.0662 460.663L93.0014 415.127L63.9464 410C61.3828 415.677 49.6631 442.351 44.6579 471.65C40.6292 495.334 40.8124 520.726 53.2034 538.611C55.9502 542.456 59.1853 545.936 63.0919 548.988C74.4453 557.899 88.2403 561.379 101.669 559.12C113.999 557.106 124.437 550.575 131.823 541.724L129.503 538.672C117.051 520.848 116.868 495.456 120.958 471.833V471.772Z" fill="#9C9C9C"></path>
  <path d="M142.626 501.682C140.185 487.643 132.249 476.045 121.506 468.72L120.896 471.772C116.928 495.456 117.112 520.848 129.564 538.733L131.822 541.785C140.734 530.798 145.129 516.392 142.565 501.499L142.626 501.682Z" fill="#636363"></path>
  <path d="M804.725 549.171H787.39C786.779 549.171 786.352 549.476 786.169 549.964C783.727 556.434 780.309 561.806 775.426 565.59C770.543 569.253 764.256 571.45 756.076 571.45C744.906 571.45 735.933 566.567 729.829 558.388C723.725 550.147 720.307 538.733 720.307 525.67C720.307 512.486 723.664 501.071 729.829 492.953C735.933 484.835 744.967 479.951 756.076 479.951C764.195 479.951 770.421 482.088 775.304 485.811C780.187 489.596 783.544 494.967 786.047 501.254C786.23 501.743 786.657 502.109 787.268 502.109H804.664C804.908 502.109 805.274 501.987 805.457 501.743C805.702 501.56 805.824 501.254 805.824 500.888V500.583C803.077 488.863 797.4 479.219 788.977 472.505C780.553 465.79 769.566 461.884 755.893 461.884C740.023 461.884 725.984 468.415 715.912 479.585C705.841 490.817 699.737 506.748 699.737 525.853C699.737 544.959 705.841 560.951 715.912 572.122C725.984 583.414 740.023 589.823 755.954 589.823C769.627 589.823 780.736 586.039 789.221 579.263C797.644 572.549 803.382 562.782 806.007 550.88V550.574C806.007 550.208 805.885 549.964 805.641 549.659C805.519 549.476 805.152 549.354 804.786 549.354L804.725 549.171ZM956.897 497.775C955.676 497.531 953.967 497.287 951.587 497.287C949.511 497.287 946.948 497.47 944.018 498.019C941.576 498.508 938.952 499.484 936.51 500.827C934.068 502.17 931.627 504.001 929.429 506.199C928.208 507.419 926.988 508.945 925.889 510.654L925.095 511.875V500.034C925.095 499.301 924.485 498.691 923.875 498.691H907.272C906.661 498.691 906.051 499.301 906.051 500.034V586.71C906.051 587.32 906.661 587.931 907.272 587.931H923.997C924.729 587.931 925.34 587.32 925.34 586.71V544.593C925.34 539.709 925.95 535.559 926.988 532.14C928.086 528.722 929.734 526.036 931.871 523.961C934.129 521.886 936.632 520.299 939.562 519.261C942.98 518.04 946.704 517.674 949.939 517.674C952.38 517.674 954.822 517.918 956.226 518.162H956.409C957.141 518.162 957.63 517.674 957.63 516.942V499.118C957.813 498.508 957.385 497.897 956.714 497.775H956.897ZM597.19 461.762H596.885L580.099 464.692C579.488 464.814 578.878 465.302 578.878 465.912V586.649C578.878 587.381 579.488 587.992 580.282 587.992H597.19C597.8 587.992 598.411 587.381 598.411 586.649V463.104C598.411 462.372 597.8 461.762 597.007 461.762H597.19ZM562.58 533.422C560.139 528.417 556.72 524.144 552.509 520.604L551.288 519.688C549.457 518.284 547.442 517.003 545.306 516.026L544.696 515.721L545.123 515.293C547.076 513.035 548.785 510.41 550.006 507.602C551.837 503.513 552.753 499.301 552.753 494.906C552.753 490.145 551.776 485.75 549.945 481.477C548.114 477.205 545.489 473.664 542.193 470.612C539.141 467.805 535.479 465.607 531.328 464.02C527.177 462.433 521.989 461.578 515.885 461.578H478.895C478.162 461.578 477.552 462.189 477.552 462.982V586.588C477.552 587.32 478.162 587.931 478.895 587.931H524.552C531.084 587.931 536.516 587.198 540.911 585.733C545.184 584.268 549.151 582.071 552.509 579.324C556.659 575.845 560.078 571.511 562.58 566.506C563.191 565.285 563.618 564.247 564.045 563.149L564.228 562.66L564.533 561.806C565.754 558.021 566.487 554.054 566.487 549.903C566.365 543.921 565.083 538.305 562.519 533.3L562.58 533.422ZM497.268 480.318H512.772C517.655 480.318 521.317 480.745 523.759 481.538C526.078 482.454 527.91 483.675 529.252 485.201C531.877 488.131 533.22 491.549 533.22 495.578C533.22 499.484 531.999 502.902 529.252 505.832C527.91 507.358 526.201 508.579 523.759 509.495C522.05 510.105 519.486 510.471 516.434 510.716H497.085V480.318H497.268ZM544.879 556.984C543.902 559.425 542.559 561.501 540.85 563.332C538.897 565.163 536.577 566.75 533.708 567.849C530.84 568.886 526.628 569.497 521.012 569.497H497.207V529.394H521.012C526.628 529.394 530.778 530.004 533.647 531.042C536.394 532.14 538.775 533.666 540.667 535.559C542.376 537.39 543.719 539.465 544.757 541.785C545.794 544.043 546.283 546.668 546.283 549.293C546.283 552.039 545.794 554.603 544.757 556.984H544.879ZM677.945 505.954C671.475 500.034 662.563 497.104 651.454 497.104C641.444 497.104 633.264 499.545 627.038 504.428C621.545 508.518 617.577 513.767 615.441 519.994C615.197 520.604 615.624 521.397 616.356 521.52L632.105 524.266C632.715 524.388 633.142 524.083 633.325 523.656C636.56 516.514 642.603 513.035 651.515 513.035C657.619 513.035 662.258 514.683 665.554 518.04C668.85 521.397 670.437 525.853 670.437 531.469V534.643C662.197 532.202 654.323 530.981 646.998 530.981C636.621 530.981 627.954 533.544 621.056 538.794C614.22 544.043 610.68 551.429 610.68 560.89C610.68 569.924 613.915 577.005 620.202 582.132C626.489 587.259 634.058 589.823 642.97 589.823C654.323 589.823 663.723 586.527 670.56 579.69V586.527C670.56 587.381 671.292 588.053 672.086 588.053H686.613C687.407 588.053 688.078 587.443 688.078 586.588V530.248C687.895 519.871 684.599 511.814 678.006 505.954H677.945ZM663.174 566.994C658.291 571.084 652.37 573.098 645.289 573.098C640.101 573.098 636.133 571.877 633.325 569.558C630.64 567.238 629.236 564.064 629.236 560.036C629.236 555.641 631.067 552.345 634.485 550.147C637.903 547.95 642.42 546.79 647.914 546.79C654.811 546.79 662.38 548.011 670.499 550.452C670.499 557.594 668.057 563.027 663.174 566.933V566.994ZM370.732 461.762H370.488L353.641 464.692C353.031 464.814 352.42 465.302 352.42 465.912V586.649C352.42 587.381 353.031 587.992 353.824 587.992H370.732C371.343 587.992 371.953 587.381 371.953 586.649V463.104C371.953 462.372 371.343 461.762 370.61 461.762H370.732ZM335.94 533.422C333.498 528.417 330.202 524.144 325.99 520.604L324.769 519.688C322.938 518.284 320.924 517.003 318.787 516.026L318.177 515.721L318.604 515.293C320.558 513.035 322.267 510.41 323.487 507.602C325.319 503.513 326.234 499.301 326.234 494.906C326.234 490.145 325.319 485.75 323.487 481.477C321.656 477.205 319.031 473.664 315.735 470.612C312.683 467.805 309.021 465.607 304.992 464.02C300.842 462.433 295.653 461.578 289.549 461.578H252.62C251.888 461.578 251.277 462.189 251.277 462.982V586.588C251.277 587.32 251.888 587.931 252.62 587.931H298.095C304.626 587.931 310.059 587.198 314.454 585.733C318.726 584.268 322.694 582.071 326.051 579.324C330.202 575.845 333.62 571.511 336.123 566.506C336.733 565.285 337.16 564.247 337.588 563.149L337.771 562.66C337.771 562.416 337.893 562.05 338.015 561.806C339.236 558.021 339.968 554.054 339.968 549.903C339.846 543.921 338.564 538.305 336.001 533.3L335.94 533.422ZM270.627 480.318H286.253C291.136 480.318 294.799 480.745 297.24 481.538C299.56 482.454 301.391 483.675 302.734 485.201C305.359 488.131 306.701 491.549 306.701 495.578C306.701 499.484 305.481 502.902 302.734 505.832C301.391 507.358 299.682 508.579 297.24 509.495C295.531 510.105 292.968 510.471 289.916 510.716H270.627V480.318ZM318.421 556.984C317.383 559.425 315.98 561.501 314.331 563.332C312.378 565.163 310.059 566.75 307.19 567.849C304.321 568.886 300.109 569.497 294.494 569.497H270.688V529.394H294.494C300.17 529.394 304.382 530.004 307.19 531.042C310.059 532.14 312.439 533.666 314.331 535.559C316.041 537.39 317.383 539.465 318.421 541.785C319.459 544.043 319.947 546.668 319.947 549.293C319.947 552.039 319.337 554.603 318.36 556.984H318.421ZM451.488 505.954C444.957 500.034 436.045 497.104 424.936 497.104C414.986 497.104 406.807 499.545 400.52 504.428C395.026 508.518 391.119 513.767 388.922 519.994C388.739 520.604 389.166 521.397 389.899 521.52L405.586 524.266C406.196 524.388 406.807 524.083 406.99 523.656C410.164 516.514 416.146 513.035 425.119 513.035C431.039 513.035 435.74 514.683 439.036 518.04C442.332 521.397 444.041 525.853 444.041 531.469V534.643C435.678 532.202 427.804 530.981 420.48 530.981C410.103 530.981 401.435 533.544 394.538 538.794C387.518 544.043 384.161 551.429 384.161 560.89C384.161 569.924 387.213 577.005 393.5 582.132C399.787 587.259 407.356 589.823 416.268 589.823C427.682 589.823 437.021 586.527 443.919 579.69V586.527C443.919 587.381 444.529 588.053 445.323 588.053H459.85C460.705 588.053 461.376 587.443 461.376 586.588V530.248C461.193 519.871 457.958 511.814 451.366 505.954H451.488ZM436.594 566.994C431.711 571.084 425.607 573.098 418.587 573.098C413.399 573.098 409.431 571.877 406.624 569.558C403.816 567.238 402.351 564.064 402.351 560.036C402.351 555.641 404.182 552.345 407.661 550.147C411.141 547.95 415.596 546.79 421.09 546.79C428.049 546.79 435.617 548.011 443.675 550.452C443.797 557.594 441.355 563.027 436.472 566.933L436.594 566.994ZM882.551 505.954C876.019 500.034 867.108 497.104 855.998 497.104C846.11 497.104 837.931 499.545 831.582 504.428C826.089 508.518 822.243 513.767 819.985 519.994C819.863 520.604 820.29 521.397 821.023 521.52L836.771 524.266C837.381 524.388 837.809 524.083 837.992 523.656C841.227 516.514 847.27 513.035 856.182 513.035C862.163 513.035 866.864 514.683 870.221 518.04C873.456 521.397 875.104 525.853 875.104 531.469V534.643C866.802 532.202 858.928 530.981 851.604 530.981C841.227 530.981 832.559 533.544 825.662 538.794C818.764 544.043 815.285 551.429 815.285 560.89C815.285 569.924 818.459 577.005 824.746 582.132C831.033 587.259 838.602 589.823 847.514 589.823C858.989 589.823 868.267 586.527 875.226 579.69V586.527C875.226 587.381 875.836 588.053 876.691 588.053H891.218C892.012 588.053 892.683 587.443 892.683 586.588V530.248C892.439 519.871 889.143 511.814 882.612 505.954H882.551ZM867.596 566.994C862.713 571.084 856.853 573.098 849.772 573.098C844.584 573.098 840.616 571.877 837.809 569.558C835.123 567.238 833.719 564.064 833.719 560.036C833.719 555.641 835.55 552.345 838.968 550.147C842.448 547.95 846.903 546.79 852.397 546.79C859.356 546.79 867.047 548.011 874.982 550.452C874.982 557.594 872.54 563.027 867.657 566.933L867.596 566.994Z" fill="#282828"></path>
</svg>
