<?xml version="1.0" encoding="UTF-8"?>
<svg preserveAspectRatio="xMidYMid slice" width="155px" height="155px" xmlns="http://www.w3.org/2000/svg" id="Layer_1" data-name="Layer 1" viewBox="0 0 155 155">
  <defs>
    <style>.cls-1{fill:#282828;}</style>
  </defs>
  <path id="Fill-1-Copy" class="cls-1" d="M30.88,75.16H26.22V84c0,2,1.05,2.48,2.63,2.48a7.37,7.37,0,0,0,1.91-.27v6a8.2,8.2,0,0,1-3.75.68c-4.92,0-7.92-2.89-7.92-7.62V75.16h-4.2V68.82h1.2c2.48,0,3.68-1.65,3.68-3.87V62h6.49v6.91h4.62v6.3Z"></path>
  <path id="Fill-4-Copy" class="cls-1" d="M46.27,87c2.92,0,5.36-2.29,5.36-6.27s-2.44-6.23-5.36-6.23S41,76.63,41,80.72c0,3.9,2.4,6.27,5.26,6.27Zm5.44,2.51a6.78,6.78,0,0,1-6.42,3.72c-6.76,0-11.6-5.3-11.6-12.58,0-7,4.54-12.46,11.37-12.46,4.25,0,6.12,2.33,6.57,3.42V68.89h7l0,23.65H51.63l0-2.82,0-.22Z"></path>
  <polygon id="Fill-6-Copy" class="cls-1" points="67.13 92.99 62.18 88.64 79.44 68.67 84.55 72.98 67.13 92.99"></polygon>
  <path id="Path" class="cls-1" d="M66.42,69a4.24,4.24,0,1,1-4.2,4.24A4.18,4.18,0,0,1,66.42,69Z"></path>
  <path id="Fill-8-Copy" class="cls-1" d="M90.52,92.92V75.35H86.76V69.27h3.76V67.21c0-5.41,3.3-9.13,9.08-9.13a8.78,8.78,0,0,1,3.45.53V64.5a9,9,0,0,0-2.14-.26,2.88,2.88,0,0,0-3.11,3.19v1.8h5.14v6.12H97.8V92.92Z"></path>
  <path id="Fill-10-Copy" class="cls-1" d="M107.14,92.73h7.25V69.08h-7.25Zm3.61-35.1a4.25,4.25,0,1,1-4.21,4.25,4.25,4.25,0,0,1,4.21-4.25Z"></path>
  <polygon id="Fill-12-Copy" class="cls-1" points="130.11 85.67 122.34 93.37 117.62 88.64 125.35 80.94 117.8 73.47 122.57 68.82 130.04 76.29 137.66 68.67 142.43 73.4 134.77 81.02 142.5 88.64 137.77 93.37 130.11 85.67"></polygon>
  <path id="Path-2" data-name="Path" class="cls-1" d="M84.59,88.37a4.28,4.28,0,0,1-4.32,4.24,4.24,4.24,0,1,1,4.32-4.24Z"></path>
</svg>
