<?xml version="1.0" encoding="UTF-8"?>
<svg preserveAspectRatio="xMidYMid slice" width="155px" height="155px" xmlns="http://www.w3.org/2000/svg" id="Layer_1" data-name="Layer 1" viewBox="0 0 155 155">
  <defs>
    <style>.cls-1{fill:#282828;}</style>
  </defs>
  <path class="cls-1" d="M5.62,72.35h4v2.9h-4V86.8H8.88v3.08H2.54V75.29H0v-2.9H2.54V68.31h3v4.08h0Zm21.07,8.38v1.36H14.77c.14,3,1.82,5.39,4.54,5.39,2.08,0,3.31-.86,4.71-3.22l2.36,1.68a7.47,7.47,0,0,1-7,4.4c-4.58,0-7.66-3.72-7.66-9.25s3.08-9.24,7.62-9.24,7.38,3.58,7.38,8.88Zm-2.94-1.09c-.14-2.81-1.81-4.85-4.4-4.85a4.76,4.76,0,0,0-4.48,4.85ZM37,74.84c2.27,0,3.9,1.4,4.31,4l2.9-.59A7.1,7.1,0,0,0,37,71.89c-4.53,0-7.7,3.72-7.7,9.25s3.12,9.24,7.7,9.24A7,7,0,0,0,44.19,84l-2.9-.59c-.41,2.63-2,4-4.31,4-2.85,0-4.71-2.4-4.71-6.26s1.9-6.34,4.71-6.34Zm13.19-9.11h-3V89.88h3V75.61h7.66V89.88h3V72.35H50.22V65.73ZM64.81,89.88h3V65.73h-3V89.88ZM86.2,80.73v1.36h-12c.13,3,1.81,5.39,4.53,5.39,2.08,0,3.31-.86,4.71-3.22l2.4,1.68a7.46,7.46,0,0,1-7,4.4c-4.58,0-7.66-3.72-7.66-9.25s3.08-9.24,7.61-9.24,7.39,3.58,7.39,8.88Zm-2.94-1.09c-.14-2.81-1.82-4.85-4.4-4.85a4.77,4.77,0,0,0-4.49,4.85Zm17.54-7.29h2.9V89.88h-2.9v-1.4h0a5.89,5.89,0,0,1-4.53,2c-4.31,0-7.39-3.72-7.39-9.25s3.13-9.24,7.39-9.24a5.72,5.72,0,0,1,4.53,2h0V72.35Zm-.19,6.52a4,4,0,0,0-4.12-4c-2.86,0-4.62,2.22-4.62,6.25s1.81,6.26,4.62,6.26a4,4,0,0,0,4.12-4V78.87Zm21.85,2.22c0,5.49-3.08,9.25-7.3,9.25a5.84,5.84,0,0,1-4.62-2.13h-.05v9.06h-3V72.35h2.94v1.58h0a6.19,6.19,0,0,1,4.71-2.13C119.38,71.85,122.46,75.65,122.46,81.09Zm-3,0c0-3.85-1.81-6.25-4.57-6.25a4.48,4.48,0,0,0-4.4,4.71v3.08a4.47,4.47,0,0,0,4.35,4.72C117.56,87.39,119.42,84.94,119.42,81.09Zm6.66,8.79h4.08V85.67h-4.08Zm8.66,0h3V75.61h7.66V89.88h3V72.35H134.74V89.88ZM152,65.73V89.88h3V65.73Z"></path>
</svg>
