<?xml version="1.0" encoding="UTF-8"?>
<svg preserveAspectRatio="xMidYMid slice" width="155px" height="155px" xmlns="http://www.w3.org/2000/svg" id="Layer_1" data-name="Layer 1" viewBox="0 0 155 155">
  <defs>
    <style>.cls-1{fill:#282828;}</style>
  </defs>
  <path class="cls-1" d="M136.22,62.05l-4.3,31a.65.65,0,0,1-.65.5h-5.15c-.4,0-.65-.25-.55-.55l4.3-31a.65.65,0,0,1,.65-.5h5.15C136.07,61.45,136.32,61.7,136.22,62.05Zm-12.7,0-1.6,11.7c-.1.35.15.55.55.55H126c.4,0,.65.25.55.55l-.8,5.4a.65.65,0,0,1-.65.5h-3.65a.57.57,0,0,0-.65.45h0l-1.6,11.9a.65.65,0,0,1-.65.5h-5.15c-.4,0-.65-.25-.55-.55l4.3-31a.65.65,0,0,1,.65-.5H123a.45.45,0,0,1,.5.55Zm-11.1,0-.7,5.4a.65.65,0,0,1-.65.5h-9.9c-.4,0-.65-.25-.55-.55l.7-5.4a.65.65,0,0,1,.65-.5h9.9c.4,0,.65.2.55.55Zm-12.8.45-1.5,11.25c-.1.35.15.55.55.55h3.9c.45,0,.65.35.25.7l-6.15,5.4a1.19,1.19,0,0,1-.7.25h-4.5c-.4,0-.65-.25-.55-.55l1.65-11.9a.91.91,0,0,1,.4-.65l6-5.4C99.42,61.8,99.72,62.05,99.62,62.5Zm11,12.35L109,86.7a1.11,1.11,0,0,1-.4.65l-6.1,5.45c-.4.4-.7.15-.65-.35l2.45-17.7a.65.65,0,0,1,.65-.5h5.15c.4,0,.65.3.55.6Zm-22-12.8-4.3,31a.65.65,0,0,1-.65.5H78.52c-.4,0-.65-.25-.55-.55l4.3-31a.65.65,0,0,1,.65-.5h5.15C88.47,61.45,88.72,61.7,88.62,62.05Zm12.3,25.65-.7,5.4a.65.65,0,0,1-.65.5h-9.9c-.4,0-.65-.25-.55-.55l.7-5.4a.65.65,0,0,1,.65-.5h9.9C100.77,87.15,101,87.4,100.92,87.7Zm-25-25.65-3.4,24.5c-.1.35.15.55.55.55H77c.45,0,.65.35.25.7l-6.1,5.45a1.19,1.19,0,0,1-.7.25h-4.5c-.4,0-.65-.25-.55-.55l4.3-31a.65.65,0,0,1,.65-.5h5.15a.45.45,0,0,1,.45.6Zm-31.75,0-.7,5.4a.65.65,0,0,1-.65.5h-9.9c-.4,0-.65-.25-.55-.55l.7-5.4a.65.65,0,0,1,.65-.5h9.9c.4,0,.65.2.55.55Zm11.1,0L51,93.05a.65.65,0,0,1-.65.5H45.22c-.4,0-.65-.25-.55-.55l4.25-31a.65.65,0,0,1,.65-.5h5.15c.4,0,.65.25.55.6ZM62.82,87.7l-.7,5.4a.6.6,0,0,1-.65.5H53.12c-.4,0-.65-.25-.55-.55l.7-5.4a.65.65,0,0,1,.65-.5h8.4c.35,0,.6.25.5.55ZM31.42,62.5l-1.5,11.25c-.1.35.15.55.55.55h3.9c.45,0,.65.35.25.7l-6.2,5.45a1.19,1.19,0,0,1-.7.25H23.17c-.4,0-.65-.25-.55-.55l1.65-11.9a.91.91,0,0,1,.4-.65l6.15-5.45C31.17,61.8,31.47,62.05,31.42,62.5Zm11,12.4L40.77,86.8a1.11,1.11,0,0,1-.4.65l-6.1,5.35c-.4.4-.7.15-.65-.35l2.45-17.7a.65.65,0,0,1,.65-.5h5.15C42.27,74.3,42.52,74.55,42.42,74.9ZM32.67,87.7,32,93.1a.65.65,0,0,1-.65.5h-9.9c-.4,0-.65-.25-.55-.55l.7-5.4a.6.6,0,0,1,.65-.5h9.9C32.52,87.15,32.77,87.4,32.67,87.7ZM140.52,56.65h-124c-.4,0-.55.2-.55.6V97.8c0,.4.15.55.55.55h123.9c.4,0,.55-.15.55-.55V57.25C141.07,56.85,140.87,56.65,140.52,56.65Z"></path>
</svg>
