<?xml version="1.0" encoding="UTF-8"?>
<svg preserveAspectRatio="xMidYMid slice" width="155px" height="155px" xmlns="http://www.w3.org/2000/svg" id="Layer_1" data-name="Layer 1" viewBox="0 0 155 155">
  <defs>
    <style>.cls-1{fill:#282828;}</style>
  </defs>
  <polygon class="cls-1" points="67.31 73.74 67.31 76.04 74.31 72.05 77.54 73.78 77.54 79.45 81.31 81.71 81.31 73.78 74.09 69.75 67.31 73.74"></polygon>
  <path class="cls-1" d="M74.27,60.58,59.56,69V85.91l14.71,8.51L89,86V69.09ZM84.5,83.48l-3.1,2-7.13-4.25V76l-7,4v5.45l-3.18-1.82L64,71.79l10.14-5.85L84.45,72V83.48Z"></path>
  <path class="cls-1" d="M7.31,73.65H2.21v3.1h4.3v2H2.21v5.27H0V71.61H7.31Z"></path>
  <path class="cls-1" d="M14.44,84.05,12,79.67h-.84v4.38H8.9V71.61h3.15c3,0,4.42,1.11,4.42,3.72V76c0,1.86-.66,2.84-2.12,3.33l2.74,4.73Zm-2.35-6.42c1.59,0,2-.57,2-1.72v-.4c0-1.2-.31-1.77-2-1.77h-.93v4l.93-.09Z"></path>
  <path class="cls-1" d="M26.57,84.05h-2.3l-.62-2.21H20.46l-.66,2.21H17.49L21,71.61h2.21Zm-3.5-4.38-1-4.61-1,4.61Z"></path>
  <path class="cls-1" d="M35.69,84.05H33.52l-3.63-7.88.22,4.74V84.1H27.9V71.61h2.21l3.64,8.19-.23-5.27V71.61h2.22V84.05Z"></path>
  <path class="cls-1" d="M46.15,80.2c0,2.75-1.29,3.9-4.26,3.9S37.73,83,37.73,80.38v-5c0-2.66,1.15-3.72,4.16-3.72s4.26,1.11,4.26,3.85H43.93c0-1.19-.31-1.86-2-1.86s-1.9.67-1.9,1.86v4.79c0,1.19.31,1.86,1.9,1.86s2-.67,2-1.91Z"></path>
  <path class="cls-1" d="M55.18,71.61v2H50.26v3.19h4.21v2H50.26V82h5.1v2H48V71.61Z"></path>
  <path class="cls-1" d="M97.69,71.61c3,0,4.26,1.11,4.26,3.72v5.09c0,2.57-1.29,3.63-4.26,3.63H93.62V71.61Zm0,10.41c1.6,0,2-.58,2-1.73V75.42c0-1.2-.26-1.77-2-1.77H95.83V82Z"></path>
  <path class="cls-1" d="M106.2,84.05H104V71.61h2.22Z"></path>
  <path class="cls-1" d="M112.44,77h4.16V80.2c0,2.75-1.28,3.9-4.25,3.9s-4.16-1.2-4.16-3.85v-5c0-2.52,1.15-3.72,4.16-3.72s4.25,1.06,4.25,3.72h-2.21c0-1.19-.31-1.73-2-1.73s-1.9.76-1.9,1.86v4.88c0,1.19.31,1.86,1.9,1.86s2.17-.67,2.17-1.91V79H112.4l0-2Z"></path>
  <path class="cls-1" d="M120.9,84.05h-2.21V71.61h2.21Z"></path>
  <path class="cls-1" d="M129.54,73.65H127v10.4h-2.22V73.65h-2.57v-2h7.4l0,2Z"></path>
  <path class="cls-1" d="M137.82,84.05h-2.31l-.62-2.21h-3.18L131,84.05h-2.3l3.41-12.44h2.21Zm-3.5-4.38-1-4.61-1,4.61Z"></path>
  <path class="cls-1" d="M146.14,84.05h-7.08V71.61h2.21V82h4.78l.09,2Z"></path>
  <path class="cls-1" d="M154.78,71.61v2h-4.92v3.19h4.21v2h-4.21V82H155v2h-7.4V71.61Z"></path>
</svg>
