<?xml version="1.0" encoding="UTF-8"?>
<svg preserveAspectRatio="xMidYMid slice" width="155px" height="155px" xmlns="http://www.w3.org/2000/svg" id="Layer_1" data-name="Layer 1" viewBox="0 0 155 155">
  <defs>
    <style>.cls-1,.cls-2{fill:#282828;}.cls-1{fill-rule:evenodd;}</style>
  </defs>
  <g id="Stripe">
    <path class="cls-1" d="M147.94,78.48c0-10-4.85-17.92-14.13-17.92s-15,7.9-15,17.84c0,11.78,6.66,17.73,16.21,17.73a21.83,21.83,0,0,0,10.84-2.55V85.76a20.84,20.84,0,0,1-9.59,2.15c-3.8,0-7.16-1.33-7.59-6h19.13C147.86,81.45,147.94,79.42,147.94,78.48Zm-19.33-3.72c0-4.42,2.7-6.26,5.16-6.26s4.93,1.84,4.93,6.26Z"></path>
    <path class="cls-1" d="M103.76,60.56a11.06,11.06,0,0,0-7.67,3l-.51-2.43H87v45.63l9.78-2.07,0-11.08a11,11,0,0,0,6.93,2.47c7,0,13.38-5.64,13.38-18C117.06,66.74,110.61,60.56,103.76,60.56Zm-2.35,27a5.85,5.85,0,0,1-4.62-1.84l0-14.52a5.85,5.85,0,0,1,4.66-1.92c3.56,0,6,4,6,9.12S105,87.52,101.41,87.52Z"></path>
    <polygon class="cls-1" points="73.51 58.25 83.33 56.13 83.33 48.19 73.51 50.26 73.51 58.25"></polygon>
    <rect class="cls-2" x="73.51" y="61.22" width="9.82" height="34.24"></rect>
    <path class="cls-1" d="M63,64.12l-.62-2.9H53.9V95.46h9.79V72.26c2.3-3,6.22-2.47,7.43-2v-9C69.87,60.75,65.29,59.89,63,64.12Z"></path>
    <path class="cls-1" d="M43.41,52.73l-9.54,2,0,31.35A9.83,9.83,0,0,0,44,96.17a15.18,15.18,0,0,0,6.85-1.29V86.93c-1.25.51-7.43,2.31-7.43-3.48V69.56h7.43V61.22H43.38Z"></path>
    <path class="cls-1" d="M17,71.16c0-1.53,1.25-2.11,3.33-2.11a21.86,21.86,0,0,1,9.7,2.5V62.36a25.65,25.65,0,0,0-9.7-1.8c-7.95,0-13.23,4.14-13.23,11.07,0,10.8,14.87,9.08,14.87,13.74,0,1.8-1.56,2.38-3.76,2.38A24.39,24.39,0,0,1,7.49,84.62v9.32a27.23,27.23,0,0,0,10.68,2.23c8.14,0,13.74-4,13.74-11C31.87,73.47,17,75.54,17,71.16Z"></path>
  </g>
</svg>
