<?xml version="1.0" encoding="UTF-8"?>
<svg preserveAspectRatio="xMidYMid slice" width="155px" height="155px" xmlns="http://www.w3.org/2000/svg" id="Layer_1" data-name="Layer 1" viewBox="0 0 155 155">
  <defs>
    <style>.cls-1{fill:#ccc;}.cls-2{fill:#999;}.cls-3{fill:#666;}.cls-4{fill:#282828;}</style>
  </defs>
  <path class="cls-1" d="M113.79,49.62H54a3.14,3.14,0,0,0-3.12,3.12v3h56.85a3.13,3.13,0,0,1,3.11,3.12v44.41h3a3.13,3.13,0,0,0,3.12-3.11V52.74A3.19,3.19,0,0,0,113.79,49.62Z"></path>
  <path class="cls-2" d="M119.87,43.54h-38a3.14,3.14,0,0,0-3.12,3.12v3h35a3.13,3.13,0,0,1,3.11,3.12V82.07h3A3.13,3.13,0,0,0,123,79V46.66A3.13,3.13,0,0,0,119.87,43.54Z"></path>
  <path class="cls-3" d="M125.91,37.5H108.62a3.14,3.14,0,0,0-3.12,3.12v3h14.33a3.13,3.13,0,0,1,3.11,3.12V61h3A3.13,3.13,0,0,0,129,57.9V40.62A3.13,3.13,0,0,0,125.91,37.5Z"></path>
  <path class="cls-4" d="M59,72.27l-1.18-3.19H53.41l-1.14,3.19h-2l4.34-11.59h2L61,72.27Zm-1.64-4.83-1.1-3.11c-.08-.19-.19-.54-.34-1s-.23-.76-.27-1A22,22,0,0,1,55,64.48l-1,3,3.34,0Z"></path>
  <path class="cls-4" d="M62.61,72.27V60.72h1.9v9.91h4.86v1.64Z"></path>
  <path class="cls-4" d="M71.46,72.27V60.72h1.9v9.91h4.9v1.64Z"></path>
  <path class="cls-4" d="M80.31,72.27V60.72h1.9V72.27Z"></path>
  <path class="cls-4" d="M91.82,72.27H85.33V60.72h6.53v1.59H87.23v3.12h4.33V67H87.23v3.61h4.63v1.64Z"></path>
  <path class="cls-4" d="M103.79,66.38a5.73,5.73,0,0,1-1.59,4.37,6.37,6.37,0,0,1-4.6,1.48H94.37V60.72h3.57a6,6,0,0,1,4.3,1.48A5.58,5.58,0,0,1,103.79,66.38Zm-2,.07c0-2.77-1.29-4.14-3.88-4.14H96.31v8.36h1.33C100.41,70.67,101.82,69.27,101.82,66.45Z"></path>
  <path class="cls-4" d="M76.32,87.81H74.46V76.26H81v1.59H76.36v3.61h4.33v1.6H76.36l0,4.75Z"></path>
  <path class="cls-4" d="M93.38,82A6.16,6.16,0,0,1,92,86.36a5.93,5.93,0,0,1-8,0A6.24,6.24,0,0,1,82.55,82,6.27,6.27,0,0,1,84,77.55a6,6,0,0,1,8,0A6.24,6.24,0,0,1,93.38,82Zm-8.81,0a5.19,5.19,0,0,0,.83,3.23A3,3,0,0,0,88,86.33a3.06,3.06,0,0,0,2.54-1.11A5.19,5.19,0,0,0,91.33,82a5.08,5.08,0,0,0-.84-3.19,3.49,3.49,0,0,0-5.09,0A5.35,5.35,0,0,0,84.57,82Z"></path>
  <path class="cls-4" d="M97.83,83.17v4.6h-1.9V76.22H99.2a5.28,5.28,0,0,1,3.3.83,3,3,0,0,1,1.07,2.55,3.18,3.18,0,0,1-2.25,3.08l3.27,5.09h-2.16l-2.78-4.6Zm0-1.56h1.33a2.87,2.87,0,0,0,1.9-.49,1.83,1.83,0,0,0,.61-1.44,1.53,1.53,0,0,0-.65-1.41,3.57,3.57,0,0,0-1.9-.42H97.87l0,3.76Z"></path>
  <path class="cls-4" d="M33.35,100.19a2.9,2.9,0,0,1-1.1,2.4,5,5,0,0,1-3.08.87,7,7,0,0,1-3.19-.61v-1.78a9.81,9.81,0,0,0,1.67.61,6.54,6.54,0,0,0,1.67.19,2.61,2.61,0,0,0,1.67-.42,1.33,1.33,0,0,0,.53-1.14,1.36,1.36,0,0,0-.49-1.1,8.18,8.18,0,0,0-2-1.07,5.63,5.63,0,0,1-2.25-1.44,3,3,0,0,1-.64-2,2.77,2.77,0,0,1,1-2.28,4.38,4.38,0,0,1,2.74-.83,8.11,8.11,0,0,1,3.31.72l-.61,1.52a6.72,6.72,0,0,0-2.74-.65,2.22,2.22,0,0,0-1.4.38A1.32,1.32,0,0,0,28,94.65a1.22,1.22,0,0,0,.19.76,2.17,2.17,0,0,0,.61.6,8,8,0,0,0,1.56.76,10.29,10.29,0,0,1,1.86,1,3.21,3.21,0,0,1,.87,1A3.4,3.4,0,0,1,33.35,100.19Z"></path>
  <path class="cls-4" d="M39.62,103.31h-1.9V93.39H34.34V91.76H43v1.63H39.62v9.92Z"></path>
  <path class="cls-4" d="M52,103.31l-1.14-3.19h-4.4l-1.14,3.19h-2l4.33-11.59h2l4.34,11.59Zm-1.63-4.83-1.1-3.11c-.08-.19-.19-.53-.34-1s-.23-.76-.27-1a22,22,0,0,1-.61,2.13l-1,3,3.34,0Z"></path>
  <path class="cls-4" d="M57.51,98.71v4.6h-1.9V91.76h3.27a5.38,5.38,0,0,1,3.31.83,3,3,0,0,1,1.06,2.55A3.18,3.18,0,0,1,61,98.22l3.27,5.09H62.15l-2.77-4.6Zm0-1.59h1.33a2.85,2.85,0,0,0,1.9-.5,1.83,1.83,0,0,0,.61-1.44,1.55,1.55,0,0,0-.64-1.41,3.69,3.69,0,0,0-1.9-.42H57.55l0,3.77Z"></path>
  <path class="cls-4" d="M70.05,103.31h-1.9V93.39H64.77V91.76h8.66v1.63H70.05v9.92Z"></path>
  <path class="cls-4" d="M84.34,91.76v7.48a4.82,4.82,0,0,1-.53,2.25,3.76,3.76,0,0,1-1.6,1.48,5.52,5.52,0,0,1-2.47.53,4.7,4.7,0,0,1-3.34-1.14,4.12,4.12,0,0,1-1.18-3.12v-7.4h1.9v7.29a2.79,2.79,0,0,0,.68,2.09,2.74,2.74,0,0,0,2.06.68c1.78,0,2.66-1,2.66-2.81V91.8l1.82,0Z"></path>
  <path class="cls-4" d="M95,95.25A3.34,3.34,0,0,1,93.8,98a5.23,5.23,0,0,1-3.38,1H89.24v4.33h-1.9V91.76h3.31a5,5,0,0,1,3.23.87A3.13,3.13,0,0,1,95,95.25Zm-5.74,2.17h1a3.55,3.55,0,0,0,2.12-.53,1.82,1.82,0,0,0,.69-1.6,1.69,1.69,0,0,0-.61-1.48,2.94,2.94,0,0,0-1.9-.49H89.24v4.1Z"></path>
  <path class="cls-4" d="M104.06,100.19a2.9,2.9,0,0,1-1.1,2.4,4.71,4.71,0,0,1-3.08.87,6.89,6.89,0,0,1-3.19-.61v-1.78a9.81,9.81,0,0,0,1.67.61,6.74,6.74,0,0,0,1.67.19,2.61,2.61,0,0,0,1.67-.42,1.34,1.34,0,0,0,.54-1.14,1.37,1.37,0,0,0-.5-1.1,8,8,0,0,0-2-1.07,5.51,5.51,0,0,1-2.24-1.44,2.94,2.94,0,0,1-.65-2,2.75,2.75,0,0,1,1-2.28,4.33,4.33,0,0,1,2.73-.83,8.07,8.07,0,0,1,3.31.72l-.61,1.52a6.72,6.72,0,0,0-2.74-.65,2.24,2.24,0,0,0-1.4.38,1.32,1.32,0,0,0-.46,1.07,1.22,1.22,0,0,0,.19.76,2.32,2.32,0,0,0,.61.6,8.31,8.31,0,0,0,1.56.76,10.29,10.29,0,0,1,1.86,1,3.21,3.21,0,0,1,.87,1A3.84,3.84,0,0,1,104.06,100.19Z"></path>
</svg>
