<?xml version="1.0" encoding="UTF-8"?>
<!-- Generator: Adobe Illustrator 23.0.1, SVG Export Plug-In . SVG Version: 6.00 Build 0)  -->
<svg xmlns:cc="http://web.resource.org/cc/" xmlns:dc="http://purl.org/dc/elements/1.1/" xmlns:inkscape="http://www.inkscape.org/namespaces/inkscape" xmlns:rdf="http://www.w3.org/1999/02/22-rdf-syntax-ns#" xmlns:sodipodi="http://sodipodi.sourceforge.net/DTD/sodipodi-0.dtd" xmlns:svg="http://www.w3.org/2000/svg" xmlns="http://www.w3.org/2000/svg" xmlns:xlink="http://www.w3.org/1999/xlink" id="svg6381" x="0px" y="0px" viewBox="0 0 1588.2 900" style="enable-background:new 0 0 1588.2 900;" xml:space="preserve">
<style type="text/css">
	.st0{fill:#5500FF;}
	.st1{fill:#FFFFFF;}
</style>

<rect y="0" class="st0" width="1588.2" height="900"></rect>
<g>
	<path class="st1" d="M209.8,341.6H296c16.4,0,28.7,4.1,37.9,10.9c10,8.2,15.5,20.1,15.5,34.7c0,16.9-6.8,27.4-20.5,33.8v0.9   c18.2,5.9,28.7,22.4,28.7,42c0,18.7-7.3,33.3-19.2,42.4c-10,7.3-22.8,10.5-40.1,10.5h-88.5V341.6z M287.4,410.1c9.1,0,16-5,16-15.5   c0-10-6.8-15.1-16.4-15.1h-29.7v30.1h30.1V410.1z M291.5,478.1c10.5,0,18.2-6.4,18.2-17.8c0-12.3-8.2-17.8-18.2-17.8h-33.8v36h33.8   V478.1z"></path>
	<path class="st1" d="M365.4,341.6h45.2v175.7h-45.2V341.6z"></path>
	<path class="st1" d="M419.7,454.8c0-39.7,25.5-66.2,65.2-66.2s64.8,26.9,64.8,66.2c0,39.7-25.1,66.2-64.8,66.2   S419.7,494.5,419.7,454.8z M504.5,454.8c0-21.9-6.8-35.6-20.5-35.6c-13.7,0-20.1,13.7-20.1,35.6c0,21.9,6.4,36,20.1,36   C497.7,490.4,504.5,476.7,504.5,454.8z"></path>
	<path class="st1" d="M554.7,454.8c0-39.7,25.5-66.2,65.2-66.2c39.7,0,64.3,26.5,64.3,66.2s-25.1,66.2-64.8,66.2   C580.3,520.9,554.7,494.5,554.7,454.8z M639.6,454.8c0-21.9-6.8-35.6-20.5-35.6c-13.7,0-20.1,13.7-20.1,35.6c0,21.9,6.4,36,20.1,36   C632.7,490.4,639.6,476.7,639.6,454.8z"></path>
	<path class="st1" d="M693.4,391.8h42v18.7h0.9c8.2-14.6,19.6-22.4,37.9-22.4c16,0,27.8,7.8,33.8,21.4h0.9   c10-16.4,23.3-21.4,38.8-21.4c29.2,0,41.5,21.4,41.5,50.2v78.5h-43.8v-70.7c0-12.8-4.1-21-15.1-21c-10.9,0-16.4,10-16.4,23.7v68   h-43.8v-70.7c0-12.8-4.1-21-15.1-21c-10.9,0-16.4,10-16.4,23.7v68h-45.2V391.8z"></path>
	<path class="st1" d="M944.4,500.4h-0.5v16.4h-42V341.6h43.8v63h0.9c8.2-10.9,19.6-16.9,35.6-16.9c31.5,0,49.7,28.3,49.7,66.2   c0,42.4-19.6,67.1-52.5,67.1C965.8,520.9,951.7,514.6,944.4,500.4z M986.8,453.4c0-20.1-7.3-33.3-20.5-33.3   c-13.7,0-21.9,13.2-21.9,33.3c0,20.1,8.7,33.3,21.9,33.3S986.8,473.9,986.8,453.4z"></path>
	<path class="st1" d="M1037,454.3c0-39.2,26-66.2,63.4-66.2c18.7,0,32.8,5.9,43.8,16.4c14.6,14.1,21,36,20.5,61.6h-83.9   c1.8,15.5,9.1,23.7,22.4,23.7c7.8,0,14.6-3.6,17.3-11.9h42.4c-7.3,28.7-29.7,42.9-61.1,42.9C1063,520.5,1037,494,1037,454.3z    M1080.8,441.1h40.1c-0.9-15.1-9.1-22.8-19.6-22.8C1089,417.8,1082.1,426.5,1080.8,441.1z"></path>
	<path class="st1" d="M1214.5,413.3h0.9c9.1-17.3,21-24.2,36-24.2c3.6,0,5.9,0.5,7.3,1.4v38.3h-0.9c-26-4.6-41.1,7.8-41.1,36v52.5   h-44.3V391.8h42V413.3z"></path>
	<path class="st1" d="M1263.3,517.3h42.4c1.8,5.5,7.3,10.5,17.8,10.5c14.1,0,19.2-8.7,19.2-21.9v-9.1h-0.9   c-6.8,8.2-16.4,14.1-30.1,14.1c-26.9,0-50.6-20.1-50.6-59.3c0-36,19.2-63.9,48.4-63.9c16.9,0,26.9,6.8,33.8,17.3h0.9v-13.7h42V500   c0,20.1-6.8,35.6-17.3,44.7c-10.9,9.6-26.5,13.7-44.3,13.7C1290.6,558.8,1267.4,545.1,1263.3,517.3z M1344.5,449.8   c0-15.5-7.3-28.3-20.1-28.3c-12.3,0-20.1,10.9-20.1,28.3c0,16.9,7.8,28.7,20.1,28.7C1336.7,478.5,1344.5,466.2,1344.5,449.8z"></path>
</g>
</svg>
