<?xml version="1.0" encoding="UTF-8"?>
<svg preserveAspectRatio="xMidYMid slice" xmlns="http://www.w3.org/2000/svg" width="960px" height="960px" viewBox="0 0 1000 1000" fill="none">
  <path d="M658.926 562.819C665.042 562.965 671.126 561.895 676.825 559.672C682.524 557.45 687.726 554.119 692.128 549.872L708.591 567.721C702.204 574.309 694.489 579.464 685.959 582.844C677.429 586.225 668.277 587.753 659.111 587.328C618.88 587.328 592.892 560.507 592.892 524.253C592.705 515.958 594.192 507.71 597.267 500.003C600.341 492.296 604.938 485.289 610.784 479.4C616.63 473.511 623.603 468.862 631.287 465.732C638.971 462.601 647.208 461.052 655.504 461.179C695.458 461.179 718.117 491.699 716.082 534.057H621.84C623.148 542.695 627.729 550.499 634.632 555.853C641.536 561.207 650.234 563.701 658.926 562.819V562.819ZM687.689 513.895C687.259 505.887 683.666 498.377 677.7 493.018C671.733 487.659 663.883 484.889 655.874 485.317C647.63 484.833 639.511 487.51 633.17 492.802C626.83 498.094 622.745 505.604 621.747 513.802L687.689 513.895Z" fill="#282828"></path>
  <path d="M33.4517 561.525L106.145 487.537H35.1164V464.138H139.809V487.814L67.1161 561.802H141.104V585.109H33.4517V561.525Z" fill="#282828"></path>
  <path d="M227.67 562.819C233.785 562.965 239.869 561.895 245.568 559.672C251.267 557.45 256.469 554.119 260.872 549.872L277.334 567.721C270.947 574.309 263.233 579.464 254.702 582.844C246.172 586.225 237.02 587.753 227.855 587.328C187.624 587.328 161.635 560.507 161.635 524.253C161.448 515.958 162.936 507.71 166.01 500.003C169.084 492.296 173.682 485.289 179.527 479.4C185.373 473.511 192.346 468.862 200.03 465.732C207.714 462.601 215.951 461.052 224.248 461.179C264.201 461.179 286.86 491.699 284.825 534.057H190.676C191.984 542.677 196.551 550.467 203.434 555.819C210.318 561.17 218.993 563.676 227.67 562.819V562.819ZM256.432 513.895C255.979 505.903 252.375 498.417 246.412 493.078C240.448 487.738 232.611 484.981 224.618 485.41C216.418 484.972 208.357 487.658 202.059 492.927C195.761 498.195 191.693 505.655 190.676 513.802L256.432 513.895Z" fill="#282828"></path>
  <path d="M442.049 524.253C441.699 516.092 443.008 507.944 445.897 500.303C448.787 492.662 453.196 485.686 458.859 479.798C464.522 473.911 471.321 469.233 478.844 466.048C486.367 462.864 494.458 461.239 502.627 461.271C510.279 461.215 517.85 462.842 524.802 466.039C531.755 469.236 537.919 473.923 542.858 479.768V408H568.568V584.831H542.858V568.184C537.993 574.207 531.833 579.056 524.836 582.37C517.838 585.685 510.184 587.379 502.442 587.328C494.303 587.259 486.26 585.56 478.788 582.332C471.316 579.104 464.566 574.412 458.937 568.533C453.308 562.654 448.914 555.707 446.013 548.102C443.113 540.497 441.765 532.388 442.049 524.253ZM544.245 524.253C544.245 514.099 540.211 504.36 533.03 497.179C525.85 489.999 516.111 485.965 505.956 485.965C495.801 485.965 486.063 489.999 478.882 497.179C471.702 504.36 467.668 514.099 467.668 524.253C467.668 534.408 471.702 544.147 478.882 551.328C486.063 558.508 495.801 562.542 505.956 562.542C516.111 562.542 525.85 558.508 533.03 551.328C540.211 544.147 544.245 534.408 544.245 524.253Z" fill="#282828"></path>
  <path d="M732.175 559.213L755.389 546.727C758.454 552.215 762.96 556.761 768.42 559.874C773.88 562.987 780.088 564.549 786.371 564.392C800.891 564.392 808.382 556.901 808.382 548.392C808.382 539.883 794.325 536.554 779.065 533.409C758.441 529.063 737.169 522.311 737.169 497.34C737.169 478.196 755.666 460.346 783.966 460.346C793.42 459.777 802.862 461.637 811.393 465.749C819.925 469.861 827.262 476.088 832.706 483.838L811.157 496.416C808.186 492.003 804.138 488.421 799.396 486.009C794.654 483.598 789.375 482.437 784.059 482.635C770.279 482.635 763.25 489.387 763.25 497.155C763.25 504.924 774.348 508.254 791.828 512.138C811.712 516.485 834.186 523.051 834.186 548.207C834.186 564.947 819.666 587.421 785.261 587.236C774.675 588.012 764.084 585.797 754.697 580.841C745.31 575.886 737.506 568.392 732.175 559.213V559.213Z" fill="#282828"></path>
  <path d="M901.051 531.097L880.705 553.386V584.923H854.994V408H880.705V523.791L935.178 463.491H966.438L919.178 515.375L967.548 584.831H938.6L901.051 531.097Z" fill="#282828"></path>
  <path d="M365.657 461.271C335.137 461.271 309.611 481.156 309.611 514.08V584.831H335.784V517.317C335.325 513.135 335.792 508.903 337.152 504.921C338.511 500.939 340.731 497.306 343.653 494.278C346.574 491.251 350.126 488.903 354.057 487.403C357.988 485.902 362.201 485.285 366.397 485.595C385.819 485.595 395.437 497.525 395.437 517.317V584.831H421.888V514.08C421.888 481.156 396.177 461.271 365.657 461.271Z" fill="#282828"></path>
</svg>
