<?xml version="1.0" encoding="UTF-8"?>
<!-- Generator: Adobe Illustrator 24.2.0, SVG Export Plug-In . SVG Version: 6.00 Build 0)  -->
<svg preserveAspectRatio="xMidYMid slice" width="1200px" height="750px" xmlns="http://www.w3.org/2000/svg" xmlns:xlink="http://www.w3.org/1999/xlink" version="1.1" id="Layer_1" x="0px" y="0px" viewBox="0 0 1680 1050" style="enable-background:new 0 0 1680 1050;" xml:space="preserve">
<style type="text/css">
	.st0{fill:#CCCCCC;}
	.st1{fill:#999999;}
	.st2{fill:#666666;}
</style>
<path class="st0" d="M981.1,444.9H750.2c-6.6,0-12,5.4-12,12v11.4h219.5c6.6,0,12,5.4,12,12V652h11.4c6.6,0,12-5.4,12-12V456.9  C993.1,450.3,987.7,444.9,981.1,444.9z"></path>
<path class="st1" d="M1004.6,421.4H857.7c-6.6,0-12,5.4-12,12v11.4h135.4c6.6,0,12,5.4,12,12v113.4h11.4c6.6,0,12-5.4,12-12V433.4  C1016.6,426.8,1011.2,421.4,1004.6,421.4z"></path>
<path class="st2" d="M1028,398h-66.8c-6.6,0-12,5.4-12,12v11.4h55.4c6.6,0,12,5.4,12,12v55.4h11.4c6.6,0,12-5.4,12-12V410  C1040,403.4,1034.6,398,1028,398z"></path>
<g>
	<path d="M769.4,532.4l-4.5-12.4h-17.1l-4.4,12.4h-7.7l16.7-44.8h7.9l16.7,44.8H769.4z M763,513.7l-4.2-12.1   c-0.3-0.8-0.7-2.1-1.3-3.8c-0.5-1.7-0.9-3-1.1-3.8c-0.5,2.5-1.4,5.2-2.4,8.2l-4,11.6H763z"></path>
	<path d="M783.3,532.4v-44.6h7.3v38.3h18.9v6.3H783.3z"></path>
	<path d="M817.5,532.4v-44.6h7.3v38.3h18.9v6.3H817.5z"></path>
	<path d="M851.7,532.4v-44.6h7.3v44.6H851.7z"></path>
	<path d="M896.3,532.4h-25.2v-44.6h25.2v6.2h-17.9v12.1h16.8v6.1h-16.8v14h17.9V532.4z"></path>
	<path d="M942.5,509.7c0,7.4-2,13-6.1,16.9c-4.1,3.9-10,5.8-17.7,5.8h-12.5v-44.6H920c7.1,0,12.6,1.9,16.6,5.7   C940.5,497.3,942.5,502.7,942.5,509.7z M934.8,509.9c0-10.7-5-16-15-16h-6.3v32.4h5.2C929.5,526.2,934.8,520.8,934.8,509.9z"></path>
	<path d="M836.3,592.4h-7.2v-44.6h25.2v6.2h-17.9v13.9h16.8v6.2h-16.8V592.4z"></path>
	<path d="M902.3,570c0,7.3-1.8,12.9-5.4,16.9c-3.6,4-8.8,6-15.4,6c-6.7,0-11.9-2-15.5-6c-3.6-4-5.4-9.7-5.4-17s1.8-13,5.4-17   c3.6-3.9,8.8-5.9,15.5-5.9c6.6,0,11.8,2,15.4,6S902.3,562.7,902.3,570z M868.2,570c0,5.5,1.1,9.7,3.3,12.5s5.5,4.3,9.9,4.3   c4.3,0,7.6-1.4,9.8-4.2c2.2-2.8,3.3-7,3.3-12.5c0-5.5-1.1-9.6-3.3-12.4c-2.2-2.8-5.4-4.2-9.8-4.2c-4.4,0-7.7,1.4-9.9,4.2   C869.3,560.4,868.2,564.5,868.2,570z"></path>
	<path d="M919.5,574.6v17.8h-7.3v-44.6h12.6c5.8,0,10,1.1,12.8,3.2c2.8,2.2,4.1,5.4,4.1,9.8c0,5.6-2.9,9.5-8.7,11.9l12.6,19.7h-8.3   l-10.7-17.8H919.5z M919.5,568.5h5.1c3.4,0,5.9-0.6,7.4-1.9s2.3-3.1,2.3-5.6c0-2.5-0.8-4.3-2.5-5.4c-1.6-1.1-4.1-1.6-7.4-1.6h-4.8   V568.5z"></path>
	<path d="M670.2,640.3c0,4-1.4,7.1-4.3,9.3S659,653,654,653s-9.2-0.8-12.4-2.3v-6.9c2,1,4.2,1.7,6.5,2.3s4.4,0.8,6.4,0.8   c2.9,0,5-0.5,6.4-1.6c1.4-1.1,2.1-2.6,2.1-4.4c0-1.7-0.6-3.1-1.9-4.2c-1.3-1.2-3.9-2.5-7.8-4.1c-4.1-1.6-6.9-3.5-8.6-5.6   c-1.7-2.1-2.5-4.7-2.5-7.6c0-3.7,1.3-6.7,4-8.8c2.6-2.1,6.2-3.2,10.6-3.2c4.3,0,8.5,0.9,12.8,2.8l-2.3,5.9c-4-1.7-7.5-2.5-10.6-2.5   c-2.4,0-4.1,0.5-5.4,1.5c-1.2,1-1.8,2.4-1.8,4.1c0,1.2,0.2,2.2,0.7,3c0.5,0.8,1.3,1.6,2.4,2.3c1.1,0.7,3.1,1.7,6,2.9   c3.3,1.4,5.7,2.6,7.2,3.8c1.5,1.2,2.6,2.5,3.4,4S670.2,638.3,670.2,640.3z"></path>
	<path d="M694.5,652.4h-7.3V614h-13.1v-6.3h33.5v6.3h-13.1V652.4z"></path>
	<path d="M742.4,652.4L738,640h-17.1l-4.4,12.4h-7.7l16.7-44.8h7.9l16.7,44.8H742.4z M736.1,633.7l-4.2-12.1   c-0.3-0.8-0.7-2.1-1.3-3.8c-0.5-1.7-0.9-3-1.1-3.8c-0.5,2.5-1.4,5.2-2.4,8.2l-4,11.6H736.1z"></path>
	<path d="M763.7,634.6v17.8h-7.3v-44.6H769c5.8,0,10,1.1,12.8,3.2c2.8,2.2,4.1,5.4,4.1,9.8c0,5.6-2.9,9.5-8.7,11.9l12.6,19.7h-8.3   l-10.7-17.8H763.7z M763.7,628.5h5.1c3.4,0,5.9-0.6,7.4-1.9s2.3-3.1,2.3-5.6c0-2.5-0.8-4.3-2.5-5.4c-1.6-1.1-4.1-1.6-7.4-1.6h-4.8   V628.5z"></path>
	<path d="M812.1,652.4h-7.3V614h-13.1v-6.3h33.5v6.3h-13.1V652.4z"></path>
	<path d="M867.3,607.8v28.9c0,3.3-0.7,6.2-2.1,8.6c-1.4,2.5-3.5,4.4-6.1,5.7c-2.7,1.3-5.9,2-9.6,2c-5.5,0-9.8-1.5-12.9-4.4   c-3.1-2.9-4.6-7-4.6-12.1v-28.7h7.3V636c0,3.7,0.9,6.4,2.6,8.1c1.7,1.8,4.3,2.6,7.9,2.6c6.9,0,10.3-3.6,10.3-10.8v-28.2H867.3z"></path>
	<path d="M908.5,621.3c0,4.7-1.5,8.2-4.6,10.7s-7.4,3.7-13,3.7h-4.6v16.7H879v-44.6h12.8c5.6,0,9.7,1.1,12.5,3.4   S908.5,616.8,908.5,621.3z M886.3,629.6h3.9c3.7,0,6.5-0.7,8.2-2s2.6-3.3,2.6-6.1c0-2.6-0.8-4.5-2.3-5.7c-1.6-1.3-4-1.9-7.3-1.9   h-5.1V629.6z"></path>
	<path d="M943.5,640.3c0,4-1.4,7.1-4.3,9.3c-2.9,2.3-6.8,3.4-11.9,3.4s-9.2-0.8-12.4-2.3v-6.9c2,1,4.2,1.7,6.5,2.3s4.4,0.8,6.4,0.8   c2.9,0,5-0.5,6.4-1.6c1.4-1.1,2.1-2.6,2.1-4.4c0-1.7-0.6-3.1-1.9-4.2c-1.3-1.2-3.9-2.5-7.8-4.1c-4.1-1.6-6.9-3.5-8.6-5.6   c-1.7-2.1-2.5-4.7-2.5-7.6c0-3.7,1.3-6.7,4-8.8s6.2-3.2,10.6-3.2c4.3,0,8.5,0.9,12.8,2.8l-2.3,5.9c-4-1.7-7.5-2.5-10.6-2.5   c-2.4,0-4.1,0.5-5.4,1.5c-1.2,1-1.8,2.4-1.8,4.1c0,1.2,0.2,2.2,0.7,3c0.5,0.8,1.3,1.6,2.4,2.3c1.1,0.7,3.1,1.7,6,2.9   c3.3,1.4,5.7,2.6,7.2,3.8c1.5,1.2,2.6,2.5,3.4,4C943.1,636.5,943.5,638.3,943.5,640.3z"></path>
</g>
</svg>
