<?xml version="1.0" encoding="UTF-8"?>
<!-- Generator: Adobe Illustrator 23.0.1, SVG Export Plug-In . SVG Version: 6.00 Build 0)  -->
<svg preserveAspectRatio="xMidYMid slice" width="1152px" height="648px" xmlns:cc="http://web.resource.org/cc/" xmlns:dc="http://purl.org/dc/elements/1.1/" xmlns:inkscape="http://www.inkscape.org/namespaces/inkscape" xmlns:rdf="http://www.w3.org/1999/02/22-rdf-syntax-ns#" xmlns:sodipodi="http://sodipodi.sourceforge.net/DTD/sodipodi-0.dtd" xmlns:svg="http://www.w3.org/2000/svg" xmlns="http://www.w3.org/2000/svg" xmlns:xlink="http://www.w3.org/1999/xlink" id="svg6381" x="0px" y="0px" viewBox="0 0 1588.2 900" style="enable-background:new 0 0 1588.2 900;" xml:space="preserve">
<style type="text/css">
	.st0{fill:#F9F9F9;}
	.st1{fill:#FF0000;}
</style>

<rect y="0" class="st0" width="1588.2" height="900"></rect>
<g id="layer1" transform="translate(-150.5555,-398.0498)" inkscape:groupmode="layer" inkscape:label="Ebene 1">
	<g id="g6448" transform="translate(7.082139,7.094533)">
		<polygon id="_130734048" class="st1" points="1308.7,1092.3 1532.9,1092.3 1532.9,868.7 1308.7,868.7   "></polygon>
		<polygon id="_131059136" class="st1" points="337.6,1092.3 561.2,1092.3 561.2,868.7 337.6,868.7   "></polygon>
		<path id="_130367672" d="M1495.8,829c-12.2,0-23.1-5.1-29.5-16l-3.2,12.8h-18.6v-56.4h30.1c0,10.9-1.3,38.4,16,38.4    c8.3,0,12.2-7,12.2-14.7c0-33.3-59.6-42.3-59.6-94.2c0-26.3,16-50,43.6-50c12.2,0,21.8,5.1,28.8,15.4l3.2-12.2h14.1v54.4h-27.5    c0-12.2,2.6-35.2-14.7-35.2c-7.7,0-11.5,6.4-11.5,12.8c0,24.8,48.6,36.1,58.5,80v30.6C1532.8,814.4,1518,829,1495.8,829    L1495.8,829z"></path>
		<path id="_129819432" d="M1402.9,829c-25.6,0-32.7-21.1-32.7-42.9V673.4h-12.8v-21.1h12.8v-38.4h46.1v38.4h19.9v21.1h-19.9v118.5    c0,1.9,0.6,3.8,1.3,5.8l2.6,1.3c3.8-1.3,5.8-3.8,9-6.4l9,14.1C1429.1,818.8,1418.3,829,1402.9,829L1402.9,829z"></path>
		<path id="_130358720" d="M1343.3,642.6c0-9.6,1.9-28.2-12.2-28.2c-9.6,0-14.1,9.6-14.1,18.6c0,19.2,16.7,19.2,31.4,19.2v21.1    h-21.1v132h16.7v20.5h-72.4v-20.5h9.6v-132h-11.5v-21.1h11.5v-17.3c0-26.8,22-46.6,47.2-48.5h9.9c7.8,0.4,15.8,1.5,22.9,3v53.2    L1343.3,642.6L1343.3,642.6z"></path>
		<path id="_129768008" d="M1079.4,825.8V696.4c0-11.5-0.6-17.3-8.3-17.3c-7,0-12.2,10.9-12.2,17.9v108.3h12.2v20.5h-67.9v-20.5h9.6    V610.6h-9.6v-21.8h55.7v76.9c7.7-11.5,17.9-16.7,31.4-16.7c33.3,0,35.2,25.6,35.2,62.8v93.5h10.3v20.5L1079.4,825.8L1079.4,825.8z    "></path>
		<path id="_130358232" d="M951.9,829c-51.2,0-58.3-51.9-58.3-92.2c0-37.2,8.3-87.8,55.7-87.8c9.6,0,18.6,4.5,25,12.2l3.8-9h17.3    v60.9h-27.5c0-32.7-1.9-41.6-14.7-41.6c-9.6,0-11.5,11.5-11.5,18.6v85.8c0,11.5,3.2,26.3,17.9,26.3c15.4,0,18.6-26.3,20.5-37.2    l20.5,3.2C1000,797.6,985.9,829,951.9,829L951.9,829z"></path>
		<path id="_129874072" d="M844.3,829c-12.2,0-22.4-5.1-29.5-16l-3.2,12.8h-17.9v-56.4h29.5c0,10.9-0.6,38.4,16,38.4    c8.3,0,12.8-7,12.8-14.7c0-33.3-60.2-42.3-60.2-94.2c0-26.3,16-50,43.6-50c12.8,0,22.4,5.1,28.8,15.4l3.8-12.2h13.5v54.4h-27.5    c0-12.2,2.6-35.2-14.7-35.2c-7.7,0-11.5,6.4-11.5,12.8c0,26.9,60.2,38.4,60.2,96.1C887.9,806.6,872.5,829,844.3,829L844.3,829    L844.3,829z"></path>
		<path id="_129881688" d="M752.7,829c-26.3,0-32.7-21.1-32.7-42.9V673.4h-12.8v-21.1H720v-38.4h46.1v38.4H786v21.1h-19.9v118.5    c0,1.9,0.6,3.8,1.3,5.8l2.6,1.3c3.8-1.3,5.8-3.8,8.3-6.4l9,14.1C779,818.8,768.1,829,752.7,829L752.7,829z"></path>
		<path id="_130412376" d="M680.3,707.3c0-9.6,2.6-30.1-12.2-30.1c-10.3,0-14.1,9.6-14.1,18.6v109.5h14.1v20.5h-69.8v-20.5h9.6v-132    h-9.6v-21.1h50l3.2,12.2c5.8-9.6,18.6-15.4,30.1-15.4c5.1,0,14.1,0.6,18.6,2.6v55.7L680.3,707.3L680.3,707.3z"></path>
		<path id="_129767728" d="M529.1,588.8h49.3v46.1h-49.3V588.8L529.1,588.8z M522.1,825.8v-20.5h10.3v-132h-10.3v-21.1h56.4v153.1    h12.2v20.5L522.1,825.8L522.1,825.8z"></path>
		<polygon id="_129767808" points="511.2,611.9 483.6,825.8 443.3,825.8 429.8,702.8 412.5,825.8 374.7,825.8 348.5,611.9     337.6,611.9 337.6,588.8 402.9,588.8 402.9,611.9 391.4,611.9 406.1,725.9 423.4,588.8 462.5,588.8 477.2,724.6 491.3,611.9     481.1,611.9 481.1,588.8 521.4,588.8 521.4,611.9   "></polygon>
		<path id="_130809840" d="M1237,831.6c-12.8,0-22.4-3.2-28.8-14.1c-6.4,10.3-16.7,13.5-28.2,13.5c-31.4,0-41.6-25-41.6-52.5    c0-39.1,28.2-56.4,63.4-56.4v-34c0-8.2-0.1-16.7-10.9-16.7c-7.4,0-15.4,3.4-15.4,41.6h-28.8v-60.9h19.9l3.8,11.5    c7.7-8.3,17.9-12.8,29.5-12.8c42.9,0,47.4,23.7,47.4,60.9v83.9c0,1.9,0.6,5.1,3.2,6.4c3.2-0.6,7-5.8,9-8.3l7.7,18.6    C1259.4,823.9,1251.7,831.6,1237,831.6L1237,831.6z M1197.9,741.9c-13.5,0-16,21.1-16,30.7c0,7.7,0,30.7,11.5,30.7    c6.4,0,8.3-4.5,8.3-14.1v-47.4H1197.9L1197.9,741.9z"></path>
		<path id="_130358344" d="M1092.2,1092.3V962.9c0-12.2-1.3-17.3-8.3-17.3c-7.7,0-12.8,10.3-12.8,17.9v108.3h12.2v20.5h-67.9v-20.5    h9.6V877.1h-9.6v-21.8h55.7v76.9c7.7-11.5,17.9-16.7,31.4-16.7c33.3,0,35.2,25,35.2,62.8v93.5h10.3v20.5L1092.2,1092.3    L1092.2,1092.3z"></path>
		<path id="_130495440" d="M964.1,1095.5c-51.2,0-57.7-51.9-57.7-92.2c0-37.2,8.3-87.8,55.1-87.8c9.6,0,18.6,4.5,25,12.2l3.8-9.6    h17.3v61.5h-27.5c0-33.3-1.9-42.3-14.7-42.3c-9,0-11.5,12.2-11.5,18.6v86.5c0,11.5,3.8,26.3,17.9,26.3c15.4,0,19.2-26.3,20.5-37.2    l20.5,3.2C1012.1,1064.1,998,1095.5,964.1,1095.5L964.1,1095.5z"></path>
		<polygon id="_129946616" points="775.1,878.4 747.6,1092.3 707.9,1092.3 693.8,969.3 676.5,1092.3 639.3,1092.3 613,878.4     602.2,878.4 602.2,855.3 667.5,855.3 667.5,878.4 656,878.4 670.1,991.7 688,855.3 726.4,855.3 741.8,991.1 755.9,878.4     745.6,878.4 745.6,855.3 786,855.3 786,878.4   "></polygon>
		<path id="_129791232" d="M1209.4,1095.5c-50,0-58.9-48.7-58.9-89c0-35.2,12.2-91,57-91c40.4,0,55.1,38.4,55.1,73    c0,10.9-0.6,15.4-1.3,23.1h-64.1v32.7c0,14.1,5.1,25,20.5,25c15.4,0,23.1-22.4,25.6-35.2l20.5,3.2    C1260,1069.9,1245.9,1095.5,1209.4,1095.5L1209.4,1095.5z M1217.8,954.6c0-6.4,0-19.2-9.6-19.2c-9.6,0-10.9,14.7-10.9,21.8v35.2    h21.1L1217.8,954.6L1217.8,954.6z"></path>
		<path id="_129871768" d="M835.3,1095.5c-48,0-60.2-50.6-60.2-89.7c0-38.4,12.2-90.3,60.2-90.3c48,0,60.2,51.9,60.2,90.3    C895.5,1044.9,883.4,1095.5,835.3,1095.5L835.3,1095.5z M846.2,954.6c0-7-1.3-19.2-10.9-19.2c-9.6,0-10.9,12.2-10.9,19.2v101.2    c0,7,1.3,19.9,10.9,19.9c9.6,0,10.9-12.8,10.9-19.9V954.6z"></path>
	</g>
</g>
</svg>
