<?xml version="1.0" encoding="UTF-8"?>
<!-- Generator: Adobe Illustrator 24.2.0, SVG Export Plug-In . SVG Version: 6.00 Build 0)  -->
<svg preserveAspectRatio="xMidYMid slice" width="576px" height="298px" xmlns="http://www.w3.org/2000/svg" xmlns:xlink="http://www.w3.org/1999/xlink" version="1.1" id="Layer_1" x="0px" y="0px" viewBox="0 0 660.9 342.6" style="enable-background:new 0 0 660.9 342.6;" xml:space="preserve">
<style type="text/css">
	.st0{fill:#1A181B;}
</style>
<g>
	<g>
		<path class="st0" d="M47,171l14.2-6.2c0.9,4.2,5.1,6.3,9.5,6.3c3.4,0,6.3-1.4,6.3-4.1c0-7.6-28.1-0.7-28.1-21.6    c0-11.7,10.4-18.4,22.5-18.4c12.1,0,19.6,4.6,22.1,13.5l-14.7,4.3c-0.7-3.6-4.2-5.1-7.4-5.1c-3.5,0-5.6,1.6-5.6,4    c0,7.6,28.2,0.6,28.2,22c0,12.2-11.2,18.2-23.4,18.2C58.5,183.8,50,179,47,171z"></path>
		<path class="st0" d="M119,140c11.2,0,18,5.9,18.8,14.8l-14,3.2c-0.2-3.5-1.3-6-4.4-6c-3.7,0-5.3,3.9-5.3,9.9    c0,6.5,1.6,9.8,5.4,9.8c2.4,0,4.2-1.8,4.6-5.8l14.2,4.7c-1.8,8.1-9.1,13.1-18.6,13.1c-13.3,0-21.7-8.4-21.7-21.9    C97.8,148.3,106.3,140,119,140z"></path>
		<path class="st0" d="M180.5,169c0,1.9,1.1,2.6,2.4,2.6c0.9,0,1.5-0.3,2.1-0.9l0.5,10.5c-2.3,1.5-5.3,2.4-8.6,2.4    c-4,0-7.3-1.4-9.4-3.8c-0.7-0.7-1.2-1.6-1.5-2.5c-1.7,3.9-6.4,6.2-11.9,6.2c-8.1,0-13.3-4.4-13.3-12.2c0-8.3,7.3-12.7,18-12.7    c2,0,4.3,0.2,5.7,0.3V155c0-2.2-1.1-3.5-3.1-3.5c-2.2,0-3.6,1.6-3.5,4.8l-14.9-2c0.7-8.6,7.4-14.3,19.1-14.3    c13.1,0,18.4,5.8,18.4,14.5V169z M164.6,166.3c-0.4-0.1-1.6-0.2-2.4-0.2c-3.7,0-5.5,1.4-5.5,3.9c0,2,1.3,3.3,3.6,3.3    c2.2,0,4.4-1.2,4.4-4.9V166.3z"></path>
		<path class="st0" d="M211.5,181.3c-2,1.4-5.5,2.4-9.9,2.4c-6,0-12.5-2.9-12.5-12.3v-47.8h16.4v43.9c0,2.5,1,3.4,2.5,3.4    c1.1,0,1.8-0.2,2.8-1L211.5,181.3z"></path>
		<path class="st0" d="M241.4,167.3l13.1,4.7c-2.8,8.1-10.7,11.8-19,11.8c-13,0-21.4-8.1-21.4-21.4c0-13.6,8.1-22.4,21.7-22.4    c12.9,0,19,8.8,19,19.2c0,1.6-0.3,4.1-0.7,5.5h-24.3c0,4.5,2.7,7,6,7C238.6,171.7,240.5,170.4,241.4,167.3z M239.7,157.8    c0.2-0.5,0.2-1.1,0.2-1.8c0-2.4-1.5-4.4-4.2-4.4c-3.2,0-5.5,2.5-5.6,6.2H239.7z"></path>
		<path class="st0" d="M269.4,127.9v54.9h-4.8v-54.9H269.4z"></path>
		<path class="st0" d="M297.3,146.3c-0.9-0.3-2-0.4-3.3-0.4c-6.9,0-11.5,6.6-11.5,16v21h-4.7v-41.1h3.7l0.7,11.2    c1.4-7.6,7.2-13.2,15.3-11.7L297.3,146.3z"></path>
		<path class="st0" d="M326.4,171.4l4.2,1.2c-1.8,7.7-7.7,11.1-14.9,11.1c-10.7,0-17.6-7.4-17.6-21.4c0-13.3,7-21.4,17.6-21.4    c9.9,0,15.1,7.1,15.1,16.4c0,2.1-0.2,3.9-0.6,5.2h-27.6c0.1,10.8,4.9,17.3,13,17.3C321.2,179.8,325.1,177.1,326.4,171.4z     M326.1,158.9c0.1-0.7,0.1-1.6,0.1-2.5c0-6.6-3.7-11.8-10.7-11.8c-7.3,0-12,5.6-12.7,14.3H326.1z"></path>
		<path class="st0" d="M353.1,182.4c-1.2,0.7-3.1,1.1-4.8,1.1c-4.7,0-7.5-2.5-7.5-7.9v-52.2h4.7v51.7c0,3.2,1.5,4.4,3.9,4.4    c1.1,0,2.2-0.3,3.1-1L353.1,182.4z"></path>
		<path class="st0" d="M386.1,175.1c0,3.1,1.1,4.5,3.3,4.5c0.8,0,1.7-0.3,2.4-0.8l0.3,3.7c-0.9,0.6-2.4,0.9-3.7,0.9    c-3,0-5.1-1.4-6-4.1c-0.4-1.1-0.6-2.5-0.7-3.7c-1.6,5.1-7,8-12.4,8c-7.3,0-12.6-4.2-12.6-11.4c0-8.2,6.8-13,19.6-13    c1.5,0,3.4,0.2,5.3,0.4v-5.3c0-6.4-3.4-9.4-9.3-9.4c-5.5,0-9,2.8-9.4,8.5l-4.6-0.8c0.8-7.8,7-11.6,14.3-11.6    c8.1,0,13.5,3.9,13.5,12.7V175.1z M381.7,163.2c-1.5-0.2-3.4-0.4-5.3-0.4c-9.4,0-15,2.9-15,9.2c0,4.8,3.3,7.8,8.9,7.8    c5.8,0,11.4-3.7,11.4-12.3V163.2z"></path>
		<path class="st0" d="M401.7,151c1.9-6,7.1-10.1,14.1-10.1c7.3,0,12.5,4.4,12.5,13.2v28.7h-4.7v-27.6c0-6.4-3.2-10.1-9.1-10.1    c-6.6,0-12.3,4.6-12.3,14.4v23.3h-4.7v-41.1h3.6L401.7,151z"></path>
		<path class="st0" d="M463.2,173.7c-1.8,6.4-7.4,9.9-13.7,9.9c-9.2,0-16.5-7.1-16.5-20.7c0-13.8,6.8-22,17.2-22    c6.9,0,11.2,4,12.6,8.1v-25.6h4.7v59.3h-3.7L463.2,173.7z M462.9,158.1c0-9.4-6.5-13.4-12.1-13.4c-7.2,0-13.1,5.8-13.1,18.1    c0,10.8,5.1,16.9,12.8,16.9c6,0,12.4-4.4,12.4-14.6V158.1z"></path>
	</g>
</g>
<path class="st0" d="M613.5,130.5c-6-20.8-12.1-41.5-18.1-62.3c-1.2-4.1-9.3-13-14.3-9.6c-18.2,12.5-36.4,25-54.6,37.6  c-7.6,5.2,6.2,19.8,12.4,15.6c9.8-6.8,19.7-13.6,29.5-20.3c-12.7,56.3-35,117-76.9,157.2c-17.8,17.1-41.7,30.6-66.8,23  c-17.2-5.2-33.1-18.7-43.6-33.3c-4.4-6.1-23.8-1-19,5.7C393,287,446.9,297.4,490.5,268c54.7-37,82.6-110.4,97.2-173.8  c3.2,11,6.4,21.9,9.5,32.9C599.4,134.3,616.8,142,613.5,130.5z"></path>
</svg>
