<?xml version="1.0" encoding="UTF-8"?>
<svg xmlns="http://www.w3.org/2000/svg" id="Layer_1" data-name="Layer 1" viewBox="0 0 155 155">
  <defs>
    <style>.cls-1{fill:#282828;}</style>
  </defs>
  <path class="cls-1" d="M0,77.45l3.89-1.71a2.43,2.43,0,0,0,2.59,1.71c.93,0,1.72-.37,1.72-1.11,0-2.09-7.69-.19-7.69-5.93,0-3.19,2.82-5,6.16-5s5.37,1.25,6,3.71l-4,1.16a1.92,1.92,0,0,0-2-1.39c-1,0-1.53.41-1.53,1.11,0,2.08,7.69.18,7.69,6,0,3.33-3.06,5-6.39,5S.83,79.63,0,77.45Z"></path>
  <path class="cls-1" d="M19.68,69c3.06,0,4.91,1.62,5.14,4L21,73.88c-.05-1-.37-1.62-1.21-1.62-1,0-1.43,1.07-1.43,2.69s.41,2.68,1.48,2.68c.65,0,1.16-.5,1.25-1.57L25,77.36c-.51,2.22-2.5,3.56-5.09,3.56-3.66,0-5.93-2.31-5.93-6S16.21,69,19.68,69Z"></path>
  <path class="cls-1" d="M36.49,76.89c0,.51.28.7.65.7a.75.75,0,0,0,.55-.23l.14,2.87a4.33,4.33,0,0,1-2.36.65,3.25,3.25,0,0,1-2.55-1,1.8,1.8,0,0,1-.41-.7,3.41,3.41,0,0,1-3.24,1.72c-2.23,0-3.66-1.21-3.66-3.34s2-3.47,4.91-3.47c.55,0,1.15.05,1.57.09V73.1c0-.61-.28-1-.83-1s-1,.42-1,1.3l-4.07-.55c.18-2.37,2-3.89,5.23-3.89,3.57,0,5.05,1.57,5.05,4Zm-4.35-.74a2.9,2.9,0,0,0-.65,0c-1,0-1.48.37-1.48,1.06a.85.85,0,0,0,1,.88c.6,0,1.2-.32,1.2-1.34l0-.56Z"></path>
  <path class="cls-1" d="M45,80.27a4.94,4.94,0,0,1-2.68.65,3.13,3.13,0,0,1-3.43-3.38V64.48h4.49v12c0,.69.28.92.7.92a1.08,1.08,0,0,0,.78-.27Z"></path>
  <path class="cls-1" d="M53.16,76.43l3.56,1.3A5.16,5.16,0,0,1,51.54,81a5.43,5.43,0,0,1-5.84-5.84c0-3.7,2.23-6.11,5.93-6.11a4.87,4.87,0,0,1,5.19,5.23,7.88,7.88,0,0,1-.19,1.49H50a1.66,1.66,0,0,0,1.62,1.89A1.52,1.52,0,0,0,53.16,76.43Zm-.46-2.59a1.84,1.84,0,0,0,0-.51,1.13,1.13,0,0,0-1.16-1.21,1.59,1.59,0,0,0-1.52,1.72Z"></path>
  <path class="cls-1" d="M60.8,65.64v15H59.5v-15Z"></path>
  <path class="cls-1" d="M68.44,70.69a2.65,2.65,0,0,0-.88-.09c-1.9,0-3.15,1.8-3.15,4.35v5.74h-1.3V69.44h1l.19,3c.37-2.08,2-3.61,4.17-3.19Z"></path>
  <path class="cls-1" d="M76.4,77.54l1.16.33a3.86,3.86,0,0,1-4.07,3c-2.92,0-4.82-2-4.82-5.83s1.9-5.84,4.82-5.84c2.68,0,4.12,2,4.12,4.5a4.27,4.27,0,0,1-.19,1.43H69.88c0,3,1.34,4.72,3.56,4.72A2.84,2.84,0,0,0,76.4,77.54Zm-.09-3.42a2.9,2.9,0,0,0,0-.7c0-1.8-1-3.24-2.92-3.24S70.15,71.71,70,74.07h6.34Z"></path>
  <path class="cls-1" d="M83.67,80.55a2.73,2.73,0,0,1-1.29.28c-1.3,0-2-.69-2-2.18V64.39h1.3V78.51c0,.88.41,1.21,1.06,1.21a1.39,1.39,0,0,0,.84-.28Z"></path>
  <path class="cls-1" d="M92.7,78.56c0,.83.28,1.25.88,1.25a1.09,1.09,0,0,0,.65-.23l.09,1a1.76,1.76,0,0,1-1,.23,1.54,1.54,0,0,1-1.63-1.11,3.76,3.76,0,0,1-.18-1,3.42,3.42,0,0,1-3.38,2.18c-2,0-3.43-1.16-3.43-3.11,0-2.22,1.86-3.56,5.37-3.56.42,0,.93,0,1.44.09V72.87A2.26,2.26,0,0,0,89,70.32a2.29,2.29,0,0,0-2.54,2.31l-1.25-.23c.23-2.13,1.89-3.15,3.89-3.15,2.22,0,3.7,1.07,3.7,3.48l0,5.83Zm-1.2-3.24a12.48,12.48,0,0,0-1.44-.09c-2.54,0-4.12.78-4.12,2.5,0,1.29.88,2.13,2.46,2.13a3,3,0,0,0,3.1-3.38Z"></path>
  <path class="cls-1" d="M97,72a3.92,3.92,0,0,1,3.85-2.78c2,0,3.42,1.2,3.42,3.61v7.82h-1.29V73.1c0-1.76-.88-2.78-2.5-2.78-1.81,0-3.38,1.25-3.38,3.93v6.39h-1.3V69.39h1Z"></path>
  <path class="cls-1" d="M113.77,78.19A3.72,3.72,0,0,1,110,80.88c-2.5,0-4.49-1.95-4.49-5.65s1.85-6,4.72-6a3.45,3.45,0,0,1,3.43,2.22v-7H115v16.2h-1Zm-.09-4.26a3.34,3.34,0,0,0-3.29-3.66c-2,0-3.56,1.58-3.56,5,0,3,1.39,4.63,3.52,4.63,1.62,0,3.38-1.21,3.38-4l0-1.95Z"></path>
  <path class="cls-1" d="M154.89,66.38c-1.62-5.69-3.29-11.34-4.95-17-.33-1.11-2.55-3.56-3.89-2.64-5,3.43-10,6.86-14.91,10.28-2.09,1.44,1.71,5.42,3.38,4.26l8-5.55c-3.47,15.37-9.58,32-21,43-4.86,4.67-11.39,8.38-18.24,6.3-4.73-1.44-9-5.1-11.9-9.13-1.21-1.66-6.53-.28-5.19,1.58,8.43,11.71,23.2,14.58,35.1,6.53,15-10.1,22.6-30.19,26.58-47.51.88,3,1.76,6,2.59,9C151,67.4,155.77,69.53,154.89,66.38Z"></path>
</svg>
