<?xml version="1.0" encoding="UTF-8"?>
<svg xmlns="http://www.w3.org/2000/svg" width="155" height="155" viewBox="0 0 155 155" fill="none">
  <path d="M26.534 78.6066C24.8314 84.6292 23.4274 89.6881 23.3132 90.3738C23.2692 90.7224 23.0979 91.0428 22.8317 91.2742C22.5656 91.5057 22.2232 91.632 21.8695 91.6293C21.8167 91.6293 21.763 91.6293 21.7086 91.6293C21.3302 91.5851 20.9847 91.3943 20.7471 91.0985C20.5096 90.8027 20.3992 90.4257 20.4399 90.0495C20.5028 89.4843 21.6433 85.3195 23.0356 80.367C21.0672 81.2774 19.4487 81.8657 18.4505 81.9885C18.2897 82.0108 18.1277 82.0224 17.9654 82.0232C16.9882 82.0232 16.4961 81.56 16.2512 81.1523C16.0955 80.886 16.0303 80.5771 16.0652 80.2711C16.1 79.9652 16.2331 79.6786 16.4447 79.4536C16.6563 79.2286 16.9353 79.0772 17.2402 79.0219C17.5451 78.9666 17.8599 79.0102 18.1379 79.1463C18.9962 79.0258 21.1932 78.1294 24.0805 76.6423C25.5288 71.53 27.0261 66.3159 27.7724 63.7215C27.8848 63.3645 28.1333 63.0652 28.4648 62.8876C28.7964 62.71 29.1846 62.6681 29.5468 62.7708C29.909 62.8736 30.2164 63.1129 30.4034 63.4377C30.5904 63.7624 30.6422 64.1469 30.5477 64.5091C29.6615 67.5899 28.6306 71.1849 27.6301 74.7012C28.8755 73.9854 30.1956 73.1932 31.5203 72.3385C38.7339 67.7057 43.6479 63.2768 44.6391 60.4531C45.0122 59.3992 44.7394 58.9127 44.2123 58.5073C42.9482 57.5322 39.0627 57.4117 31.9447 59.9921C21.2771 63.8582 10.0078 71.3656 8.93264 75.2803C9.04248 75.3016 9.15424 75.3117 9.26615 75.3104C9.4593 75.2951 9.65357 75.3185 9.8374 75.3794C10.0212 75.4402 10.1908 75.5371 10.3361 75.6645C10.4814 75.7918 10.5994 75.9469 10.6831 76.1204C10.7668 76.294 10.8144 76.4825 10.8232 76.6748C10.832 76.867 10.8017 77.059 10.7342 77.2394C10.6666 77.4198 10.5632 77.5848 10.4301 77.7247C10.297 77.8645 10.1369 77.9763 9.95938 78.0534C9.78185 78.1305 9.59051 78.1713 9.39676 78.1734C9.09123 78.1873 7.51465 78.2105 6.59808 77.1311C6.33541 76.8121 6.1519 76.4362 6.06237 76.0339C5.97284 75.6315 5.97979 75.2139 6.08266 74.8147C6.80098 71.4721 11.3931 67.8122 15.1177 65.3129C20.0692 62.0397 25.3875 59.35 30.9652 57.2982C36.0541 55.4451 42.7919 53.7727 45.9941 56.2396C47.4867 57.3978 48.0278 59.0563 47.5194 60.9326C46.864 63.3578 43.9744 67.6293 33.9341 74.2008C31.4317 75.8385 28.8662 77.3534 26.534 78.6066ZM123.401 76.6863C122.291 79.737 119.69 86.8784 122.916 88.347C123.251 88.5132 123.507 88.8021 123.632 89.1527C123.756 89.5033 123.739 89.8883 123.583 90.2263C123.427 90.5644 123.145 90.8291 122.797 90.9647C122.448 91.1002 122.06 91.096 121.715 90.9529C117.622 89.0998 118.139 84.0732 119.303 79.8875C114.711 85.2963 111.84 88.0412 109.564 88.0412C109.217 88.0453 108.875 87.9663 108.565 87.8111C108.256 87.6559 107.989 87.4289 107.786 87.1494C106.562 85.4793 107.362 82.102 109.748 74.6734C109.83 74.4186 109.913 74.1545 110 73.8881C109.79 74.1614 109.564 74.4703 109.323 74.8147C107.856 76.8994 106.327 79.5447 104.976 81.8796C104.043 83.5011 103.222 84.9187 102.534 85.9611C101.846 87.0035 100.832 88.5485 99.3881 88.0134C99.1703 87.9295 98.9715 87.8033 98.8033 87.6423C98.6351 87.4812 98.5009 87.2884 98.4086 87.0753C98.1754 86.5356 97.7089 85.5302 99.5141 78.3194C99.8219 77.087 100.155 75.8362 100.468 74.7151C98.0285 76.8554 95.8851 78.0947 94.0963 78.7942C93.8866 79.9913 93.4983 81.1507 92.9442 82.234C90.2971 87.4343 87.095 89.8989 83.9301 89.1832C82.715 88.9052 81.8055 88.0458 81.3647 86.7672C80.2709 83.5961 82.1786 78.5742 86.4699 73.3322C86.6612 73.0981 86.922 72.93 87.2152 72.8518C87.5083 72.7736 87.8189 72.7893 88.1025 72.8967C88.3981 72.661 88.7099 72.4458 89.0354 72.2528C90.1735 71.5926 91.1554 71.4397 91.9553 71.7895C92.9512 72.2528 93.5063 73.309 93.7955 74.1267C93.9634 74.6092 94.0852 75.1063 94.1593 75.6115C96.0064 74.6849 98.3456 73.0311 101.086 70.0962C101.669 69.4708 102.756 68.3103 103.957 69.0585C105.158 69.8067 104.584 71.2081 104.318 71.8868C103.943 72.8411 102.474 78.0275 101.639 81.8889C101.923 81.4025 102.205 80.9137 102.474 80.4481C106.485 73.499 109.33 68.938 112.19 68.7133C112.441 68.6934 112.693 68.7351 112.924 68.8349C113.155 68.9347 113.358 69.0894 113.514 69.2855C114.2 70.1448 113.948 71.0228 112.498 75.5397C111.744 77.8816 110.091 83.0332 110.088 84.9789C110.622 84.6987 111.611 84.0084 113.274 82.3197C115.058 80.5083 116.964 78.2197 118.494 76.3829C120.905 73.4874 121.437 72.9083 122.109 72.6766C122.379 72.5779 122.673 72.5583 122.954 72.6203C123.236 72.6823 123.494 72.8233 123.697 73.0264C124.45 73.7862 124.163 74.5761 123.394 76.6863H123.401ZM90.9245 79.5725C90.4881 79.6147 90.0491 79.6232 89.6114 79.598C88.2121 79.51 87.067 79.0374 86.3883 78.2869C83.9301 82.1645 83.7109 84.7728 84.0771 85.8198C84.2426 86.2993 84.4759 86.3549 84.5645 86.3734C86.2554 86.7626 88.4197 84.7288 90.3508 80.9345C90.5753 80.4951 90.767 80.0398 90.9245 79.5725V79.5725ZM91.3396 76.6145C91.3229 75.8884 91.1402 75.1755 90.8055 74.5298C90.1059 74.8124 88.9398 75.8663 88.6832 76.4709C89.1164 76.6679 89.5902 76.7607 90.0662 76.7419C90.4941 76.7455 90.9211 76.7027 91.3396 76.6145V76.6145ZM148.64 72.0929C144.764 76.3481 141.41 78.0808 138.81 78.6529C138.57 79.3989 138.269 80.1241 137.91 80.821C134.798 86.8737 131.808 88.3887 129.598 88.3887C129.26 88.3883 128.924 88.3533 128.595 88.2844C127.405 88.0319 126.496 87.2119 126.06 85.968C124.893 82.7251 126.939 77.3604 131.545 71.6366C131.733 71.3977 131.992 71.2241 132.285 71.1409C132.579 71.0576 132.891 71.069 133.177 71.1733C134.327 70.2074 135.883 69.3526 137.156 69.9202C137.921 70.2607 138.535 71.032 138.931 72.1508C139.287 73.2289 139.439 74.3627 139.381 75.4957C141.296 74.8008 143.689 73.2488 146.511 70.1518C146.77 69.881 147.126 69.7217 147.502 69.7077C147.879 69.6937 148.245 69.8262 148.525 70.077C148.804 70.3277 148.973 70.6768 148.997 71.05C149.021 71.4231 148.897 71.7907 148.652 72.0744L148.64 72.0929ZM135.661 78.8336C133.586 78.5881 132.128 77.636 131.396 76.7697C130.552 78.0766 129.848 79.4678 129.297 80.9206C128.672 82.6255 128.48 84.1636 128.788 85.0091C128.937 85.4237 129.124 85.4723 129.206 85.4723C130.941 85.8383 133.243 83.6192 135.351 79.51C135.449 79.2853 135.566 79.0583 135.661 78.8336V78.8336ZM136.025 72.7068C135.225 73.0589 133.884 74.3583 133.681 75.0069C133.987 75.3104 134.847 75.9149 136.291 76.0122H136.431C136.615 74.4278 136.319 73.2187 136.025 72.7068V72.7068ZM128.648 64.9631C128.986 63.6682 128.322 62.3734 127.158 62.0723C125.994 61.7711 124.779 62.5772 124.436 63.8744C124.093 65.1716 124.765 66.4618 125.927 66.7629C127.088 67.0641 128.305 66.258 128.648 64.9631ZM81.1898 70.5919C80.5857 70.2815 79.6598 70.3441 79.0908 70.4228C76.2104 70.8235 73.013 72.8064 71.9238 74.0294C72.311 74.1985 72.8567 74.3885 73.2858 74.5437C75.3708 75.2803 78.2278 76.2925 79.3823 78.8243C80.0819 80.3763 80.0236 82.2364 79.1794 84.3512C76.6349 90.7259 71.6253 92.2964 68.808 92.2964C68.3296 92.305 67.8523 92.2473 67.39 92.125C65.6874 91.6246 64.4537 90.573 63.8217 89.0859C62.2381 85.3658 64.8945 80.1331 65.2023 79.5494C65.2902 79.382 65.4104 79.2336 65.5561 79.1124C65.7018 78.9913 65.8701 78.8998 66.0513 78.8432C66.2326 78.7866 66.4233 78.7661 66.6126 78.7827C66.8018 78.7993 66.986 78.8528 67.1544 78.9401C67.3229 79.0274 67.4723 79.1468 67.5943 79.2915C67.7163 79.4362 67.8084 79.6033 67.8654 79.7834C67.9223 79.9634 67.943 80.1528 67.9263 80.3408C67.9095 80.5288 67.8557 80.7116 67.7678 80.879C67.1078 82.1367 65.5918 85.8684 66.4897 87.9717C66.7882 88.6666 67.3386 89.1183 68.2226 89.3778C68.4838 89.4542 69.9274 89.5862 71.7209 88.75C73.1786 88.0736 75.1889 86.5772 76.4973 83.2949C77.0431 81.9306 77.1293 80.8257 76.7562 80.008C76.1055 78.5834 74.0065 77.8399 72.325 77.2422C70.6924 76.6678 69.4143 76.2138 68.9246 75.0787C68.8114 74.8115 68.7543 74.5241 68.7567 74.2341C68.7591 73.9442 68.821 73.6578 68.9386 73.3924C64.8082 74.0873 61.4894 76.7002 59.0569 81.1662C58.1366 82.8826 57.404 84.692 56.8716 86.5634C56.4705 88.3377 56.1719 89.5746 56.1719 89.5862C56.0985 89.9006 55.9203 90.1812 55.6664 90.3825C55.4124 90.5839 55.0975 90.6942 54.7726 90.6958C54.6835 90.6961 54.5945 90.6884 54.5067 90.6726C54.141 90.6052 53.8155 90.4001 53.5982 90.1002C53.381 89.8003 53.2887 89.4286 53.3406 89.0627C53.5195 87.9434 53.7719 86.8369 54.0963 85.7503C54.7959 82.6162 55.4769 79.5331 55.962 77.1334C52.9581 81.1523 45.5836 90.2626 40.4551 90.2974C38.9881 90.3159 37.773 89.6395 36.9357 88.3632C36.8377 88.2142 36.749 88.0595 36.6698 87.8999C35.8677 88.2044 35.035 88.4226 34.186 88.5508C31.8888 88.8867 29.8621 88.4095 28.3298 87.1772C28.0389 86.9358 27.8553 86.5905 27.8185 86.2158C27.7818 85.8411 27.8949 85.4671 28.1334 85.1745C28.372 84.8819 28.7168 84.6942 29.0935 84.652C29.4701 84.6098 29.8484 84.7164 30.1466 84.9488C31.2707 85.8545 32.7354 85.8638 33.7662 85.7156C34.5612 85.5927 35.3376 85.3717 36.0775 85.0577C36.0425 81.8426 37.5584 78.1225 38.1765 76.7627C39.9793 72.7137 43.0928 68.206 46.3976 67.6895C47.9672 67.4439 49.2779 67.9535 49.9985 69.0793C51.5821 71.5741 49.4528 75.6879 47.3888 78.6992C45.0006 82.1738 42.1576 84.9257 39.2633 86.6467C39.2898 86.7035 39.3202 86.7585 39.3542 86.8112C39.7227 87.3718 40.1029 87.4505 40.4341 87.4436C41.255 87.4436 43.7225 86.8135 48.907 81.1592C51.0497 78.8159 53.0407 76.3401 54.8682 73.7468L55.1294 73.3322C56.1066 71.7779 56.818 70.6544 58.075 70.7842C58.4079 70.828 58.7209 70.9662 58.9765 71.1824C59.2322 71.3985 59.4196 71.6833 59.5164 72.0026C59.6423 72.3639 59.7496 72.6975 59.1339 75.9659C62.294 72.2968 66.3848 70.3603 71.1612 70.3302C71.355 70.3306 71.5468 70.3692 71.7256 70.4437C73.7126 69.0538 76.3667 67.9095 78.6803 67.5806C81.5163 67.1799 82.9949 68.1389 83.7389 69.0168C84.4829 69.8947 84.7161 71.5648 81.5862 74.5506C81.4514 74.6897 81.2896 74.8003 81.1106 74.8758C80.9316 74.9513 80.7391 74.9901 80.5447 74.9899C80.3502 74.9897 80.1578 74.9505 79.979 74.8746C79.8002 74.7987 79.6387 74.6877 79.5041 74.5483C79.3696 74.4089 79.2647 74.2439 79.196 74.0632C79.1272 73.8826 79.0959 73.69 79.1039 73.497C79.1119 73.3041 79.1591 73.1147 79.2426 72.9403C79.3261 72.7659 79.4442 72.61 79.5898 72.4821C80.1958 71.9164 80.7328 71.282 81.1898 70.5919V70.5919ZM39.107 83.332C41.178 81.8264 43.2141 79.6906 45.0052 77.0778C47.8412 72.9477 47.8039 71.0204 47.5707 70.6267C47.5124 70.5363 47.3375 70.5039 47.1602 70.5039C47.0587 70.5045 46.9574 70.5123 46.857 70.527C44.9329 70.8282 42.3605 74.4788 40.8142 77.9395C40.0129 79.6562 39.4391 81.4688 39.107 83.332ZM145.223 96.1323H9.20784V99H145.221L145.223 96.1323Z" fill="#282828"></path>
</svg>
