<?xml version="1.0" encoding="UTF-8"?>
<svg xmlns="http://www.w3.org/2000/svg" id="Layer_1" data-name="Layer 1" viewBox="0 0 155 155">
  <defs>
    <style>.cls-1{fill:#282828;}</style>
  </defs>
  <path class="cls-1" d="M27.39,74A6.45,6.45,0,0,1,32,75.88h0a6.47,6.47,0,1,0,9.15-9.15,19.43,19.43,0,0,0-27.46,27.5l13.73,13.68L41.12,94.18A6.47,6.47,0,1,0,32,85l-4.58,4.62-4.57-4.57h0A6.51,6.51,0,0,1,27.39,74ZM20.55,87.34l6.84,6.89,6.89-6.89a3.24,3.24,0,1,1,4.58,4.58L27.39,103.34,15.93,91.92A16.21,16.21,0,0,1,27.39,64.28,16.06,16.06,0,0,1,38.81,69h0a3.24,3.24,0,1,1-4.58,4.58h0a9.7,9.7,0,0,0-16.59,6.84A9.82,9.82,0,0,0,20.55,87.34Zm64-14.28a8,8,0,0,0-5.69-2.27c-5.18,0-9.2,4.07-9.2,9.71h0c0,5.64,4,9.71,9.2,9.71a8.12,8.12,0,0,0,5.69-2.27v1.81H88V71.26l-3.42.27ZM78.84,86.93c-3.1-.05-5.64-2.5-5.64-6.47S75.74,74,78.84,74s5.64,2.5,5.64,6.48S81.94,86.93,78.84,86.93ZM60.49,74a5.63,5.63,0,0,1,4.81,3l3-1.8a8.87,8.87,0,0,0-7.82-4.44c-5.22,0-9.2,4.07-9.2,9.71h0c0,5.63,4,9.7,9.2,9.7a8.92,8.92,0,0,0,7.82-4.44l-3-1.8a5.58,5.58,0,0,1-4.81,3c-3.1-.05-5.64-2.5-5.64-6.47S57.39,74,60.49,74Zm40.17-3.23A8.15,8.15,0,0,0,95,73V64.32l-3.42.28V89.7H95V87.9a7.94,7.94,0,0,0,5.69,2.26c5.18,0,9.2-4.07,9.2-9.7h0C109.86,74.82,105.84,70.79,100.66,70.75Zm0,16.18c-3.1-.05-5.64-2.5-5.64-6.47S97.56,74,100.66,74s5.64,2.5,5.64,6.48S103.76,86.93,100.66,86.93Zm44-15.67-5.27,12.11-5.64-12.11h-7.4V69.69c0-1.9.88-2.69,2.73-2.69a7.72,7.72,0,0,1,1.89.28l.84-2.86a11.16,11.16,0,0,0-3.61-.56c-3.56,0-5.5,2.27-5.5,5.64v1.85l-3.14.28v2.91h3.14V89.79h3.65V74.54h4.81l6.38,13.08a8.28,8.28,0,0,1-2.22,3.24,3.72,3.72,0,0,1-3.19.55l-.88,3a6.91,6.91,0,0,0,5.27-.28A8.84,8.84,0,0,0,140,89.75l8.46-18.54-3.88.05Zm-30-7.49a2.5,2.5,0,1,0,2.5,2.49A2.51,2.51,0,0,0,114.66,63.77Zm-1.8,25.88h3.65V71.26l-3.65.32Z"></path>
</svg>
