<?xml version="1.0" encoding="UTF-8"?>
<svg xmlns="http://www.w3.org/2000/svg" id="Layer_1" data-name="Layer 1" viewBox="0 0 155 155">
  <defs>
    <style>.cls-1{fill:#282828;}</style>
  </defs>
  <g id="Layer_1-2" data-name="Layer 1">
    <polygon class="cls-1" points="2.57 64.41 6.02 70.1 0 75.84 10.36 75.84 11.25 73.56 5.6 73.56 9.05 70.1 7.05 66.69 16.43 66.69 8.17 86.2 11.02 86.2 20.26 64.41 2.57 64.41"></polygon>
  </g>
  <g id="Layer_2" data-name="Layer 2">
    <rect class="cls-1" x="127.84" y="77.76" width="2.38" height="12.46"></rect>
    <rect class="cls-1" x="127.79" y="73.56" width="2.57" height="2.52"></rect>
    <polygon class="cls-1" points="123.82 73.56 120.93 86.53 120.79 86.53 117.75 77.76 115.66 77.76 112.2 86.53 112.06 86.53 109.77 73.56 107.25 73.56 110.43 90.27 112.72 90.27 116.5 81.07 116.64 81.07 119.86 90.27 122.24 90.27 126.25 73.56 123.82 73.56"></polygon>
    <path class="cls-1" d="M91.11,88.44c-2.29,0-3.83-1.77-3.83-4.43,0-2.43,1.35-4.48,3.59-4.48a3.24,3.24,0,0,1,3.27,3.41H89.8L89,84.85h7.61a3.56,3.56,0,0,0,.1-.84c0-3.59-1.82-6.49-5.74-6.49-3.37,0-6,2.76-6,6.54s2.52,6.49,6.07,6.49a6.78,6.78,0,0,0,5.14-2.11L94.7,87.09a5.73,5.73,0,0,1-3.59,1.35"></path>
    <path class="cls-1" d="M81.72,77.57c0-1.54.75-2.43,2.2-2.43a6,6,0,0,1,2,.38l.75-1.73a8,8,0,0,0-2.9-.65c-2.38,0-4.48,1.21-4.48,4.43v.37H77.71v2H79.3V90.26h2.38V80h2.38l.79-2H81.63Z"></path>
    <path class="cls-1" d="M60.49,77.57a4.1,4.1,0,0,0-3.69,1.77h-.14V77.76H54.42V90.22H56.8V83.5c0-2.43,1.26-4,3.22-4s3,1,3,3.27v7.37h2.38V82.38c-.09-3.13-1.92-4.81-4.9-4.81"></path>
    <path class="cls-1" d="M49.33,85.5c0,1.82-1.54,3-3.68,3-1.26,0-2.38-.61-2.38-2.1s1.12-2.29,2.89-2.29a5.1,5.1,0,0,1,3.17.75v.6Zm-3.26-7.93a11,11,0,0,0-3.69.61l.37,1.91a10.48,10.48,0,0,1,3-.51c2,0,3.64.93,3.64,3v.33a7.07,7.07,0,0,0-3.13-.51c-3.22,0-5.32,1.58-5.32,4.2s2.06,4,4.34,4a4.55,4.55,0,0,0,4-1.73h.14v1.44h2.29V82.42c0-3.31-2.2-4.85-5.6-4.85"></path>
    <polygon class="cls-1" points="20.26 73.56 20.26 75.84 25.53 75.84 25.53 90.27 28.05 90.27 28.05 75.84 33.32 75.84 33.32 73.56 20.26 73.56"></polygon>
    <path class="cls-1" d="M41,78A3.89,3.89,0,0,0,39,77.71a3.82,3.82,0,0,0-3.27,1.45h-.14v-1.4H33.28V90.22h2.38V83.45c0-2.66,1.26-3.69,3.17-3.69a11.23,11.23,0,0,1,1.68.19Z"></path>
    <path class="cls-1" d="M106.6,78.08a5,5,0,0,0-2-.37,4.14,4.14,0,0,0-3.41,1.45H101v-1.4H98.71V90.22h2.38V83.45c0-2.66,1.45-3.69,3.27-3.69A11.38,11.38,0,0,1,106,80Z"></path>
    <path class="cls-1" d="M149.49,88.44c-2.28,0-3.82-1.77-3.82-4.43,0-2.43,1.35-4.48,3.59-4.48a3.24,3.24,0,0,1,3.27,3.41h-4.34l-.8,1.91H155V84c0-3.59-1.82-6.49-5.74-6.49-3.36,0-6,2.76-6,6.54s2.52,6.49,6.07,6.49a6.76,6.76,0,0,0,5.13-2.11L153,87.09a5.08,5.08,0,0,1-3.5,1.35"></path>
    <path class="cls-1" d="M72.48,83c-1.82-.28-2.89-.61-2.89-1.77s1.07-1.78,2.38-1.78a5.5,5.5,0,0,1,3.27,1.08l1.12-1.73A7.07,7.07,0,0,0,72,77.52c-2.76,0-4.76,1.68-4.76,3.83,0,2.52,1.58,3.27,4.34,3.73,1.54.28,2.84.38,2.84,1.73,0,1.12-1.07,1.73-2.52,1.73a6.31,6.31,0,0,1-3.82-1.31L67,89.05a7.9,7.9,0,0,0,4.81,1.45c2.85,0,5-1.68,5-3.88.09-2.66-2.1-3.26-4.3-3.59"></path>
    <path class="cls-1" d="M137.68,83.12c-1.82-.28-2.89-.6-2.89-1.77s1.07-1.77,2.38-1.77a5.49,5.49,0,0,1,3.27,1.07l1.12-1.73a7,7,0,0,0-4.34-1.3c-2.76,0-4.76,1.68-4.76,3.82,0,2.52,1.58,3.27,4.29,3.74,1.54.28,2.85.37,2.85,1.72,0,1.12-1.08,1.73-2.52,1.73a6.31,6.31,0,0,1-3.83-1.31l-1.07,1.82a7.78,7.78,0,0,0,4.8,1.45c2.85,0,5-1.68,5-3.87,0-2.76-2.1-3.36-4.25-3.6"></path>
  </g>
</svg>
