<?xml version="1.0" encoding="UTF-8"?>
<!-- Generator: Adobe Illustrator 24.2.0, SVG Export Plug-In . SVG Version: 6.00 Build 0)  -->
<svg xmlns="http://www.w3.org/2000/svg" xmlns:xlink="http://www.w3.org/1999/xlink" version="1.1" id="Calque_1" x="0px" y="0px" viewBox="0 0 527.7 115" style="enable-background:new 0 0 527.7 115;" xml:space="preserve">
<g>
	<polygon points="229.1,44.7 229.1,52.6 253,38.9 263.9,44.9 263.9,64.1 276.7,71.9 276.7,44.9 252.2,31.2  "></polygon>
	<path d="M252.8,0l-50,28.8v57.5l50,28.8l50-28.8V28.8L252.8,0z M287.6,77.9L277,84.5l-24.3-14.4V52.2l-23.5,13.7v18.6l-10.8-6.2   L218.1,38l34.5-19.9l35,20.6V77.9z"></path>
</g>
<g>
	<path d="M24.8,44.4H7.5V55h14.6v6.9H7.5v18H0V37.5h24.8V44.4z"></path>
	<path d="M49.2,79.8l-8.4-14.9H38v14.9h-7.6V37.5h10.7c10.2,0,15,3.7,15,12.7v2.2c0,6.3-2.2,9.7-7.3,11.3l9.3,16.1H49.2z M41.1,57.9   c5.5,0,7-1.9,7-5.9v-1.4c0-4-1-6.1-6.9-6.1H38V58L41.1,57.9L41.1,57.9z"></path>
	<path d="M90.5,79.8h-7.8l-2.1-7.5H69.7l-2.2,7.5h-7.8l11.7-42.3H79L90.5,79.8z M78.6,64.9l-3.5-15.7l-3.5,15.7H78.6z"></path>
	<path d="M121.5,79.8h-7.4L101.7,53l0.7,16.1v10.8h-7.5V37.5h7.5l12.4,27.9L114,47.5v-10h7.5V79.8z"></path>
	<path d="M157.1,66.7c0,9.3-4.4,13.2-14.5,13.2s-14.1-3.9-14.1-12.6V50.1c0-9,3.9-12.6,14.1-12.6c10.2,0,14.5,3.7,14.5,13.1h-7.6   c0-4.1-1-6.4-6.9-6.4c-5.5,0-6.5,2.3-6.5,6.3v16.4c0,4,1,6.3,6.5,6.3s6.9-2.3,6.9-6.5H157.1z"></path>
	<path d="M187.8,37.5v6.6H171V55h14.3v6.8H171V73h17.5v6.9h-25.1V37.5H187.8z"></path>
	<path d="M332.6,37.5c10.2,0,14.5,3.7,14.5,12.6v17.3c0,8.7-4.4,12.4-14.5,12.4h-13.9V37.5H332.6z M332.6,72.9   c5.5,0,6.9-1.9,6.9-5.9V50.5c0-4-0.9-6.1-6.8-6.1h-6.5v28.5H332.6z"></path>
	<path d="M361.5,79.9h-7.6V37.5h7.6V79.9z"></path>
	<path d="M382.8,55.7H397v11c0,9.3-4.4,13.3-14.5,13.3s-14.1-4-14.1-13.1v-17c0-8.6,3.9-12.6,14.1-12.6S397,40.9,397,49.9h-7.6   c0-4-1-5.9-6.9-5.9c-5.5,0-6.5,2.5-6.5,6.3v16.6c0,4,1,6.3,6.5,6.3s7.4-2.3,7.4-6.5v-4.1h-7.2v-6.9H382.8z"></path>
	<path d="M411.6,79.9H404V37.5h7.6V79.9z"></path>
	<path d="M440.9,44.4h-8.7v35.4h-7.5V44.4h-8.8v-6.8H441v6.8H440.9z"></path>
	<path d="M469.1,79.8h-7.8l-2.1-7.5h-10.8l-2.2,7.5h-7.8L450,37.5h7.5L469.1,79.8z M457.2,64.9l-3.5-15.7l-3.5,15.7H457.2z"></path>
	<path d="M497.4,79.8h-24V37.5h7.6v35.4h16.3v6.9H497.4z"></path>
	<path d="M526.9,37.5v6.6h-16.8V55h14.3v6.8h-14.3V73h17.5v6.9h-25.1V37.5H526.9z"></path>
</g>
</svg>
