<?xml version="1.0" encoding="UTF-8"?>
<!-- Generator: Adobe Illustrator 24.2.0, SVG Export Plug-In . SVG Version: 6.00 Build 0)  -->
<svg xmlns="http://www.w3.org/2000/svg" xmlns:xlink="http://www.w3.org/1999/xlink" version="1.1" id="Layer_1" x="0px" y="0px" viewBox="0 0 612 792" style="enable-background:new 0 0 612 792;" xml:space="preserve">
<g>
	<path d="M325.8,431.2l-7.2-7.2v-20.4h-14.9v10.8h5.3v16.7h-38.4v-16.7h7.1v-31.8h-7.1v-16.8h64.2l10.8,10.8v13.5l-9.6,7.2l9.6,7.3   v12.1h6.1v14.4H325.8z M318.6,382.7h-14.9v10.8h14.9V382.7z"></path>
	<path d="M345.7,312.5v34.1L331.2,361h-39l-14.4-14.4v-34.1h-7.1v-16.8h39.3v16.8h-6.2v31.8h22v-31.8h-5.4v-16.8h31.4v16.8H345.7z"></path>
	<path d="M427.8,335.2H390v9h7.1v16.7h-40.2v-16.7h7.1v-31.8h-7.1v-16.8h69.7L438,307V325L427.8,335.2z M412.2,312.4H390v11.4h22.2   V312.4z"></path>
	<path d="M423.4,431.2H374l-17.1-16.7v-31.9l17.1-16.7h38.9l4.8,6.1l4.8-6.1H438v27.5h-20.3v-10.8h-34.2v31.9h34.2v-11H438v13.4   L423.4,431.2z"></path>
	<path d="M344.7,501.8h-74v-16.7h7.1v-31.8h-7.1v-16.8h40.2v16.8h-7.1v31.8h27.8V464h20.3v30L344.7,501.8z"></path>
	<path d="M430.8,501.8h-74v-16.7h7.1v-31.8h-7.1v-16.8H397v16.8h-7.1v31.8h27.8V464H438v30L430.8,501.8z"></path>
	<path d="M253,361h-45.3l-5.4-5.7l-4.8,5.7h-13.1v-19.9h18.3v5.6h34.1v-9.5h-40.6l-11.8-10.8v-16.1l13.5-14.6h40.7l5.4,5.7l4.8-5.7   H262v19.9h-18.3V310h-30.9v9.5h39.6l13.3,12.6v15.3L253,361z"></path>
	<path d="M258.4,431.2h-73.9v-16.7h7.1v-31.8h-7.1v-16.8h73.9l7.2,7.9v22.6h-20.3v-13.7h-27.7v9.8h12v12.1h-12v9.9h27.7v-13.7h20.3   v22.6L258.4,431.2z"></path>
	<path d="M258.4,501.8h-73.9v-16.7h7.1v-31.8h-7.1v-16.8h73.9l7.2,7.9V467h-20.3v-13.7h-27.7v9.8h12v12.1h-12v9.9h27.7v-13.7h20.3   V494L258.4,501.8z"></path>
</g>
</svg>
