<?xml version="1.0" encoding="UTF-8"?>
<!-- Generator: Adobe Illustrator 24.2.0, SVG Export Plug-In . SVG Version: 6.00 Build 0)  -->
<svg xmlns="http://www.w3.org/2000/svg" xmlns:xlink="http://www.w3.org/1999/xlink" version="1.1" id="Layer_1" x="0px" y="0px" viewBox="0 0 391 196" style="enable-background:new 0 0 391 196;" xml:space="preserve">
<g id="Layer_1_1_">
	<polygon points="81.8,78.4 87,87 77.9,95.7 93.6,95.7 95,92.2 86.4,92.2 91.6,87 88.6,81.8 102.8,81.8 90.3,111.4 94.6,111.4    108.6,78.4  "></polygon>
</g>
<g id="Layer_2_1_">
	<rect x="271.7" y="98.6" width="3.6" height="18.9"></rect>
	<rect x="271.6" y="92.2" width="3.9" height="3.8"></rect>
	<polygon points="265.6,92.2 261.2,111.9 261,111.9 256.4,98.6 253.2,98.6 248,111.9 247.8,111.9 244.3,92.2 240.5,92.2    245.3,117.6 248.8,117.6 254.5,103.6 254.7,103.6 259.6,117.6 263.2,117.6 269.3,92.2  "></polygon>
	<path d="M216,114.8c-3.5,0-5.8-2.7-5.8-6.7c0-3.7,2.1-6.8,5.4-6.8c3.8,0,4.9,3.2,5,5.2h-6.6l-1.2,2.9h11.5c0.1-0.8,0.1-1,0.1-1.3   c0-5.4-2.8-9.8-8.7-9.8c-5.1,0-9.1,4.2-9.1,9.9c0,5.9,3.8,9.8,9.2,9.8c3,0.1,5.8-1.1,7.8-3.2l-2.2-2.1   C219.9,114,218,114.8,216,114.8"></path>
	<path d="M201.8,98.3c0-2.3,1.1-3.7,3.3-3.7c1.1,0,2.1,0.2,3.1,0.6l1.1-2.6c-1.4-0.6-2.9-1-4.4-1c-3.6,0-6.8,1.8-6.8,6.7v0.6h-2.4v3   h2.4v15.7h3.6v-15.7h3.6l1.2-3h-4.9L201.8,98.3z"></path>
	<path d="M169.6,98.3c-2.2-0.2-4.4,0.9-5.6,2.7h-0.2v-2.4h-3.4v18.9h3.6v-10.2c0-3.7,1.9-6,4.9-6c2.8,0,4.5,1.5,4.5,5v11.2h3.6   v-11.9C176.9,100.9,174.1,98.3,169.6,98.3"></path>
	<path d="M152.7,110.3c0,2.8-2.3,4.6-5.6,4.6c-1.9,0-3.6-0.9-3.6-3.2c0-2.1,1.7-3.5,4.4-3.5c2.4,0,3.9,0.4,4.8,1.1V110.3z    M147.7,98.3c-1.9,0-3.8,0.3-5.6,0.9l0.6,2.9c1.5-0.5,3-0.7,4.5-0.8c3,0,5.5,1.4,5.5,4.5v0.5c-1.5-0.6-3.1-0.9-4.7-0.8   c-4.9,0-8.1,2.4-8.1,6.4c0,4.2,3.1,6,6.6,6c2.3,0.2,4.5-0.8,6-2.6h0.2v2.2h3.5v-11.8C156.2,100.6,152.9,98.3,147.7,98.3"></path>
	<polygon points="108.6,92.2 108.6,95.7 116.6,95.7 116.6,117.6 120.4,117.6 120.4,95.7 128.4,95.7 128.4,92.2  "></polygon>
	<path d="M140.1,99c-1-0.4-2-0.6-3.1-0.5c-1.9-0.1-3.8,0.7-5,2.2h-0.2v-2.1h-3.5v18.9h3.6v-10.3c0-4,1.9-5.6,4.8-5.6   c0.8,0,1.7,0.1,2.5,0.3L140.1,99z"></path>
	<path d="M239.5,99.1c-1-0.4-2-0.6-3.1-0.6c-2-0.1-3.9,0.7-5.2,2.2H231v-2.1h-3.5v18.9h3.6v-10.3c0-4,2.2-5.6,5-5.6   c0.8,0,1.7,0.1,2.5,0.3L239.5,99.1z"></path>
	<path d="M304.5,114.8c-3.5,0-5.8-2.7-5.8-6.7c0-3.7,2.1-6.8,5.4-6.8c3.8,0,4.9,3.2,5,5.2h-6.6l-1.2,2.9h11.5c0-0.8,0-1,0-1.3   c0-5.4-2.8-9.8-8.7-9.8c-5.1,0-9.1,4.2-9.1,9.9c0,5.9,3.8,9.8,9.2,9.8c3,0.1,5.8-1.1,7.8-3.2l-2.2-2.1   C308.5,114,306.6,114.8,304.5,114.8"></path>
	<path d="M187.8,106.6c-2.8-0.4-4.4-0.9-4.4-2.7c0-1.7,1.6-2.7,3.6-2.7c1.8,0,3.5,0.6,5,1.6l1.7-2.6c-1.9-1.4-4.3-2.1-6.6-2   c-4.2,0-7.2,2.5-7.2,5.8c0,3.8,2.4,5,6.6,5.7c2.3,0.4,4.3,0.6,4.3,2.6c0,1.7-1.6,2.6-3.8,2.6c-2.1,0-4.2-0.7-5.8-2l-1.6,2.8   c1.4,1.2,4.2,2.2,7.3,2.2c4.3,0,7.5-2.5,7.5-5.9C194.4,108,191.1,107.1,187.8,106.6"></path>
	<path d="M286.6,106.7c-2.8-0.4-4.4-0.9-4.4-2.7c0-1.7,1.6-2.7,3.6-2.7c1.8,0,3.5,0.6,5,1.6l1.7-2.6c-1.9-1.4-4.3-2.1-6.6-2   c-4.2,0-7.2,2.5-7.2,5.8c0,3.8,2.4,5,6.5,5.7c2.3,0.4,4.3,0.6,4.3,2.6c0,1.7-1.6,2.6-3.8,2.6c-2.1,0-4.2-0.7-5.8-2l-1.6,2.8   c1.4,1.2,4.2,2.2,7.3,2.2c4.3,0,7.5-2.5,7.5-5.9C293.1,108,289.9,107.1,286.6,106.7"></path>
</g>
</svg>
