<?xml version="1.0" encoding="UTF-8"?>
<svg preserveAspectRatio="xMidYMid slice" xmlns="http://www.w3.org/2000/svg" width="768px" height="768px" viewBox="0 0 1000 1000" fill="none">
  <path d="M234.286 408H193.856C193.924 424.2 190.178 440.188 182.921 454.672C175.664 469.155 165.101 481.727 152.084 491.372L136.084 503.346L198.02 587.887H249.047L191.998 510.09C205.466 496.729 216.141 480.822 223.401 463.295C230.662 445.767 234.362 426.971 234.286 408Z" fill="#282828"></path>
  <path d="M89.7708 587.887H131.164V408H89.7708V587.887Z" fill="#282828"></path>
  <path d="M261.091 587.818H300.075V408.034H261.091V587.818Z" fill="#282828"></path>
  <path d="M641.992 460.129C627.127 460.129 613.054 464.739 603.661 477.333V463.466H566.568V587.818H604.108V522.442C604.108 503.518 616.77 494.262 632.048 494.262C648.426 494.262 657.819 504.034 657.819 522.167V587.818H695.015V508.679C695.015 479.742 671.996 460.06 641.992 460.06V460.129Z" fill="#282828"></path>
  <path d="M383.998 557.642C375.285 557.864 366.839 554.619 360.517 548.619C354.195 542.619 350.512 534.355 350.278 525.642C350.755 517.017 354.517 508.903 360.792 502.966C367.067 497.029 375.377 493.72 384.015 493.72C392.653 493.72 400.963 497.029 407.238 502.966C413.513 508.903 417.275 517.017 417.753 525.642C417.518 534.361 413.831 542.631 407.501 548.631C401.171 554.632 392.717 557.873 383.998 557.642V557.642ZM417.856 463.466V471.415C409.365 465.63 399.635 461.92 389.449 460.583C379.263 459.247 368.905 460.32 359.209 463.718C349.514 467.116 340.752 472.743 333.628 480.146C326.505 487.549 321.219 496.521 318.197 506.34C315.175 516.159 314.501 526.551 316.229 536.678C317.957 546.806 322.038 556.386 328.145 564.647C334.252 572.909 342.214 579.621 351.389 584.243C360.564 588.865 370.696 591.268 380.97 591.259C394.117 591.337 406.978 587.425 417.856 580.042V587.99H455.12V463.466H417.856Z" fill="#282828"></path>
  <path d="M512.718 479.673V463.466H474.594V587.818H512.787V529.771C512.787 510.159 534.017 499.63 548.778 499.63H549.191V463.466C534.086 463.466 520.185 469.935 512.718 479.673V479.673Z" fill="#282828"></path>
  <path d="M776.837 557.642C768.124 557.864 759.679 554.619 753.357 548.619C747.034 542.619 743.351 534.355 743.117 525.642C743.595 517.017 747.357 508.903 753.632 502.966C759.906 497.029 768.216 493.72 776.855 493.72C785.493 493.72 793.803 497.029 800.078 502.966C806.352 508.903 810.115 517.017 810.592 525.642C810.358 534.361 806.671 542.631 800.341 548.631C794.011 554.632 785.557 557.873 776.837 557.642V557.642ZM810.73 463.466V471.415C800.868 464.696 789.361 460.794 777.447 460.128C765.533 459.462 753.663 462.057 743.114 467.635C732.565 473.212 723.737 481.561 717.58 491.782C711.422 502.003 708.168 513.71 708.168 525.642C708.168 537.575 711.422 549.282 717.58 559.503C723.737 569.724 732.565 578.073 743.114 583.65C753.663 589.228 765.533 591.823 777.447 591.157C789.361 590.491 800.868 586.589 810.73 579.87V587.818H847.96V463.466H810.73Z" fill="#282828"></path>
  <path d="M887.496 543.707C882.867 543.7 878.339 545.066 874.487 547.633C870.635 550.2 867.631 553.852 865.854 558.127C864.078 562.402 863.61 567.107 864.509 571.648C865.408 576.189 867.634 580.361 870.904 583.637C874.175 586.913 878.344 589.145 882.884 590.05C887.424 590.956 892.13 590.494 896.407 588.724C900.685 586.955 904.341 583.956 906.913 580.107C909.486 576.259 910.859 571.734 910.859 567.105C910.863 564.034 910.262 560.992 909.09 558.153C907.918 555.315 906.198 552.735 904.028 550.562C901.858 548.389 899.281 546.665 896.444 545.489C893.608 544.312 890.567 543.707 887.496 543.707V543.707Z" fill="#282828"></path>
</svg>
