<?xml version="1.0" encoding="UTF-8"?>
<svg preserveAspectRatio="xMidYMid slice" xmlns="http://www.w3.org/2000/svg" id="eba4ad2f-d18d-4e87-aea1-3ea836993ce6" data-name="Layer 1" width="334px" height="394px" viewBox="0 0 334.49 394.3">
  <title>Rewarding Talent Diagram</title>
  <rect x="43.63" y="87.16" width="118.21" height="46.89" fill="#fff" stroke="#000" stroke-miterlimit="10" stroke-width="1.25"></rect>
  <rect x="43.63" y="260.24" width="118.21" height="46.88" fill="#fff" stroke="#000" stroke-miterlimit="10" stroke-width="1.25"></rect>
  <rect x="172.65" y="87.16" width="118.21" height="46.89" fill="#fff" stroke="#000" stroke-miterlimit="10" stroke-width="1.25"></rect>
  <rect x="172.65" y="260.24" width="118.21" height="46.88" fill="#fff" stroke="#000" stroke-miterlimit="10" stroke-width="1.25"></rect>
  <rect x="108.14" y="0.63" width="118.21" height="46.88" fill="#fff" stroke="#000" stroke-miterlimit="10" stroke-width="1.25"></rect>
  <rect x="108.14" y="346.79" width="118.21" height="46.88" fill="#fff" stroke="#000" stroke-miterlimit="10" stroke-width="1.25"></rect>
  <path d="M85.16,106.26H83.45v-.55h4v.55H85.76V112h-.6Z" transform="translate(-4.36 -4.56)"></path>
  <path d="M91.2,108v4h-.58v-.84a1.68,1.68,0,0,1-1.58.94,2.09,2.09,0,0,1,0-4.17,1.69,1.69,0,0,1,1.59.94V108Zm-.58,2a1.52,1.52,0,1,0-1.51,1.56A1.5,1.5,0,0,0,90.62,110Z" transform="translate(-4.36 -4.56)"></path>
  <path d="M92.57,105.71h.59V112h-.59Z" transform="translate(-4.36 -4.56)"></path>
  <path d="M94.79,110.14a1.34,1.34,0,0,0,1.39,1.47,1.15,1.15,0,0,0,1.19-.74H98a1.69,1.69,0,0,1-1.78,1.24,1.94,1.94,0,0,1-2-2.11,1.9,1.9,0,0,1,1.91-2.06A1.79,1.79,0,0,1,98,109.72a2.34,2.34,0,0,1,0,.42Zm0-.45h2.64a1.23,1.23,0,0,0-1.31-1.26A1.28,1.28,0,0,0,94.8,109.69Z" transform="translate(-4.36 -4.56)"></path>
  <path d="M99.08,108h.58v.87a1.58,1.58,0,0,1,1.53-1,1.48,1.48,0,0,1,1.18.49,1.89,1.89,0,0,1,.35,1.24V112h-.58v-2.17c0-.78-.34-1.38-1.14-1.38A1.38,1.38,0,0,0,99.66,110v2h-.58Z" transform="translate(-4.36 -4.56)"></path>
  <path d="M106.14,112a4,4,0,0,1-.68.06c-.51,0-1.2-.11-1.2-1.39v-2.15h-.81V108h.81v-1.48h.58V108H106v.5h-1.16v2c0,.85.32,1,.73,1a4.48,4.48,0,0,0,.57-.05Z" transform="translate(-4.36 -4.56)"></path>
  <path d="M109.72,113.23c0,.82-.36,1.17-1,1.17a1.63,1.63,0,0,1-.59-.11v-.5a1.1,1.1,0,0,0,.42.1c.37,0,.54-.24.54-.69V108h.58Zm-.28-7.3a.54.54,0,1,1,0,1.07.54.54,0,0,1,0-1.07Z" transform="translate(-4.36 -4.56)"></path>
  <path d="M110.83,110a2.1,2.1,0,1,1,2.1,2.09A2,2,0,0,1,110.83,110Zm3.61,0a1.51,1.51,0,1,0-1.51,1.56A1.5,1.5,0,0,0,114.44,110Z" transform="translate(-4.36 -4.56)"></path>
  <path d="M116.42,105.93a.54.54,0,1,1-.53.54A.53.53,0,0,1,116.42,105.93Zm-.29,2.1h.59v4h-.59Z" transform="translate(-4.36 -4.56)"></path>
  <path d="M118.19,108h.59v.87a1.57,1.57,0,0,1,1.53-1,1.48,1.48,0,0,1,1.18.49,1.94,1.94,0,0,1,.35,1.24V112h-.59v-2.17c0-.78-.34-1.38-1.14-1.38a1.37,1.37,0,0,0-1.33,1.51v2h-.59Z" transform="translate(-4.36 -4.56)"></path>
  <path d="M126,110.94c0,.76-.61,1.17-1.51,1.17s-1.69-.45-1.69-1.45h.56c0,.71.5,1,1.13,1s1-.23,1-.65c0-.58-.66-.62-1.31-.78s-1.2-.35-1.2-1.12.66-1.14,1.44-1.14,1.57.5,1.57,1.32h-.57c0-.55-.37-.85-1-.85s-.9.23-.9.66.45.58,1.2.71S126,110.15,126,110.94Z" transform="translate(-4.36 -4.56)"></path>
  <path d="M127.37,111c.36,0,.7.28.7.93a1.05,1.05,0,0,1-1.2,1.14v-.32a.59.59,0,0,0,.64-.38.82.82,0,0,0,0-.38.3.3,0,0,1-.23.08.52.52,0,0,1-.52-.53A.53.53,0,0,1,127.37,111Z" transform="translate(-4.36 -4.56)"></path>
  <path d="M66,119.56a1.63,1.63,0,0,0-.35,0c-1,0-1.45.79-1.45,1.72V123h-.58v-4h.58v1a1.5,1.5,0,0,1,1.43-1A1,1,0,0,1,66,119Z" transform="translate(-4.36 -4.56)"></path>
  <path d="M66.89,121.14a1.34,1.34,0,0,0,1.39,1.47,1.16,1.16,0,0,0,1.18-.74h.59a1.69,1.69,0,0,1-1.78,1.24,1.94,1.94,0,0,1-2-2.11,1.9,1.9,0,0,1,1.91-2.07,1.79,1.79,0,0,1,1.89,1.79,3.57,3.57,0,0,1,0,.42Zm0-.45h2.64a1.23,1.23,0,0,0-1.32-1.26A1.26,1.26,0,0,0,66.9,120.69Z" transform="translate(-4.36 -4.56)"></path>
  <path d="M74.12,120.48a1.13,1.13,0,0,0-1.24-1,1.56,1.56,0,0,0,0,3.12,1.15,1.15,0,0,0,1.24-.94h.58a1.7,1.7,0,0,1-1.83,1.47,2.1,2.1,0,0,1,0-4.19,1.67,1.67,0,0,1,1.81,1.56Z" transform="translate(-4.36 -4.56)"></path>
  <path d="M76,121.14a1.34,1.34,0,0,0,1.39,1.47,1.16,1.16,0,0,0,1.19-.74h.58a1.69,1.69,0,0,1-1.78,1.24,1.94,1.94,0,0,1-2-2.11,1.9,1.9,0,0,1,1.91-2.07,1.79,1.79,0,0,1,1.89,1.79,2.39,2.39,0,0,1,0,.42Zm0-.45h2.64a1.23,1.23,0,0,0-1.31-1.26A1.27,1.27,0,0,0,76,120.69Z" transform="translate(-4.36 -4.56)"></path>
  <path d="M80.71,116.93a.54.54,0,1,1-.54.54A.53.53,0,0,1,80.71,116.93ZM80.42,119H81v4h-.58Z" transform="translate(-4.36 -4.56)"></path>
  <path d="M82.42,119l1.42,3.17L85.27,119h.63L84,123h-.41l-1.83-4Z" transform="translate(-4.36 -4.56)"></path>
  <path d="M87,116.93a.54.54,0,1,1-.53.54A.52.52,0,0,1,87,116.93ZM86.69,119h.59v4h-.59Z" transform="translate(-4.36 -4.56)"></path>
  <path d="M88.75,119h.59v.88a1.57,1.57,0,0,1,1.53-1,1.5,1.5,0,0,1,1.18.5,1.94,1.94,0,0,1,.35,1.24V123h-.59v-2.17c0-.78-.34-1.38-1.14-1.38A1.37,1.37,0,0,0,89.34,121v2h-.59Z" transform="translate(-4.36 -4.56)"></path>
  <path d="M97.52,123.33a1.85,1.85,0,0,1-2.07,2.09,1.82,1.82,0,0,1-2.07-1.83H94a1.29,1.29,0,0,0,1.47,1.3c.93,0,1.5-.45,1.5-1.56v-1.17a1.67,1.67,0,0,1-1.57,1,2.09,2.09,0,0,1,0-4.18,1.68,1.68,0,0,1,1.57.94V119h.59ZM93.91,121a1.51,1.51,0,1,0,1.51-1.55A1.5,1.5,0,0,0,93.91,121Z" transform="translate(-4.36 -4.56)"></path>
  <path d="M103.89,121.94c0,.76-.61,1.17-1.51,1.17s-1.7-.45-1.7-1.45h.57c0,.71.5,1,1.13,1s1-.22,1-.64c0-.58-.66-.62-1.31-.78s-1.2-.35-1.2-1.12.66-1.15,1.44-1.15,1.57.51,1.57,1.33h-.57c0-.55-.37-.85-1-.85s-.9.23-.9.66.45.57,1.2.71S103.89,121.15,103.89,121.94Z" transform="translate(-4.36 -4.56)"></path>
  <path d="M107.09,123a4,4,0,0,1-.68.06c-.51,0-1.2-.11-1.2-1.39v-2.15h-.81V119h.81v-1.47h.58V119H107v.51h-1.16v2c0,.85.32,1,.73,1a4.63,4.63,0,0,0,.57,0Z" transform="translate(-4.36 -4.56)"></path>
  <path d="M107.44,121a2.1,2.1,0,1,1,2.1,2.09A2,2,0,0,1,107.44,121Zm3.61,0a1.51,1.51,0,1,0-1.51,1.56A1.5,1.5,0,0,0,111.05,121Z" transform="translate(-4.36 -4.56)"></path>
  <path d="M115.59,120.48a1.12,1.12,0,0,0-1.24-1,1.56,1.56,0,0,0,0,3.12,1.15,1.15,0,0,0,1.24-.94h.58a1.7,1.7,0,0,1-1.83,1.47,2.1,2.1,0,0,1,0-4.19,1.69,1.69,0,0,1,1.82,1.56Z" transform="translate(-4.36 -4.56)"></path>
  <path d="M118.49,121l2,2h-.77l-1.87-1.86V123h-.59v-6.3h.59v4.19L119.7,119h.77Z" transform="translate(-4.36 -4.56)"></path>
  <path d="M122.85,121a2.1,2.1,0,1,1,2.1,2.09A2,2,0,0,1,122.85,121Zm3.61,0a1.51,1.51,0,1,0-1.51,1.56A1.5,1.5,0,0,0,126.46,121Z" transform="translate(-4.36 -4.56)"></path>
  <path d="M128.64,119.87a1.68,1.68,0,0,1,1.57-.94,2.09,2.09,0,0,1,0,4.18,1.67,1.67,0,0,1-1.57-1v3.17h-.59V119h.59Zm0,1.14a1.51,1.51,0,1,0,1.51-1.55A1.5,1.5,0,0,0,128.64,121Z" transform="translate(-4.36 -4.56)"></path>
  <path d="M135.39,123a4,4,0,0,1-.69.06c-.51,0-1.19-.11-1.19-1.39v-2.15h-.81V119h.81v-1.47h.57V119h1.16v.51h-1.16v2c0,.85.33,1,.73,1a5,5,0,0,0,.58,0Z" transform="translate(-4.36 -4.56)"></path>
  <path d="M136.5,116.93a.54.54,0,1,1,0,1.07.54.54,0,0,1,0-1.07Zm-.28,2.09h.58v4h-.58Z" transform="translate(-4.36 -4.56)"></path>
  <path d="M137.92,121a2.1,2.1,0,1,1,2.09,2.09A2,2,0,0,1,137.92,121Zm3.61,0a1.52,1.52,0,1,0-1.52,1.56A1.5,1.5,0,0,0,141.53,121Z" transform="translate(-4.36 -4.56)"></path>
  <path d="M143.12,119h.58v.88a1.59,1.59,0,0,1,1.53-1,1.49,1.49,0,0,1,1.18.5,1.89,1.89,0,0,1,.35,1.24V123h-.58v-2.17c0-.78-.34-1.38-1.14-1.38A1.38,1.38,0,0,0,143.7,121v2h-.58Z" transform="translate(-4.36 -4.56)"></path>
  <path d="M150.91,121.94c0,.76-.62,1.17-1.52,1.17s-1.69-.45-1.69-1.45h.57c0,.71.49,1,1.12,1s1-.22,1-.64c0-.58-.66-.62-1.32-.78s-1.2-.35-1.2-1.12.66-1.15,1.45-1.15a1.38,1.38,0,0,1,1.56,1.33h-.57c0-.55-.36-.85-1-.85s-.9.23-.9.66.45.57,1.21.71S150.91,121.15,150.91,121.94Z" transform="translate(-4.36 -4.56)"></path>
  <path d="M73.87,284.84h-1.7v-.55h4v.55H74.47v5.75h-.6Z" transform="translate(-4.36 -4.56)"></path>
  <path d="M79.92,286.6v4h-.59v-.85a1.68,1.68,0,0,1-1.57.95,2.09,2.09,0,0,1,0-4.18,1.67,1.67,0,0,1,1.58.95v-.86Zm-.59,2a1.51,1.51,0,1,0-1.51,1.56A1.5,1.5,0,0,0,79.33,288.6Z" transform="translate(-4.36 -4.56)"></path>
  <path d="M81.29,284.29h.58v6.3h-.58Z" transform="translate(-4.36 -4.56)"></path>
  <path d="M83.51,288.72a1.33,1.33,0,0,0,1.38,1.46,1.15,1.15,0,0,0,1.19-.74h.59a1.71,1.71,0,0,1-1.78,1.25,1.94,1.94,0,0,1-2-2.12,1.9,1.9,0,0,1,1.91-2.06,1.79,1.79,0,0,1,1.89,1.78,3.64,3.64,0,0,1,0,.43Zm0-.45h2.64A1.23,1.23,0,0,0,84.84,287,1.26,1.26,0,0,0,83.52,288.27Z" transform="translate(-4.36 -4.56)"></path>
  <path d="M87.79,286.6h.59v.87a1.57,1.57,0,0,1,1.53-1,1.45,1.45,0,0,1,1.18.5,1.93,1.93,0,0,1,.35,1.24v2.34h-.59v-2.17c0-.78-.34-1.39-1.14-1.39a1.38,1.38,0,0,0-1.33,1.51v2h-.59Z" transform="translate(-4.36 -4.56)"></path>
  <path d="M94.86,290.59a4.25,4.25,0,0,1-.69.05c-.51,0-1.19-.11-1.19-1.38V287.1h-.81v-.5H93v-1.48h.57v1.48h1.16v.5H93.55v2c0,.84.33,1,.73,1,.19,0,.43,0,.58,0Z" transform="translate(-4.36 -4.56)"></path>
  <path d="M98.12,284.5a.53.53,0,0,1,.54.54.54.54,0,0,1-1.07,0A.54.54,0,0,1,98.12,284.5Zm-.28,2.1h.58v4h-.58Z" transform="translate(-4.36 -4.56)"></path>
  <path d="M102.75,289.52c0,.75-.61,1.17-1.51,1.17s-1.69-.45-1.69-1.45h.56c0,.71.5,1,1.13,1s1-.22,1-.65-.65-.62-1.31-.77-1.2-.35-1.2-1.13.66-1.14,1.44-1.14,1.57.5,1.57,1.32h-.57c0-.55-.37-.84-1-.84s-.9.22-.9.65.45.58,1.21.72S102.75,288.73,102.75,289.52Z" transform="translate(-4.36 -4.56)"></path>
  <path d="M108.38,287.14a1.17,1.17,0,0,0-.35,0c-1,0-1.45.79-1.45,1.72v1.77H106v-4h.58v.95a1.5,1.5,0,0,1,1.43-1,.82.82,0,0,1,.37.06Z" transform="translate(-4.36 -4.56)"></path>
  <path d="M109.32,288.72a1.33,1.33,0,0,0,1.39,1.46,1.15,1.15,0,0,0,1.18-.74h.59a1.7,1.7,0,0,1-1.78,1.25,1.94,1.94,0,0,1-2-2.12,1.9,1.9,0,0,1,1.91-2.06,1.79,1.79,0,0,1,1.89,1.78,3.64,3.64,0,0,1,0,.43Zm0-.45H112a1.23,1.23,0,0,0-1.32-1.26A1.26,1.26,0,0,0,109.33,288.27Z" transform="translate(-4.36 -4.56)"></path>
  <path d="M115.9,287.25l-1.18,3.34h-.42l-1.54-4h.62l1.12,3.11,1.11-3.11h.58l1.11,3.11,1.12-3.11H119l-1.54,4h-.41Z" transform="translate(-4.36 -4.56)"></path>
  <path d="M123.39,286.6v4h-.59v-.85a1.68,1.68,0,0,1-1.57.95,2.09,2.09,0,0,1,0-4.18,1.67,1.67,0,0,1,1.58.95v-.86Zm-.59,2a1.51,1.51,0,1,0-1.51,1.56A1.5,1.5,0,0,0,122.8,288.6Z" transform="translate(-4.36 -4.56)"></path>
  <path d="M127.14,287.14a1.17,1.17,0,0,0-.35,0c-1,0-1.45.79-1.45,1.72v1.77h-.59v-4h.59v.95a1.49,1.49,0,0,1,1.42-1,.87.87,0,0,1,.38.06Z" transform="translate(-4.36 -4.56)"></path>
  <path d="M131.06,289.74a1.68,1.68,0,0,1-1.57.95,2.09,2.09,0,0,1,0-4.18,1.66,1.66,0,0,1,1.58.95v-3.17h.59v6.3h-.59Zm0-1.14a1.51,1.51,0,1,0-1.51,1.56A1.5,1.5,0,0,0,131.06,288.6Z" transform="translate(-4.36 -4.56)"></path>
  <path d="M133.28,288.72a1.33,1.33,0,0,0,1.38,1.46,1.15,1.15,0,0,0,1.19-.74h.59a1.71,1.71,0,0,1-1.78,1.25,1.94,1.94,0,0,1-2-2.12,1.9,1.9,0,0,1,1.91-2.06,1.79,1.79,0,0,1,1.89,1.78,3.64,3.64,0,0,1,0,.43Zm0-.45h2.64a1.23,1.23,0,0,0-1.32-1.26A1.26,1.26,0,0,0,133.29,288.27Z" transform="translate(-4.36 -4.56)"></path>
  <path d="M140.81,289.74a1.68,1.68,0,0,1-1.57.95,2.09,2.09,0,0,1,0-4.18,1.67,1.67,0,0,1,1.58.95v-3.17h.59v6.3h-.59Zm0-1.14a1.51,1.51,0,1,0-1.51,1.56A1.5,1.5,0,0,0,140.81,288.6Z" transform="translate(-4.36 -4.56)"></path>
  <path d="M204.67,106.62h.63v6.31h-.63Z" transform="translate(-4.36 -4.56)"></path>
  <path d="M206.67,108.94h.58v.87a1.58,1.58,0,0,1,1.53-1,1.48,1.48,0,0,1,1.18.49,1.89,1.89,0,0,1,.35,1.24v2.35h-.58v-2.17c0-.79-.34-1.39-1.14-1.39a1.38,1.38,0,0,0-1.34,1.51v2.05h-.58Z" transform="translate(-4.36 -4.56)"></path>
  <path d="M211.37,108.94l1.42,3.17,1.43-3.17h.63l-1.86,4h-.41l-1.83-4Z" transform="translate(-4.36 -4.56)"></path>
  <path d="M215.62,111.05a1.34,1.34,0,0,0,1.39,1.47,1.17,1.17,0,0,0,1.19-.74h.58A1.69,1.69,0,0,1,217,113a1.93,1.93,0,0,1-2-2.11,1.9,1.9,0,0,1,1.91-2.06,1.79,1.79,0,0,1,1.89,1.78,2.34,2.34,0,0,1,0,.42Zm0-.45h2.64a1.24,1.24,0,0,0-1.32-1.26A1.27,1.27,0,0,0,215.63,110.6Z" transform="translate(-4.36 -4.56)"></path>
  <path d="M222.76,111.85c0,.76-.61,1.17-1.51,1.17s-1.7-.45-1.7-1.45h.57c0,.72.5,1,1.13,1s.95-.23.95-.65c0-.58-.66-.62-1.31-.77s-1.2-.36-1.2-1.13.66-1.14,1.44-1.14,1.57.5,1.57,1.32h-.57c0-.55-.37-.85-1-.85s-.9.23-.9.66.45.58,1.2.71S222.76,111.06,222.76,111.85Z" transform="translate(-4.36 -4.56)"></path>
  <path d="M226,112.93a5.62,5.62,0,0,1-.68,0c-.51,0-1.2-.11-1.2-1.39v-2.15h-.81v-.5h.81v-1.48h.58v1.48h1.16v.5h-1.16v2c0,.84.32,1,.73,1a4.48,4.48,0,0,0,.57,0Z" transform="translate(-4.36 -4.56)"></path>
  <path d="M226.31,110.94a2.1,2.1,0,1,1,2.1,2.08A2,2,0,0,1,226.31,110.94Zm3.61,0a1.51,1.51,0,1,0-1.51,1.55A1.5,1.5,0,0,0,229.92,110.94Z" transform="translate(-4.36 -4.56)"></path>
  <path d="M233.9,109.48a1.22,1.22,0,0,0-.35,0c-1,0-1.45.79-1.45,1.72v1.78h-.58v-4h.58v.94a1.5,1.5,0,0,1,1.42-1,.86.86,0,0,1,.38.07Z" transform="translate(-4.36 -4.56)"></path>
  <path d="M237.42,111.85c0,.76-.61,1.17-1.51,1.17s-1.69-.45-1.69-1.45h.56c0,.72.5,1,1.13,1s1-.23,1-.65c0-.58-.65-.62-1.31-.77s-1.2-.36-1.2-1.13.66-1.14,1.44-1.14,1.57.5,1.57,1.32h-.57c0-.55-.37-.85-1-.85s-.9.23-.9.66.45.58,1.21.71S237.42,111.06,237.42,111.85Z" transform="translate(-4.36 -4.56)"></path>
  <path d="M241.25,109.78a1.68,1.68,0,0,1,1.58-.93,2.09,2.09,0,0,1,0,4.17,1.68,1.68,0,0,1-1.58-1v3.18h-.58v-6.31h.58Zm0,1.15a1.52,1.52,0,1,0,1.52-1.56A1.5,1.5,0,0,0,241.25,110.93Z" transform="translate(-4.36 -4.56)"></path>
  <path d="M248.27,109.48a1.22,1.22,0,0,0-.35,0c-1,0-1.45.79-1.45,1.72v1.78h-.58v-4h.58v.94a1.5,1.5,0,0,1,1.43-1,.82.82,0,0,1,.37.07Z" transform="translate(-4.36 -4.56)"></path>
  <path d="M248.58,110.94a2.1,2.1,0,1,1,2.1,2.08A2,2,0,0,1,248.58,110.94Zm3.61,0a1.51,1.51,0,1,0-1.51,1.55A1.5,1.5,0,0,0,252.19,110.94Z" transform="translate(-4.36 -4.56)"></path>
  <path d="M253.56,108.94l1.41,3.17,1.43-3.17H257l-1.85,4h-.42l-1.82-4Z" transform="translate(-4.36 -4.56)"></path>
  <path d="M258.11,106.84a.54.54,0,1,1-.53.54A.53.53,0,0,1,258.11,106.84Zm-.29,2.1h.59v4h-.59Z" transform="translate(-4.36 -4.56)"></path>
  <path d="M263.13,112.08a1.68,1.68,0,0,1-1.57.94,2.09,2.09,0,0,1,0-4.17,1.68,1.68,0,0,1,1.58.94v-3.17h.59v6.31h-.59Zm0-1.14a1.51,1.51,0,1,0-1.51,1.55A1.5,1.5,0,0,0,263.13,110.94Z" transform="translate(-4.36 -4.56)"></path>
  <path d="M265.35,111.05a1.34,1.34,0,0,0,1.39,1.47,1.15,1.15,0,0,0,1.19-.74h.58a1.69,1.69,0,0,1-1.78,1.24,1.93,1.93,0,0,1-2-2.11,1.9,1.9,0,0,1,1.91-2.06,1.79,1.79,0,0,1,1.89,1.78,2.34,2.34,0,0,1,0,.42Zm0-.45H268a1.24,1.24,0,0,0-1.31-1.26A1.28,1.28,0,0,0,265.36,110.6Z" transform="translate(-4.36 -4.56)"></path>
  <path d="M208.73,118.17a1.28,1.28,0,0,0-.47-.08c-.36,0-.77.08-.77.9v1h1.24v.5h-1.24v3.48h-.58v-3.48H206v-.5h.9V119c0-1.36.77-1.47,1.24-1.47a1.25,1.25,0,0,1,.58.1Zm1.22-.31a.52.52,0,0,1,.52.52.51.51,0,0,1-.52.51.5.5,0,0,1-.51-.51A.51.51,0,0,1,210,117.86Zm-.29,2.08h.58v4h-.58Z" transform="translate(-4.36 -4.56)"></path>
  <path d="M211.71,119.94h.59v.87a1.57,1.57,0,0,1,1.53-1,1.48,1.48,0,0,1,1.18.49,1.94,1.94,0,0,1,.35,1.24v2.34h-.59v-2.17c0-.78-.34-1.38-1.14-1.38a1.37,1.37,0,0,0-1.33,1.51v2h-.59Z" transform="translate(-4.36 -4.56)"></path>
  <path d="M220.48,119.94v4h-.59v-.84a1.68,1.68,0,0,1-1.57.94,2.09,2.09,0,0,1,0-4.17,1.68,1.68,0,0,1,1.58.94v-.85Zm-.59,2a1.51,1.51,0,1,0-1.51,1.56A1.5,1.5,0,0,0,219.89,121.93Z" transform="translate(-4.36 -4.56)"></path>
  <path d="M221.85,119.94h.58v.87a1.58,1.58,0,0,1,1.53-1,1.48,1.48,0,0,1,1.18.49,1.94,1.94,0,0,1,.35,1.24v2.34h-.58v-2.17c0-.78-.35-1.38-1.15-1.38a1.37,1.37,0,0,0-1.33,1.51v2h-.58Z" transform="translate(-4.36 -4.56)"></path>
  <path d="M229.72,121.39a1.12,1.12,0,0,0-1.24-1,1.56,1.56,0,0,0,0,3.12,1.14,1.14,0,0,0,1.23-.94h.59a1.71,1.71,0,0,1-1.84,1.47,2.09,2.09,0,0,1,0-4.18,1.67,1.67,0,0,1,1.82,1.55Z" transform="translate(-4.36 -4.56)"></path>
  <path d="M231.76,117.84a.54.54,0,1,1,0,1.07.54.54,0,0,1,0-1.07Zm-.28,2.1h.58v4h-.58Z" transform="translate(-4.36 -4.56)"></path>
  <path d="M237.37,119.94v4h-.58v-.84a1.69,1.69,0,0,1-1.58.94,2.09,2.09,0,0,1,0-4.17,1.69,1.69,0,0,1,1.59.94v-.85Zm-.58,2a1.52,1.52,0,1,0-1.52,1.56A1.5,1.5,0,0,0,236.79,121.93Z" transform="translate(-4.36 -4.56)"></path>
  <path d="M238.75,117.62h.58v6.3h-.58Z" transform="translate(-4.36 -4.56)"></path>
  <path d="M245.83,121.39a1.12,1.12,0,0,0-1.24-1,1.56,1.56,0,0,0,0,3.12,1.14,1.14,0,0,0,1.23-.94h.59a1.71,1.71,0,0,1-1.84,1.47,2.09,2.09,0,0,1,0-4.18,1.67,1.67,0,0,1,1.82,1.55Z" transform="translate(-4.36 -4.56)"></path>
  <path d="M251.31,119.94v4h-.58v-.84a1.68,1.68,0,0,1-1.58.94,2.09,2.09,0,0,1,0-4.17,1.69,1.69,0,0,1,1.59.94v-.85Zm-.58,2a1.52,1.52,0,1,0-1.51,1.56A1.5,1.5,0,0,0,250.73,121.93Z" transform="translate(-4.36 -4.56)"></path>
  <path d="M253.27,120.78a1.69,1.69,0,0,1,1.58-.93,2.09,2.09,0,0,1,0,4.17,1.69,1.69,0,0,1-1.58-1v3.18h-.58v-6.31h.58Zm0,1.14a1.52,1.52,0,1,0,1.52-1.55A1.51,1.51,0,0,0,253.27,121.92Z" transform="translate(-4.36 -4.56)"></path>
  <path d="M258.29,117.84a.54.54,0,1,1-.53.54A.52.52,0,0,1,258.29,117.84Zm-.29,2.1h.58v4H258Z" transform="translate(-4.36 -4.56)"></path>
  <path d="M262.18,123.92a4,4,0,0,1-.68.06c-.51,0-1.2-.11-1.2-1.39v-2.15h-.81v-.5h.81v-1.48h.58v1.48H262v.5h-1.16v2c0,.85.32,1,.73,1a4.48,4.48,0,0,0,.57,0Z" transform="translate(-4.36 -4.56)"></path>
  <path d="M266.73,119.94v4h-.59v-.84a1.68,1.68,0,0,1-1.57.94,2.09,2.09,0,0,1,0-4.17,1.68,1.68,0,0,1,1.58.94v-.85Zm-.59,2a1.51,1.51,0,1,0-1.51,1.56A1.5,1.5,0,0,0,266.14,121.93Z" transform="translate(-4.36 -4.56)"></path>
  <path d="M268.1,117.62h.59v6.3h-.59Z" transform="translate(-4.36 -4.56)"></path>
  <path d="M192.92,284.29h.63v6.3h-.63Z" transform="translate(-4.36 -4.56)"></path>
  <path d="M194.92,286.6h.58v.87a1.58,1.58,0,0,1,1.53-1,1.45,1.45,0,0,1,1.18.5,1.93,1.93,0,0,1,.35,1.24v2.34H198v-2.17c0-.78-.35-1.39-1.15-1.39a1.38,1.38,0,0,0-1.33,1.51v2h-.58Z" transform="translate(-4.36 -4.56)"></path>
  <path d="M199.62,286.6l1.42,3.17,1.43-3.17h.63l-1.86,4h-.41l-1.83-4Z" transform="translate(-4.36 -4.56)"></path>
  <path d="M203.87,288.72a1.33,1.33,0,0,0,1.39,1.46,1.17,1.17,0,0,0,1.19-.74H207a1.7,1.7,0,0,1-1.78,1.25,1.94,1.94,0,0,1-2-2.12,1.89,1.89,0,0,1,1.9-2.06,1.8,1.8,0,0,1,1.9,1.78,2.44,2.44,0,0,1,0,.43Zm0-.45h2.64A1.23,1.23,0,0,0,205.2,287,1.27,1.27,0,0,0,203.88,288.27Z" transform="translate(-4.36 -4.56)"></path>
  <path d="M211,289.52c0,.75-.61,1.17-1.51,1.17s-1.7-.45-1.7-1.45h.57c0,.71.5,1,1.13,1s.95-.22.95-.65-.66-.62-1.31-.77-1.2-.35-1.2-1.13.66-1.14,1.44-1.14,1.57.5,1.57,1.32h-.57c0-.55-.37-.84-1-.84s-.9.22-.9.65.45.58,1.2.72S211,288.73,211,289.52Z" transform="translate(-4.36 -4.56)"></path>
  <path d="M214.21,290.59a4.12,4.12,0,0,1-.68.05c-.51,0-1.2-.11-1.2-1.38V287.1h-.81v-.5h.81v-1.48h.58v1.48h1.16v.5h-1.16v2c0,.84.32,1,.73,1,.19,0,.43,0,.57,0Z" transform="translate(-4.36 -4.56)"></path>
  <path d="M214.56,288.6a2.1,2.1,0,1,1,2.1,2.09A2,2,0,0,1,214.56,288.6Zm3.61,0a1.51,1.51,0,1,0-1.51,1.56A1.5,1.5,0,0,0,218.17,288.6Z" transform="translate(-4.36 -4.56)"></path>
  <path d="M222.15,287.14a1.17,1.17,0,0,0-.35,0c-1,0-1.45.79-1.45,1.72v1.77h-.59v-4h.59v.95a1.49,1.49,0,0,1,1.42-1,.87.87,0,0,1,.38.06Z" transform="translate(-4.36 -4.56)"></path>
  <path d="M225.67,289.52c0,.75-.61,1.17-1.51,1.17s-1.69-.45-1.69-1.45H223c0,.71.5,1,1.13,1s1-.22,1-.65-.66-.62-1.31-.77-1.2-.35-1.2-1.13.66-1.14,1.44-1.14,1.57.5,1.57,1.32H225c0-.55-.37-.84-1-.84s-.9.22-.9.65.45.58,1.2.72S225.67,288.73,225.67,289.52Z" transform="translate(-4.36 -4.56)"></path>
  <path d="M232.75,286.6v4h-.58v-.85a1.69,1.69,0,0,1-1.58.95,2.09,2.09,0,0,1,0-4.18,1.68,1.68,0,0,1,1.59.95v-.86Zm-.58,2a1.52,1.52,0,1,0-1.52,1.56A1.51,1.51,0,0,0,232.17,288.6Z" transform="translate(-4.36 -4.56)"></path>
  <path d="M236.51,287.14a1.17,1.17,0,0,0-.35,0c-1,0-1.45.79-1.45,1.72v1.77h-.58v-4h.58v.95a1.5,1.5,0,0,1,1.43-1,.82.82,0,0,1,.37.06Z" transform="translate(-4.36 -4.56)"></path>
  <path d="M237.44,288.72a1.33,1.33,0,0,0,1.39,1.46,1.17,1.17,0,0,0,1.19-.74h.58a1.7,1.7,0,0,1-1.78,1.25,1.94,1.94,0,0,1-2-2.12,1.89,1.89,0,0,1,1.9-2.06,1.8,1.8,0,0,1,1.9,1.78,2.44,2.44,0,0,1,0,.43Zm0-.45h2.64a1.23,1.23,0,0,0-1.32-1.26A1.27,1.27,0,0,0,237.45,288.27Z" transform="translate(-4.36 -4.56)"></path>
  <path d="M246.29,287.14a1.2,1.2,0,0,0-.35,0c-1,0-1.45.79-1.45,1.72v1.77h-.59v-4h.59v.95a1.49,1.49,0,0,1,1.42-1,.89.89,0,0,1,.38.06Z" transform="translate(-4.36 -4.56)"></path>
  <path d="M247.21,288.72a1.33,1.33,0,0,0,1.39,1.46,1.15,1.15,0,0,0,1.19-.74h.58a1.7,1.7,0,0,1-1.78,1.25,1.94,1.94,0,0,1-2-2.12,1.9,1.9,0,0,1,1.91-2.06,1.79,1.79,0,0,1,1.89,1.78,2.44,2.44,0,0,1,0,.43Zm0-.45h2.64a1.23,1.23,0,0,0-1.31-1.26A1.27,1.27,0,0,0,247.22,288.27Z" transform="translate(-4.36 -4.56)"></path>
  <path d="M253.79,287.25l-1.18,3.34h-.42l-1.54-4h.62l1.13,3.11,1.11-3.11h.57l1.11,3.11,1.12-3.11h.63l-1.54,4H255Z" transform="translate(-4.36 -4.56)"></path>
  <path d="M261.29,286.6v4h-.58v-.85a1.7,1.7,0,0,1-1.58.95,2.09,2.09,0,0,1,0-4.18,1.68,1.68,0,0,1,1.59.95v-.86Zm-.58,2a1.52,1.52,0,1,0-1.52,1.56A1.51,1.51,0,0,0,260.71,288.6Z" transform="translate(-4.36 -4.56)"></path>
  <path d="M265,287.14a1.17,1.17,0,0,0-.35,0c-1,0-1.45.79-1.45,1.72v1.77h-.58v-4h.58v.95a1.5,1.5,0,0,1,1.43-1,.82.82,0,0,1,.37.06Z" transform="translate(-4.36 -4.56)"></path>
  <path d="M269,289.74a1.69,1.69,0,0,1-1.58.95,2.09,2.09,0,0,1,0-4.18,1.68,1.68,0,0,1,1.58.95v-3.17h.58v6.3H269Zm0-1.14a1.52,1.52,0,1,0-1.51,1.56A1.5,1.5,0,0,0,269,288.6Z" transform="translate(-4.36 -4.56)"></path>
  <path d="M271.18,288.72a1.33,1.33,0,0,0,1.39,1.46,1.17,1.17,0,0,0,1.19-.74h.58a1.7,1.7,0,0,1-1.78,1.25,1.94,1.94,0,0,1-2-2.12,1.9,1.9,0,0,1,1.91-2.06,1.79,1.79,0,0,1,1.89,1.78,2.44,2.44,0,0,1,0,.43Zm0-.45h2.64a1.23,1.23,0,0,0-1.32-1.26A1.27,1.27,0,0,0,271.19,288.27Z" transform="translate(-4.36 -4.56)"></path>
  <path d="M278.72,289.74a1.71,1.71,0,0,1-1.58.95,2.09,2.09,0,0,1,0-4.18,1.68,1.68,0,0,1,1.59.95v-3.17h.58v6.3h-.58Zm0-1.14a1.52,1.52,0,1,0-1.52,1.56A1.51,1.51,0,0,0,278.72,288.6Z" transform="translate(-4.36 -4.56)"></path>
  <path d="M143.82,29a1.48,1.48,0,0,0,1.64,1.53c.86,0,1.45-.44,1.45-1.22s-.73-1.08-1.41-1.27c-1.07-.29-2.05-.61-2.05-1.81a1.73,1.73,0,0,1,1.94-1.72,1.82,1.82,0,0,1,2,1.9h-.6a1.26,1.26,0,0,0-1.38-1.35c-.77,0-1.34.4-1.34,1.13s.69,1,1.42,1.22c1,.28,2,.6,2,1.86a1.84,1.84,0,0,1-2.07,1.82A2,2,0,0,1,143.21,29Z" transform="translate(-4.36 -4.56)"></path>
  <path d="M150.68,31A4.21,4.21,0,0,1,150,31c-.51,0-1.2-.11-1.2-1.39V27.49H148V27h.81V25.51h.58V27h1.16v.51h-1.16v2c0,.85.32,1,.73,1a5,5,0,0,0,.58,0Z" transform="translate(-4.36 -4.56)"></path>
  <path d="M155.22,27v4h-.58v-.84a1.69,1.69,0,0,1-1.58.94,2.09,2.09,0,0,1,0-4.18,1.68,1.68,0,0,1,1.59.95V27Zm-.58,2a1.52,1.52,0,1,0-1.52,1.56A1.5,1.5,0,0,0,154.64,29Z" transform="translate(-4.36 -4.56)"></path>
  <path d="M159,27.52a1.63,1.63,0,0,0-.35,0c-1,0-1.45.79-1.45,1.72V31h-.58V27h.58v.95a1.5,1.5,0,0,1,1.42-1A1,1,0,0,1,159,27Z" transform="translate(-4.36 -4.56)"></path>
  <path d="M161.77,31a4,4,0,0,1-.68.06c-.51,0-1.2-.11-1.2-1.39V27.49h-.81V27h.81V25.51h.58V27h1.16v.51h-1.16v2c0,.85.32,1,.73,1a4.63,4.63,0,0,0,.57,0Z" transform="translate(-4.36 -4.56)"></path>
  <path d="M166,27v4h-.58V30.1a1.59,1.59,0,0,1-1.52,1,1.52,1.52,0,0,1-1.2-.5,2,2,0,0,1-.34-1.25V27h.58v2.17c0,.79.34,1.39,1.14,1.39A1.38,1.38,0,0,0,165.41,29V27Z" transform="translate(-4.36 -4.56)"></path>
  <path d="M167.94,27.83a1.68,1.68,0,0,1,1.57-.94,2.09,2.09,0,0,1,0,4.18,1.67,1.67,0,0,1-1.57-.95v3.17h-.59V27h.59Zm0,1.14a1.51,1.51,0,1,0,1.51-1.55A1.5,1.5,0,0,0,167.94,29Z" transform="translate(-4.36 -4.56)"></path>
  <path d="M175.13,24.89a.54.54,0,1,1-.53.54A.52.52,0,0,1,175.13,24.89ZM174.84,27h.59v4h-.59Z" transform="translate(-4.36 -4.56)"></path>
  <path d="M179.75,29.9c0,.76-.61,1.17-1.51,1.17s-1.69-.45-1.69-1.45h.57c0,.71.49,1,1.12,1s1-.22,1-.64c0-.58-.66-.62-1.32-.78s-1.2-.35-1.2-1.12.66-1.15,1.45-1.15a1.38,1.38,0,0,1,1.56,1.33h-.57c0-.55-.36-.85-1-.85s-.9.23-.9.66.45.57,1.21.71S179.75,29.11,179.75,29.9Z" transform="translate(-4.36 -4.56)"></path>
  <path d="M183.59,31H183v-6.3h.59v3.17a1.67,1.67,0,0,1,1.58-.95,2.09,2.09,0,0,1,0,4.18,1.68,1.68,0,0,1-1.57-.94Zm3-2a1.51,1.51,0,1,0-1.51,1.56A1.5,1.5,0,0,0,186.61,29Z" transform="translate(-4.36 -4.56)"></path>
  <path d="M187.85,29a2.1,2.1,0,1,1,2.1,2.09A2,2,0,0,1,187.85,29Zm3.61,0A1.51,1.51,0,1,0,190,30.54,1.5,1.5,0,0,0,191.46,29Z" transform="translate(-4.36 -4.56)"></path>
  <path d="M195.44,27.52a1.63,1.63,0,0,0-.35,0c-1,0-1.45.79-1.45,1.72V31h-.58V27h.58v.95a1.5,1.5,0,0,1,1.42-1,1,1,0,0,1,.38.06Z" transform="translate(-4.36 -4.56)"></path>
  <path d="M196.11,27h.58v.88a1.59,1.59,0,0,1,1.53-1,1.49,1.49,0,0,1,1.18.5,1.94,1.94,0,0,1,.35,1.24V31h-.58V28.8c0-.78-.34-1.38-1.15-1.38a1.38,1.38,0,0,0-1.33,1.51v2h-.58Z" transform="translate(-4.36 -4.56)"></path>
  <path d="M135.83,360.38v2.35h2.83v.55h-2.83v2.3h2.83v.56h-3.44v-6.3h3.44v.54Z" transform="translate(-4.36 -4.56)"></path>
  <path d="M142.93,366.14h-.67l-1.08-1.55-1.07,1.55h-.67l1.4-2-1.38-2h.67l1.05,1.53,1.06-1.53h.67l-1.39,2Z" transform="translate(-4.36 -4.56)"></path>
  <path d="M144.35,363a1.66,1.66,0,0,1,1.58-.94,2.09,2.09,0,0,1,0,4.18,1.68,1.68,0,0,1-1.58-1v3.18h-.58v-6.31h.58Zm0,1.14a1.52,1.52,0,1,0,1.52-1.56A1.51,1.51,0,0,0,144.35,364.14Z" transform="translate(-4.36 -4.56)"></path>
  <path d="M149.24,364.26a1.34,1.34,0,0,0,1.39,1.47,1.15,1.15,0,0,0,1.18-.74h.59a1.7,1.7,0,0,1-1.78,1.25,1.94,1.94,0,0,1-2-2.12,1.9,1.9,0,0,1,1.91-2.06,1.79,1.79,0,0,1,1.89,1.78,3.49,3.49,0,0,1,0,.42Zm0-.44h2.64a1.24,1.24,0,0,0-1.32-1.27A1.27,1.27,0,0,0,149.25,363.82Z" transform="translate(-4.36 -4.56)"></path>
  <path d="M155.91,362.69a1.22,1.22,0,0,0-.35-.05c-1,0-1.45.8-1.45,1.72v1.78h-.59v-4h.59v.94a1.49,1.49,0,0,1,1.42-1,.87.87,0,0,1,.38.06Z" transform="translate(-4.36 -4.56)"></path>
  <path d="M157,360.05a.53.53,0,0,1,.54.54.54.54,0,0,1-1.07,0A.53.53,0,0,1,157,360.05Zm-.29,2.1h.59v4h-.59Z" transform="translate(-4.36 -4.56)"></path>
  <path d="M159,364.26a1.34,1.34,0,0,0,1.38,1.47,1.15,1.15,0,0,0,1.19-.74h.59a1.72,1.72,0,0,1-1.79,1.25,1.94,1.94,0,0,1-2-2.12,1.9,1.9,0,0,1,1.91-2.06,1.79,1.79,0,0,1,1.89,1.78,2.34,2.34,0,0,1,0,.42Zm0-.44h2.63a1.24,1.24,0,0,0-1.31-1.27A1.26,1.26,0,0,0,159,363.82Z" transform="translate(-4.36 -4.56)"></path>
  <path d="M163.28,362.15h.58V363a1.59,1.59,0,0,1,1.54-1,1.46,1.46,0,0,1,1.17.49,1.9,1.9,0,0,1,.36,1.25v2.34h-.59V364c0-.79-.34-1.39-1.14-1.39a1.38,1.38,0,0,0-1.34,1.51v2.05h-.58Z" transform="translate(-4.36 -4.56)"></path>
  <path d="M171.16,363.61a1.13,1.13,0,0,0-1.25-1,1.57,1.57,0,0,0,0,3.13,1.13,1.13,0,0,0,1.23-.94h.59a1.72,1.72,0,0,1-1.84,1.47,2.1,2.1,0,0,1,0-4.19,1.67,1.67,0,0,1,1.82,1.56Z" transform="translate(-4.36 -4.56)"></path>
  <path d="M173.07,364.26a1.34,1.34,0,0,0,1.39,1.47,1.17,1.17,0,0,0,1.19-.74h.58a1.7,1.7,0,0,1-1.78,1.25,1.94,1.94,0,0,1-2-2.12,1.9,1.9,0,0,1,1.91-2.06,1.79,1.79,0,0,1,1.89,1.78,2.34,2.34,0,0,1,0,.42Zm0-.44h2.64a1.24,1.24,0,0,0-1.32-1.27A1.28,1.28,0,0,0,173.08,363.82Z" transform="translate(-4.36 -4.56)"></path>
  <path d="M180.61,365.29a1.71,1.71,0,0,1-1.58.95,2.09,2.09,0,0,1,0-4.18,1.69,1.69,0,0,1,1.59.94v-3.16h.58v6.3h-.58Zm0-1.14a1.52,1.52,0,1,0-1.52,1.56A1.51,1.51,0,0,0,180.61,364.15Z" transform="translate(-4.36 -4.56)"></path>
  <path d="M186.86,366.14a5.62,5.62,0,0,1-.68.05c-.52,0-1.2-.11-1.2-1.38v-2.16h-.81v-.5H185v-1.48h.57v1.48h1.17v.5h-1.17v2c0,.84.33,1,.73,1a4.65,4.65,0,0,0,.58-.05Z" transform="translate(-4.36 -4.56)"></path>
  <path d="M191.41,362.15v4h-.59v-.85a1.68,1.68,0,0,1-1.57.95,2.09,2.09,0,0,1,0-4.18,1.68,1.68,0,0,1,1.58.94v-.85Zm-.59,2a1.51,1.51,0,1,0-1.51,1.56A1.5,1.5,0,0,0,190.82,364.15Z" transform="translate(-4.36 -4.56)"></path>
  <path d="M192.78,359.84h.59v6.3h-.59Z" transform="translate(-4.36 -4.56)"></path>
  <path d="M195,364.26a1.33,1.33,0,0,0,1.38,1.47,1.15,1.15,0,0,0,1.19-.74h.58a1.7,1.7,0,0,1-1.78,1.25,1.94,1.94,0,0,1-2-2.12,1.9,1.9,0,0,1,1.91-2.06,1.79,1.79,0,0,1,1.89,1.78,2.34,2.34,0,0,1,0,.42Zm0-.44h2.64a1.24,1.24,0,0,0-1.31-1.27A1.28,1.28,0,0,0,195,363.82Z" transform="translate(-4.36 -4.56)"></path>
  <path d="M199.29,362.15h.58V363a1.58,1.58,0,0,1,1.53-1,1.48,1.48,0,0,1,1.18.49,1.9,1.9,0,0,1,.35,1.25v2.34h-.58V364c0-.79-.34-1.39-1.14-1.39a1.38,1.38,0,0,0-1.34,1.51v2.05h-.58Z" transform="translate(-4.36 -4.56)"></path>
  <path d="M206.34,366.14a5.62,5.62,0,0,1-.68.05c-.51,0-1.2-.11-1.2-1.38v-2.16h-.81v-.5h.81v-1.48H205v1.48h1.16v.5H205v2c0,.84.32,1,.73,1a4.48,4.48,0,0,0,.57-.05Z" transform="translate(-4.36 -4.56)"></path>
  <path d="M121.86,377.14h-.59v-6.31h.59V374a1.68,1.68,0,0,1,1.58-.94,2.09,2.09,0,0,1,0,4.17,1.68,1.68,0,0,1-1.57-.94Zm3-2a1.51,1.51,0,1,0-1.51,1.55A1.5,1.5,0,0,0,124.88,375.15Z" transform="translate(-4.36 -4.56)"></path>
  <path d="M126.74,375.26a1.34,1.34,0,0,0,1.39,1.47,1.15,1.15,0,0,0,1.19-.74h.58a1.69,1.69,0,0,1-1.78,1.24,1.93,1.93,0,0,1-2-2.11,1.9,1.9,0,0,1,1.91-2.06,1.79,1.79,0,0,1,1.89,1.78,2.34,2.34,0,0,1,0,.42Zm0-.45h2.64a1.24,1.24,0,0,0-1.31-1.26A1.28,1.28,0,0,0,126.75,374.81Z" transform="translate(-4.36 -4.56)"></path>
  <path d="M134,374.61a1.11,1.11,0,0,0-1.24-1,1.56,1.56,0,0,0,0,3.12,1.14,1.14,0,0,0,1.23-.93h.59a1.71,1.71,0,0,1-1.84,1.46,2.09,2.09,0,0,1,0-4.18,1.67,1.67,0,0,1,1.82,1.56Z" transform="translate(-4.36 -4.56)"></path>
  <path d="M135.27,375.15a2.1,2.1,0,1,1,2.09,2.08A2,2,0,0,1,135.27,375.15Zm3.61,0a1.52,1.52,0,1,0-1.52,1.55A1.51,1.51,0,0,0,138.88,375.15Z" transform="translate(-4.36 -4.56)"></path>
  <path d="M145.77,377.14v-2.35c0-.85-.39-1.21-.94-1.21-.72,0-1.13.61-1.13,1.53v2h-.57v-2.25c0-1-.42-1.31-.94-1.31-.72,0-1.14.62-1.14,1.53v2h-.58v-4h.58V374a1.29,1.29,0,0,1,1.3-1,1.18,1.18,0,0,1,1.25,1,1.39,1.39,0,0,1,1.39-1c.85,0,1.36.55,1.36,1.56v2.52Z" transform="translate(-4.36 -4.56)"></path>
  <path d="M147.92,375.26a1.34,1.34,0,0,0,1.39,1.47,1.17,1.17,0,0,0,1.19-.74h.58a1.69,1.69,0,0,1-1.78,1.24,1.93,1.93,0,0,1-2-2.11,1.9,1.9,0,0,1,1.91-2.06,1.79,1.79,0,0,1,1.89,1.78,2.34,2.34,0,0,1,0,.42Zm0-.45h2.64a1.24,1.24,0,0,0-1.32-1.26A1.27,1.27,0,0,0,147.93,374.81Z" transform="translate(-4.36 -4.56)"></path>
  <path d="M155.06,376.06c0,.76-.61,1.17-1.51,1.17s-1.7-.45-1.7-1.45h.57c0,.72.5,1,1.13,1s.95-.23.95-.65c0-.58-.66-.62-1.31-.77S152,375,152,374.2s.66-1.14,1.44-1.14,1.57.5,1.57,1.32h-.57c0-.55-.37-.85-1-.85s-.9.23-.9.66.45.58,1.2.71S155.06,375.27,155.06,376.06Z" transform="translate(-4.36 -4.56)"></path>
  <path d="M160.49,371.38a1.28,1.28,0,0,0-.47-.08c-.36,0-.77.08-.77.9v.95h1.24v.5h-1.24v3.49h-.58v-3.49h-.9v-.5h.9v-.89c0-1.36.77-1.48,1.24-1.48a1.25,1.25,0,0,1,.58.1Z" transform="translate(-4.36 -4.56)"></path>
  <path d="M160.66,375.15a2.1,2.1,0,1,1,2.1,2.08A2,2,0,0,1,160.66,375.15Zm3.61,0a1.51,1.51,0,1,0-1.51,1.55A1.5,1.5,0,0,0,164.27,375.15Z" transform="translate(-4.36 -4.56)"></path>
  <path d="M169.41,373.15v4h-.57v-.88a1.59,1.59,0,0,1-1.52,1,1.52,1.52,0,0,1-1.2-.5,1.87,1.87,0,0,1-.34-1.24v-2.34h.57v2.17c0,.78.35,1.38,1.15,1.38a1.38,1.38,0,0,0,1.34-1.51v-2Z" transform="translate(-4.36 -4.56)"></path>
  <path d="M170.78,373.15h.59V374a1.57,1.57,0,0,1,1.53-1,1.49,1.49,0,0,1,1.18.49,1.94,1.94,0,0,1,.35,1.24v2.35h-.59V375c0-.79-.34-1.39-1.14-1.39a1.37,1.37,0,0,0-1.33,1.51v2.05h-.59Z" transform="translate(-4.36 -4.56)"></path>
  <path d="M179,376.29a1.68,1.68,0,0,1-1.57.94,2.09,2.09,0,0,1,0-4.17A1.68,1.68,0,0,1,179,374v-3.17h.59v6.31H179Zm0-1.14a1.51,1.51,0,1,0-1.51,1.55A1.5,1.5,0,0,0,179,375.15Z" transform="translate(-4.36 -4.56)"></path>
  <path d="M181.19,375.26a1.33,1.33,0,0,0,1.38,1.47,1.15,1.15,0,0,0,1.19-.74h.58a1.69,1.69,0,0,1-1.78,1.24,1.93,1.93,0,0,1-2-2.11,1.9,1.9,0,0,1,1.91-2.06,1.79,1.79,0,0,1,1.89,1.78,2.34,2.34,0,0,1,0,.42Zm0-.45h2.64a1.24,1.24,0,0,0-1.31-1.26A1.28,1.28,0,0,0,181.19,374.81Z" transform="translate(-4.36 -4.56)"></path>
  <path d="M187.85,373.69a1.22,1.22,0,0,0-.35-.05c-1,0-1.45.79-1.45,1.72v1.78h-.58v-4h.58v.94a1.5,1.5,0,0,1,1.43-1,.82.82,0,0,1,.37.07Z" transform="translate(-4.36 -4.56)"></path>
  <path d="M188.16,376.11c.36,0,.69.28.69.94a1,1,0,0,1-1.19,1.13v-.32a.61.61,0,0,0,.64-.37.87.87,0,0,0,0-.39.34.34,0,0,1-.23.08.52.52,0,0,1-.53-.53A.54.54,0,0,1,188.16,376.11Z" transform="translate(-4.36 -4.56)"></path>
  <path d="M197.45,377.14v-2.35c0-.85-.4-1.21-.95-1.21-.72,0-1.12.61-1.12,1.53v2h-.58v-2.25c0-1-.41-1.31-.93-1.31-.72,0-1.14.62-1.14,1.53v2h-.58v-4h.58V374a1.29,1.29,0,0,1,1.3-1,1.18,1.18,0,0,1,1.25,1,1.38,1.38,0,0,1,1.39-1c.84,0,1.36.55,1.36,1.56v2.52Z" transform="translate(-4.36 -4.56)"></path>
  <path d="M199.6,375.26a1.34,1.34,0,0,0,1.39,1.47,1.15,1.15,0,0,0,1.18-.74h.59a1.7,1.7,0,0,1-1.78,1.24,1.94,1.94,0,0,1-2-2.11,1.9,1.9,0,0,1,1.91-2.06,1.79,1.79,0,0,1,1.89,1.78,3.49,3.49,0,0,1,0,.42Zm0-.45h2.64a1.24,1.24,0,0,0-1.32-1.26A1.26,1.26,0,0,0,199.61,374.81Z" transform="translate(-4.36 -4.56)"></path>
  <path d="M203.88,373.15h.59V374a1.57,1.57,0,0,1,1.53-1,1.48,1.48,0,0,1,1.18.49,1.94,1.94,0,0,1,.35,1.24v2.35h-.59V375c0-.79-.34-1.39-1.14-1.39a1.37,1.37,0,0,0-1.33,1.51v2.05h-.59Z" transform="translate(-4.36 -4.56)"></path>
  <path d="M210.94,377.14a5.62,5.62,0,0,1-.68.05c-.52,0-1.2-.11-1.2-1.39v-2.15h-.81v-.5h.81v-1.48h.57v1.48h1.17v.5h-1.17v2c0,.84.33,1,.73,1a4.65,4.65,0,0,0,.58-.05Z" transform="translate(-4.36 -4.56)"></path>
  <path d="M211.29,375.15a2.1,2.1,0,1,1,2.1,2.08A2,2,0,0,1,211.29,375.15Zm3.61,0a1.51,1.51,0,1,0-1.51,1.55A1.5,1.5,0,0,0,214.9,375.15Z" transform="translate(-4.36 -4.56)"></path>
  <path d="M218.89,373.69a1.32,1.32,0,0,0-.35-.05c-1,0-1.45.79-1.45,1.72v1.78h-.59v-4h.59v.94a1.48,1.48,0,0,1,1.42-1,.89.89,0,0,1,.38.07Z" transform="translate(-4.36 -4.56)"></path>
  <path d="M219.19,376.11c.36,0,.69.28.69.94a1,1,0,0,1-1.19,1.13v-.32a.6.6,0,0,0,.64-.37.87.87,0,0,0,0-.39.3.3,0,0,1-.23.08.52.52,0,0,1-.53-.53A.54.54,0,0,1,219.19,376.11Z" transform="translate(-4.36 -4.56)"></path>
  <path d="M149.08,384.15v4h-.58v-.84a1.68,1.68,0,0,1-1.58.94,2.09,2.09,0,0,1,0-4.17,1.69,1.69,0,0,1,1.59.94v-.85Zm-.58,2A1.52,1.52,0,1,0,147,387.7,1.5,1.5,0,0,0,148.5,386.14Z" transform="translate(-4.36 -4.56)"></path>
  <path d="M150.46,384.15H151V385a1.59,1.59,0,0,1,1.54-1,1.47,1.47,0,0,1,1.17.49,1.89,1.89,0,0,1,.36,1.24v2.34h-.59V386c0-.78-.34-1.38-1.14-1.38a1.38,1.38,0,0,0-1.34,1.51v2h-.58Z" transform="translate(-4.36 -4.56)"></path>
  <path d="M159.23,388.45a1.86,1.86,0,0,1-2.07,2.1,1.82,1.82,0,0,1-2.07-1.84h.58a1.29,1.29,0,0,0,1.47,1.31c.92,0,1.5-.45,1.5-1.57v-1.17a1.67,1.67,0,0,1-1.57,1,2.09,2.09,0,0,1,0-4.17,1.67,1.67,0,0,1,1.57.93v-.84h.59Zm-3.61-2.32a1.51,1.51,0,1,0,1.51-1.55A1.5,1.5,0,0,0,155.62,386.13Z" transform="translate(-4.36 -4.56)"></path>
  <path d="M160.84,386.26a1.34,1.34,0,0,0,1.38,1.47,1.15,1.15,0,0,0,1.19-.74H164a1.71,1.71,0,0,1-1.79,1.24,1.94,1.94,0,0,1-2-2.11,1.9,1.9,0,0,1,1.91-2.06,1.79,1.79,0,0,1,1.89,1.78,2.34,2.34,0,0,1,0,.42Zm0-.45h2.63a1.23,1.23,0,0,0-1.31-1.26A1.26,1.26,0,0,0,160.85,385.81Z" transform="translate(-4.36 -4.56)"></path>
  <path d="M165.12,381.83h.59v6.3h-.59Z" transform="translate(-4.36 -4.56)"></path>
  <path d="M169.64,382.05a.54.54,0,1,1-.53.54A.52.52,0,0,1,169.64,382.05Zm-.29,2.1h.59v4h-.59Z" transform="translate(-4.36 -4.56)"></path>
  <path d="M171.41,384.15H172V385a1.57,1.57,0,0,1,1.53-1,1.49,1.49,0,0,1,1.18.49,1.94,1.94,0,0,1,.35,1.24v2.34h-.59V386c0-.78-.34-1.38-1.14-1.38a1.37,1.37,0,0,0-1.33,1.51v2h-.59Z" transform="translate(-4.36 -4.56)"></path>
  <path d="M176.12,384.15l1.41,3.16,1.43-3.16h.63l-1.85,4h-.42l-1.82-4Z" transform="translate(-4.36 -4.56)"></path>
  <path d="M180.37,386.26a1.34,1.34,0,0,0,1.38,1.47,1.15,1.15,0,0,0,1.19-.74h.59a1.71,1.71,0,0,1-1.79,1.24,1.94,1.94,0,0,1-2-2.11,1.9,1.9,0,0,1,1.91-2.06,1.79,1.79,0,0,1,1.89,1.78,2.34,2.34,0,0,1,0,.42Zm0-.45H183a1.23,1.23,0,0,0-1.31-1.26A1.26,1.26,0,0,0,180.38,385.81Z" transform="translate(-4.36 -4.56)"></path>
  <path d="M187.5,387.06c0,.76-.61,1.17-1.51,1.17s-1.69-.45-1.69-1.45h.57c0,.71.49,1,1.12,1s1-.23,1-.65c0-.58-.66-.62-1.32-.78s-1.2-.35-1.2-1.12.66-1.14,1.44-1.14,1.57.5,1.57,1.32h-.57c0-.55-.37-.85-1-.85s-.9.23-.9.66.45.58,1.21.71S187.5,386.27,187.5,387.06Z" transform="translate(-4.36 -4.56)"></path>
  <path d="M190.71,388.13a4.21,4.21,0,0,1-.69.06c-.51,0-1.19-.11-1.19-1.39v-2.15H188v-.5h.82v-1.48h.57v1.48h1.16v.5H189.4v2c0,.85.33,1,.73,1a4.83,4.83,0,0,0,.58-.05Z" transform="translate(-4.36 -4.56)"></path>
  <path d="M191.06,386.14a2.1,2.1,0,1,1,2.09,2.09A2,2,0,0,1,191.06,386.14Zm3.61,0a1.52,1.52,0,1,0-1.52,1.56A1.5,1.5,0,0,0,194.67,386.14Z" transform="translate(-4.36 -4.56)"></path>
  <path d="M198.65,384.69a1.22,1.22,0,0,0-.35-.05c-1,0-1.45.79-1.45,1.72v1.77h-.58v-4h.58v.94a1.5,1.5,0,0,1,1.43-1,1,1,0,0,1,.37.06Z" transform="translate(-4.36 -4.56)"></path>
  <path d="M32.06,229.91h1.57a1.51,1.51,0,1,1,0,3H32.51v1.54h-.45Zm2.65,1.51a1.06,1.06,0,0,0-1.08-1.11H32.51v2.21h1.12A1.06,1.06,0,0,0,34.71,231.42Z" transform="translate(-4.36 -4.56)" fill="#2f40ca"></path>
  <path d="M36,229.91h1.57a1.47,1.47,0,0,1,1.52,1.51A1.45,1.45,0,0,1,38,232.85l1,1.61h-.5l-1-1.54H36.45v1.54H36Zm2.65,1.51a1.06,1.06,0,0,0-1.08-1.11H36.45v2.21h1.13A1.06,1.06,0,0,0,38.66,231.42Z" transform="translate(-4.36 -4.56)" fill="#2f40ca"></path>
  <path d="M39.74,232.18a2.34,2.34,0,1,1,2.34,2.38A2.31,2.31,0,0,1,39.74,232.18Zm4.23,0a1.89,1.89,0,1,0-1.89,2A1.89,1.89,0,0,0,44,232.18Z" transform="translate(-4.36 -4.56)" fill="#2f40ca"></path>
  <path d="M46.68,229.91a2.28,2.28,0,1,1,0,4.55H45.35v-4.55Zm-.89.4v3.75h.89a1.88,1.88,0,1,0,0-3.75Z" transform="translate(-4.36 -4.56)" fill="#2f40ca"></path>
  <path d="M49.84,229.91h.44V233a1.1,1.1,0,1,0,2.19,0v-3.12h.44V233a1.54,1.54,0,0,1-3.07,0Z" transform="translate(-4.36 -4.56)" fill="#2f40ca"></path>
  <path d="M58.21,233.12a2.11,2.11,0,0,1-2.12,1.44,2.3,2.3,0,0,1-2.36-2.38,2.28,2.28,0,0,1,2.35-2.37,2,2,0,0,1,2.13,1.63h-.45a1.6,1.6,0,0,0-1.67-1.23,1.87,1.87,0,0,0-1.91,2,1.9,1.9,0,0,0,1.93,2,1.64,1.64,0,0,0,1.62-1Z" transform="translate(-4.36 -4.56)" fill="#2f40ca"></path>
  <path d="M59.94,230.31H58.72v-.4h2.89v.4H60.38v4.15h-.44Z" transform="translate(-4.36 -4.56)" fill="#2f40ca"></path>
  <path d="M62.37,229.91h.46v4.55h-.46Z" transform="translate(-4.36 -4.56)" fill="#2f40ca"></path>
  <path d="M65.46,234.46h-.34l-1.61-4.55H64l1.32,3.84,1.32-3.84h.46Z" transform="translate(-4.36 -4.56)" fill="#2f40ca"></path>
  <path d="M67.78,229.91h.45v4.55h-.45Z" transform="translate(-4.36 -4.56)" fill="#2f40ca"></path>
  <path d="M70.19,230.31H69v-.4h2.89v.4H70.63v4.15h-.44Z" transform="translate(-4.36 -4.56)" fill="#2f40ca"></path>
  <path d="M73.57,234.46h-.48l.92-1.8-1.74-2.75h.51l1.45,2.29,1.18-2.29h.48Z" transform="translate(-4.36 -4.56)" fill="#2f40ca"></path>
  <path d="M42.38,240H44.6v.41h-.48a2,2,0,0,1-2.11,1.8,2.27,2.27,0,0,1-2.36-2.35,2.3,2.3,0,0,1,2.31-2.4,1.81,1.81,0,0,1,1.89,1.28H43.4a1.41,1.41,0,0,0-1.43-.88,1.89,1.89,0,0,0-1.88,2,1.87,1.87,0,0,0,1.93,2,1.52,1.52,0,0,0,1.64-1.4H42.38Z" transform="translate(-4.36 -4.56)" fill="#2f40ca"></path>
  <path d="M45.44,237.52H47a1.51,1.51,0,0,1,.45,2.95l1,1.6H48l-1-1.54H45.88v1.54h-.44ZM48.08,239A1.06,1.06,0,0,0,47,237.92H45.88v2.21H47A1.05,1.05,0,0,0,48.08,239Z" transform="translate(-4.36 -4.56)" fill="#2f40ca"></path>
  <path d="M49.16,239.8a2.34,2.34,0,1,1,2.34,2.37A2.31,2.31,0,0,1,49.16,239.8Zm4.23,0a1.89,1.89,0,1,0-1.89,2A1.9,1.9,0,0,0,53.39,239.8Z" transform="translate(-4.36 -4.56)" fill="#2f40ca"></path>
  <path d="M57.2,238.27,56,242.07H55.7l-1.54-4.55h.46l1.24,3.81L57,237.52h.35l1.15,3.81,1.24-3.81h.47l-1.54,4.55h-.34Z" transform="translate(-4.36 -4.56)" fill="#2f40ca"></path>
  <path d="M61.88,237.92H60.65v-.4h2.9v.4H62.31v4.15h-.43Z" transform="translate(-4.36 -4.56)" fill="#2f40ca"></path>
  <path d="M67.07,240H64.72v2.06h-.44v-4.55h.44v2.09h2.35v-2.09h.44v4.55h-.44Z" transform="translate(-4.36 -4.56)" fill="#2f40ca"></path>
  <path d="M269.47,229.91h.44V233a1.1,1.1,0,1,0,2.19,0v-3.12h.44V233a1.54,1.54,0,0,1-3.07,0Z" transform="translate(-4.36 -4.56)" fill="#2f40ca"></path>
  <path d="M273.63,229.91h1.57a1.51,1.51,0,1,1,0,3h-1.13v1.54h-.44Zm2.65,1.51a1.06,1.06,0,0,0-1.08-1.11h-1.13v2.21h1.13A1.06,1.06,0,0,0,276.28,231.42Z" transform="translate(-4.36 -4.56)" fill="#2f40ca"></path>
  <path d="M277.8,233.05a1.06,1.06,0,0,0,1.18,1.1c.62,0,1-.31,1-.87s-.53-.78-1-.92c-.77-.21-1.48-.44-1.48-1.31a1.25,1.25,0,0,1,1.4-1.24,1.32,1.32,0,0,1,1.44,1.37h-.44a.91.91,0,0,0-1-1c-.55,0-1,.28-1,.81s.49.74,1,.88c.71.21,1.47.43,1.47,1.34a1.33,1.33,0,0,1-1.49,1.32,1.48,1.48,0,0,1-1.61-1.51Z" transform="translate(-4.36 -4.56)" fill="#2f40ca"></path>
  <path d="M281.85,232.32v2.14h-.45v-4.55h.45v2.14l2.12-2.14h.57l-2.24,2.27,2.24,2.28H284Z" transform="translate(-4.36 -4.56)" fill="#2f40ca"></path>
  <path d="M285.29,229.91h.46v4.55h-.46Z" transform="translate(-4.36 -4.56)" fill="#2f40ca"></path>
  <path d="M289,234.06v.4h-2v-4.55h.44v4.15Z" transform="translate(-4.36 -4.56)" fill="#2f40ca"></path>
  <path d="M291.77,234.06v.4h-2v-4.55h.45v4.15Z" transform="translate(-4.36 -4.56)" fill="#2f40ca"></path>
  <path d="M292.61,229.91h.46v4.55h-.46Z" transform="translate(-4.36 -4.56)" fill="#2f40ca"></path>
  <path d="M297,233.7v-3.79h.44v4.55H297l-2.29-3.8v3.8h-.45v-4.55h.49Z" transform="translate(-4.36 -4.56)" fill="#2f40ca"></path>
  <path d="M301.14,232.35h2.23v.41h-.48a2,2,0,0,1-2.12,1.8,2.28,2.28,0,0,1-2.36-2.36,2.3,2.3,0,0,1,2.32-2.39,1.81,1.81,0,0,1,1.89,1.28h-.45a1.41,1.41,0,0,0-1.43-.88,1.89,1.89,0,0,0-1.88,2,1.86,1.86,0,0,0,1.93,2,1.52,1.52,0,0,0,1.64-1.39h-1.29Z" transform="translate(-4.36 -4.56)" fill="#2f40ca"></path>
  <path d="M268.82,238.27l-1.15,3.8h-.34l-1.54-4.55h.46l1.24,3.81,1.16-3.81H269l1.16,3.81,1.24-3.81h.46l-1.54,4.55H270Z" transform="translate(-4.36 -4.56)" fill="#2f40ca"></path>
  <path d="M272.18,239.8a2.34,2.34,0,1,1,2.34,2.37A2.31,2.31,0,0,1,272.18,239.8Zm4.22,0a1.88,1.88,0,1,0-1.88,2A1.89,1.89,0,0,0,276.4,239.8Z" transform="translate(-4.36 -4.56)" fill="#2f40ca"></path>
  <path d="M277.81,237.52h1.56a1.51,1.51,0,0,1,.46,2.95l1,1.6h-.51l-1-1.54h-1.12v1.54h-.44Zm2.64,1.51a1.06,1.06,0,0,0-1.08-1.11h-1.12v2.21h1.12A1.06,1.06,0,0,0,280.45,239Z" transform="translate(-4.36 -4.56)" fill="#2f40ca"></path>
  <path d="M282.29,239.93v2.14h-.44v-4.55h.44v2.14l2.13-2.14H285l-2.24,2.28,2.24,2.27h-.56Z" transform="translate(-4.36 -4.56)" fill="#2f40ca"></path>
  <path d="M286.15,237.92v1.8h2v.4h-2v1.95h-.44v-4.55h2.48v.4Z" transform="translate(-4.36 -4.56)" fill="#2f40ca"></path>
  <path d="M289,239.8a2.34,2.34,0,1,1,2.34,2.37A2.31,2.31,0,0,1,289,239.8Zm4.22,0a1.88,1.88,0,1,0-1.88,2A1.89,1.89,0,0,0,293.25,239.8Z" transform="translate(-4.36 -4.56)" fill="#2f40ca"></path>
  <path d="M294.66,237.52h1.56a1.51,1.51,0,0,1,.46,2.95l1,1.6h-.51l-1-1.54H295.1v1.54h-.44ZM297.3,239a1.06,1.06,0,0,0-1.08-1.11H295.1v2.21h1.12A1.06,1.06,0,0,0,297.3,239Z" transform="translate(-4.36 -4.56)" fill="#2f40ca"></path>
  <path d="M302.88,240.73a2.13,2.13,0,0,1-2.13,1.44,2.38,2.38,0,0,1,0-4.75,2,2,0,0,1,2.14,1.63h-.46a1.61,1.61,0,0,0-1.67-1.23,1.88,1.88,0,0,0-1.91,2,1.91,1.91,0,0,0,1.93,2,1.66,1.66,0,0,0,1.63-1Z" transform="translate(-4.36 -4.56)" fill="#2f40ca"></path>
  <path d="M304.25,237.92v1.69h2v.4h-2v1.66h2v.4h-2.48v-4.55h2.48v.4Z" transform="translate(-4.36 -4.56)" fill="#2f40ca"></path>
  <path d="M270.55,168.92H271v4.56h-.45Z" transform="translate(-4.36 -4.56)" fill="#2f40ca"></path>
  <path d="M275,172.71v-3.79h.44v4.56h-.48l-2.3-3.8v3.8h-.44v-4.56h.49Z" transform="translate(-4.36 -4.56)" fill="#2f40ca"></path>
  <path d="M279.4,172.71v-3.79h.44v4.56h-.48l-2.3-3.8v3.8h-.44v-4.56h.49Z" transform="translate(-4.36 -4.56)" fill="#2f40ca"></path>
  <path d="M280.77,171.2a2.34,2.34,0,1,1,2.34,2.37A2.3,2.3,0,0,1,280.77,171.2Zm4.23,0a1.89,1.89,0,1,0-1.89,2A1.9,1.9,0,0,0,285,171.2Z" transform="translate(-4.36 -4.56)" fill="#2f40ca"></path>
  <path d="M287.63,173.48h-.33l-1.61-4.56h.46l1.32,3.85,1.31-3.85h.46Z" transform="translate(-4.36 -4.56)" fill="#2f40ca"></path>
  <path d="M292,173.48l-.28-.82h-2l-.27.82H289l1.57-4.56h.33l1.56,4.56Zm-1.27-3.86-.86,2.64h1.72Z" transform="translate(-4.36 -4.56)" fill="#2f40ca"></path>
  <path d="M293.5,169.32h-1.23v-.4h2.9v.4h-1.24v4.16h-.43Z" transform="translate(-4.36 -4.56)" fill="#2f40ca"></path>
  <path d="M295.93,168.92h.45v4.56h-.45Z" transform="translate(-4.36 -4.56)" fill="#2f40ca"></path>
  <path d="M297.32,171.2a2.34,2.34,0,1,1,2.34,2.37A2.3,2.3,0,0,1,297.32,171.2Zm4.23,0a1.89,1.89,0,1,0-1.89,2A1.9,1.9,0,0,0,301.55,171.2Z" transform="translate(-4.36 -4.56)" fill="#2f40ca"></path>
  <path d="M305.69,172.71v-3.79h.44v4.56h-.48l-2.3-3.8v3.8h-.44v-4.56h.49Z" transform="translate(-4.36 -4.56)" fill="#2f40ca"></path>
  <polyline points="291.85 110.31 334.24 110.31 334.24 283.44 291.48 283.44" fill="none" stroke="#000" stroke-miterlimit="10" stroke-width="0.5"></polyline>
  <polyline points="295.32 113.53 291.85 110.31 295.32 107.09" fill="none" stroke="#000" stroke-miterlimit="10" stroke-width="0.5"></polyline>
  <polyline points="107.15 23.78 0.25 23.78 0.25 369.99 107.51 369.99" fill="none" stroke="#000" stroke-miterlimit="10" stroke-width="0.5"></polyline>
  <polyline points="103.68 27 107.15 23.78 103.68 20.55" fill="none" stroke="#000" stroke-miterlimit="10" stroke-width="0.5"></polyline>
  <line x1="199.61" y1="48.13" x2="199.61" y2="86.17" fill="none" stroke="#000" stroke-miterlimit="10" stroke-width="0.5"></line>
  <polyline points="196.39 82.7 199.62 86.17 202.84 82.7" fill="none" stroke="#000" stroke-miterlimit="10" stroke-width="0.5"></polyline>
  <line x1="199.61" y1="134.67" x2="199.61" y2="172.71" fill="none" stroke="#000" stroke-miterlimit="10" stroke-width="0.5"></line>
  <polyline points="196.39 169.24 199.62 172.71 202.84 169.24" fill="none" stroke="#000" stroke-miterlimit="10" stroke-width="0.5"></polyline>
  <line x1="199.61" y1="221.21" x2="199.61" y2="259.25" fill="none" stroke="#000" stroke-miterlimit="10" stroke-width="0.5"></line>
  <polyline points="196.39 255.78 199.62 259.25 202.84 255.78" fill="none" stroke="#000" stroke-miterlimit="10" stroke-width="0.5"></polyline>
  <line x1="134.87" y1="48.13" x2="134.87" y2="86.17" fill="none" stroke="#000" stroke-miterlimit="10" stroke-width="0.5"></line>
  <polyline points="131.65 82.7 134.88 86.17 138.1 82.7" fill="none" stroke="#000" stroke-miterlimit="10" stroke-width="0.5"></polyline>
  <line x1="134.87" y1="134.67" x2="134.87" y2="172.71" fill="none" stroke="#000" stroke-miterlimit="10" stroke-width="0.5"></line>
  <polyline points="131.65 169.24 134.88 172.71 138.1 169.24" fill="none" stroke="#000" stroke-miterlimit="10" stroke-width="0.5"></polyline>
  <line x1="119.96" y1="193.79" x2="58.87" y2="176.88" fill="#2f40ca" stroke="#2f40ca" stroke-miterlimit="10" stroke-width="0.75"></line>
  <polyline points="63.39 174.53 58.87 176.88 61.54 181.22" fill="#2f40ca" stroke="#2f40ca" stroke-miterlimit="10" stroke-width="0.75"></polyline>
  <line x1="119.96" y1="200.51" x2="58.87" y2="217.41" fill="#2f40ca" stroke="#2f40ca" stroke-miterlimit="10" stroke-width="0.75"></line>
  <polyline points="63.39 219.77 58.87 217.41 61.54 213.07" fill="#2f40ca" stroke="#2f40ca" stroke-miterlimit="10" stroke-width="0.75"></polyline>
  <line x1="214.53" y1="193.79" x2="275.62" y2="176.88" fill="#2f40ca" stroke="#2f40ca" stroke-miterlimit="10" stroke-width="0.75"></line>
  <polyline points="271.1 174.53 275.62 176.88 272.95 181.22" fill="#2f40ca" stroke="#2f40ca" stroke-miterlimit="10" stroke-width="0.75"></polyline>
  <line x1="214.53" y1="200.51" x2="275.62" y2="217.41" fill="#2f40ca" stroke="#2f40ca" stroke-miterlimit="10" stroke-width="0.75"></line>
  <polyline points="271.1 219.77 275.62 217.41 272.95 213.07" fill="#2f40ca" stroke="#2f40ca" stroke-miterlimit="10" stroke-width="0.75"></polyline>
  <line x1="134.87" y1="221.21" x2="134.87" y2="259.25" fill="none" stroke="#000" stroke-miterlimit="10" stroke-width="0.5"></line>
  <polyline points="131.65 255.78 134.88 259.25 138.1 255.78" fill="none" stroke="#000" stroke-miterlimit="10" stroke-width="0.5"></polyline>
  <line x1="134.87" y1="307.75" x2="134.87" y2="345.79" fill="none" stroke="#000" stroke-miterlimit="10" stroke-width="0.5"></line>
  <polyline points="131.65 342.32 134.88 345.79 138.1 342.32" fill="none" stroke="#000" stroke-miterlimit="10" stroke-width="0.5"></polyline>
  <path d="M35,172.07a1.38,1.38,0,0,1-1.42,1.5,1.43,1.43,0,0,1-1.48-1.51h.44a1,1,0,0,0,1,1.11,1,1,0,0,0,1-1.1v-3.15H35Z" transform="translate(-4.36 -4.56)" fill="#2f40ca"></path>
  <path d="M35.86,171.2a2.34,2.34,0,1,1,2.34,2.37A2.3,2.3,0,0,1,35.86,171.2Zm4.23,0a1.89,1.89,0,1,0-1.89,2A1.9,1.9,0,0,0,40.09,171.2Z" transform="translate(-4.36 -4.56)" fill="#2f40ca"></path>
  <path d="M41.47,168.92H43a1.2,1.2,0,0,1,1.31,1.23,1,1,0,0,1-.78,1,1,1,0,0,1,.81,1A1.23,1.23,0,0,1,43,173.48H41.47ZM43,171a.84.84,0,1,0,0-1.67H41.91V171Zm-1.13.39v1.69H43a.83.83,0,0,0,.88-.84.85.85,0,0,0-.86-.85Z" transform="translate(-4.36 -4.56)" fill="#2f40ca"></path>
  <path d="M51,172.14a2.13,2.13,0,0,1-2.13,1.43,2.3,2.3,0,0,1-2.35-2.38,2.27,2.27,0,0,1,2.34-2.36A2,2,0,0,1,51,170.45h-.45a1.63,1.63,0,0,0-1.68-1.23,1.88,1.88,0,0,0-1.91,2,1.91,1.91,0,0,0,1.93,2,1.66,1.66,0,0,0,1.63-1Z" transform="translate(-4.36 -4.56)" fill="#2f40ca"></path>
  <path d="M52,168.92h1.57a1.51,1.51,0,0,1,.45,3l1,1.61h-.51l-1-1.55H52.43v1.55H52Zm2.64,1.51a1.06,1.06,0,0,0-1.07-1.11H52.43v2.22h1.13A1.06,1.06,0,0,0,54.63,170.43Z" transform="translate(-4.36 -4.56)" fill="#2f40ca"></path>
  <path d="M56.45,169.32V171h2v.4h-2v1.66h2v.41H56v-4.56H58.5v.4Z" transform="translate(-4.36 -4.56)" fill="#2f40ca"></path>
  <path d="M62.25,173.48l-.28-.82H60l-.27.82h-.46l1.57-4.56h.33l1.56,4.56ZM61,169.62l-.86,2.64h1.72Z" transform="translate(-4.36 -4.56)" fill="#2f40ca"></path>
  <path d="M63.71,169.32H62.48v-.4h2.9v.4H64.14v4.16h-.43Z" transform="translate(-4.36 -4.56)" fill="#2f40ca"></path>
  <path d="M66.14,168.92h.45v4.56h-.45Z" transform="translate(-4.36 -4.56)" fill="#2f40ca"></path>
  <path d="M67.53,171.2a2.34,2.34,0,1,1,2.34,2.37A2.3,2.3,0,0,1,67.53,171.2Zm4.23,0a1.89,1.89,0,1,0-1.89,2A1.9,1.9,0,0,0,71.76,171.2Z" transform="translate(-4.36 -4.56)" fill="#2f40ca"></path>
  <path d="M75.9,172.71v-3.79h.44v4.56h-.48l-2.3-3.8v3.8h-.44v-4.56h.49Z" transform="translate(-4.36 -4.56)" fill="#2f40ca"></path>
  <rect x="107.51" y="173.08" width="119.46" height="48.14"></rect>
  <path d="M132.86,202.1a1.48,1.48,0,0,0,1.64,1.53c.86,0,1.45-.44,1.45-1.22s-.73-1.08-1.41-1.26c-1.07-.3-2-.62-2-1.81a1.73,1.73,0,0,1,1.95-1.72,1.82,1.82,0,0,1,2,1.89h-.61a1.24,1.24,0,0,0-1.37-1.34c-.78,0-1.35.39-1.35,1.12s.69,1,1.42,1.22c1,.28,2,.6,2,1.86a1.84,1.84,0,0,1-2.07,1.82,2,2,0,0,1-2.23-2.09Z" transform="translate(-4.36 -4.56)" fill="#fff"></path>
  <path d="M139.73,204.05a4.11,4.11,0,0,1-.69.06c-.51,0-1.19-.11-1.19-1.39v-2.15H137v-.51h.81v-1.47h.57v1.47h1.16v.51h-1.16v2c0,.85.33,1,.73,1a4.83,4.83,0,0,0,.58-.05Z" transform="translate(-4.36 -4.56)" fill="#fff"></path>
  <path d="M144.28,200.06v4h-.58v-.84a1.68,1.68,0,0,1-1.58.94,2.09,2.09,0,0,1,0-4.18,1.7,1.7,0,0,1,1.59.95v-.86Zm-.58,2a1.52,1.52,0,1,0-1.52,1.56A1.5,1.5,0,0,0,143.7,202.06Z" transform="translate(-4.36 -4.56)" fill="#fff"></path>
  <path d="M148,200.6a1.63,1.63,0,0,0-.35,0c-1,0-1.45.79-1.45,1.72v1.77h-.58v-4h.58V201a1.5,1.5,0,0,1,1.43-1,1,1,0,0,1,.37.06Z" transform="translate(-4.36 -4.56)" fill="#fff"></path>
  <path d="M150.65,204.05a4,4,0,0,1-.68.06c-.51,0-1.2-.11-1.2-1.39v-2.15H148v-.51h.81v-1.47h.58v1.47h1.16v.51h-1.16v2c0,.85.32,1,.73,1a4.48,4.48,0,0,0,.57-.05Z" transform="translate(-4.36 -4.56)" fill="#fff"></path>
  <path d="M154.78,200.06v4h-.57v-.87a1.59,1.59,0,0,1-1.52,1,1.52,1.52,0,0,1-1.2-.5,2,2,0,0,1-.34-1.24v-2.35h.57v2.17c0,.79.35,1.39,1.15,1.39a1.38,1.38,0,0,0,1.34-1.51v-2.05Z" transform="translate(-4.36 -4.56)" fill="#fff"></path>
  <path d="M156.74,200.91a1.68,1.68,0,0,1,1.57-.94,2.09,2.09,0,0,1,0,4.18,1.67,1.67,0,0,1-1.57-1v3.18h-.59v-6.32h.59Zm0,1.14a1.51,1.51,0,1,0,1.51-1.55A1.5,1.5,0,0,0,156.74,202.05Z" transform="translate(-4.36 -4.56)" fill="#fff"></path>
  <path d="M163.93,198a.54.54,0,1,1-.53.54A.52.52,0,0,1,163.93,198Zm-.29,2.09h.59v4h-.59Z" transform="translate(-4.36 -4.56)" fill="#fff"></path>
  <path d="M168.55,203c0,.76-.62,1.17-1.52,1.17s-1.69-.45-1.69-1.45h.57c0,.71.49,1,1.12,1s1-.23,1-.65c0-.58-.66-.62-1.32-.78s-1.19-.35-1.19-1.12.65-1.15,1.44-1.15a1.38,1.38,0,0,1,1.56,1.33h-.57c0-.55-.36-.85-1-.85s-.9.23-.9.66.45.57,1.21.71S168.55,202.19,168.55,203Z" transform="translate(-4.36 -4.56)" fill="#fff"></path>
  <path d="M174.65,203c0,.76-.61,1.17-1.52,1.17s-1.69-.45-1.69-1.45H172c0,.71.49,1,1.12,1s1-.23,1-.65c0-.58-.66-.62-1.32-.78s-1.19-.35-1.19-1.12S172.24,200,173,200s1.56.51,1.56,1.33H174c0-.55-.37-.85-1-.85s-.9.23-.9.66.45.57,1.2.71S174.65,202.19,174.65,203Z" transform="translate(-4.36 -4.56)" fill="#fff"></path>
  <path d="M179.27,200.06v4h-.57v-.87a1.59,1.59,0,0,1-1.52,1,1.52,1.52,0,0,1-1.2-.5,1.89,1.89,0,0,1-.34-1.24v-2.35h.57v2.17c0,.79.34,1.39,1.15,1.39a1.38,1.38,0,0,0,1.34-1.51v-2.05Z" transform="translate(-4.36 -4.56)" fill="#fff"></path>
  <path d="M183.58,201.52a1.11,1.11,0,0,0-1.24-1,1.41,1.41,0,0,0-1.45,1.55,1.43,1.43,0,0,0,1.47,1.57,1.13,1.13,0,0,0,1.23-.93h.59a1.71,1.71,0,0,1-1.84,1.46,2.09,2.09,0,0,1,0-4.18,1.67,1.67,0,0,1,1.82,1.55Z" transform="translate(-4.36 -4.56)" fill="#fff"></path>
  <path d="M188.18,201.52a1.11,1.11,0,0,0-1.24-1,1.41,1.41,0,0,0-1.45,1.55,1.43,1.43,0,0,0,1.47,1.57,1.14,1.14,0,0,0,1.23-.93h.59a1.71,1.71,0,0,1-1.84,1.46,2.09,2.09,0,0,1,0-4.18,1.67,1.67,0,0,1,1.82,1.55Z" transform="translate(-4.36 -4.56)" fill="#fff"></path>
  <path d="M190.09,202.18a1.34,1.34,0,0,0,1.39,1.47,1.15,1.15,0,0,0,1.18-.74h.59a1.7,1.7,0,0,1-1.78,1.24,1.94,1.94,0,0,1-2-2.11,1.9,1.9,0,0,1,1.91-2.07,1.79,1.79,0,0,1,1.89,1.79,3.49,3.49,0,0,1,0,.42Zm0-.45h2.64a1.23,1.23,0,0,0-1.32-1.26A1.26,1.26,0,0,0,190.1,201.73Z" transform="translate(-4.36 -4.56)" fill="#fff"></path>
  <path d="M197.24,203c0,.76-.62,1.17-1.52,1.17S194,203.7,194,202.7h.57c0,.71.49,1,1.12,1s1-.23,1-.65c0-.58-.66-.62-1.32-.78s-1.19-.35-1.19-1.12.65-1.15,1.44-1.15a1.38,1.38,0,0,1,1.56,1.33h-.56c0-.55-.37-.85-1-.85s-.9.23-.9.66.45.57,1.21.71S197.24,202.19,197.24,203Z" transform="translate(-4.36 -4.56)" fill="#fff"></path>
  <path d="M201.16,203c0,.76-.61,1.17-1.51,1.17S198,203.7,198,202.7h.56c0,.71.5,1,1.13,1s.95-.23.95-.65c0-.58-.65-.62-1.31-.78s-1.2-.35-1.2-1.12.66-1.15,1.44-1.15,1.57.51,1.57,1.33h-.57c0-.55-.37-.85-1-.85s-.9.23-.9.66.45.57,1.21.71S201.16,202.19,201.16,203Z" transform="translate(-4.36 -4.56)" fill="#fff"></path>
  <path d="M204.43,198.3a1.34,1.34,0,0,0-.48-.08c-.36,0-.77.08-.77.9v.94h1.25v.51h-1.25v3.48h-.58v-3.48h-.9v-.51h.9v-.89c0-1.36.77-1.47,1.24-1.47a1.33,1.33,0,0,1,.59.1Z" transform="translate(-4.36 -4.56)" fill="#fff"></path>
  <path d="M208.68,200.06v4h-.58v-.87a1.59,1.59,0,0,1-1.52,1,1.52,1.52,0,0,1-1.2-.5,2,2,0,0,1-.34-1.24v-2.35h.57v2.17c0,.79.35,1.39,1.15,1.39a1.38,1.38,0,0,0,1.34-1.51v-2.05Z" transform="translate(-4.36 -4.56)" fill="#fff"></path>
  <path d="M210,197.75h.59v6.3H210Z" transform="translate(-4.36 -4.56)" fill="#fff"></path>
</svg>
