<?xml version="1.0" encoding="UTF-8"?>
<svg preserveAspectRatio="xMidYMid slice" width="334px" height="394px" xmlns="http://www.w3.org/2000/svg" data-name="Layer 1" viewBox="0 0 334.49 394.3">
  <path fill="#fff" stroke="#000" stroke-miterlimit="10" stroke-width="1.25" d="M43.63 87.16h118.21v46.89H43.63zM43.63 260.24h118.21v46.88H43.63zM172.65 87.16h118.21v46.89H172.65zM172.65 260.24h118.21v46.88H172.65zM108.14.63h118.21v46.88H108.14zM108.14 346.79h118.21v46.88H108.14z"></path>
  <path d="M80.8 101.7h-1.71v-.55h4v.55H81.4v5.74h-.6zM86.84 103.44v4h-.58v-.84a1.68 1.68 0 01-1.58.94 2.09 2.09 0 010-4.17 1.69 1.69 0 011.59.94v-.87zm-.58 2a1.52 1.52 0 10-1.51 1.56 1.5 1.5 0 001.51-1.56zM88.21 101.15h.59v6.29h-.59zM90.43 105.58a1.34 1.34 0 001.39 1.47 1.15 1.15 0 001.19-.74h.63a1.69 1.69 0 01-1.78 1.24 1.94 1.94 0 01-2-2.11 1.9 1.9 0 011.91-2.06 1.79 1.79 0 011.87 1.78 2.34 2.34 0 010 .42zm0-.45h2.64a1.23 1.23 0 00-1.31-1.26 1.28 1.28 0 00-1.32 1.26zM94.72 103.44h.58v.87a1.58 1.58 0 011.53-1 1.48 1.48 0 011.18.49 1.89 1.89 0 01.35 1.24v2.4h-.58v-2.17c0-.78-.34-1.38-1.14-1.38a1.38 1.38 0 00-1.34 1.55v2h-.58zM101.78 107.44a4 4 0 01-.68.06c-.51 0-1.2-.11-1.2-1.39v-2.15h-.81v-.52h.81v-1.48h.58v1.48h1.16v.5h-1.16v2c0 .85.32 1 .73 1a4.48 4.48 0 00.57-.05zM105.36 108.67c0 .82-.36 1.17-1 1.17a1.63 1.63 0 01-.59-.11v-.5a1.1 1.1 0 00.42.1c.37 0 .54-.24.54-.69v-5.2h.58zm-.28-7.3a.54.54 0 110 1.07.54.54 0 010-1.07zM106.47 105.44a2.1 2.1 0 112.1 2.09 2 2 0 01-2.1-2.09zm3.61 0a1.51 1.51 0 10-1.51 1.56 1.5 1.5 0 001.51-1.56zM112.06 101.37a.54.54 0 11-.53.54.53.53 0 01.53-.54zm-.29 2.1h.59v4h-.59zM113.83 103.44h.59v.87a1.57 1.57 0 011.53-1 1.48 1.48 0 011.18.49 1.94 1.94 0 01.35 1.24v2.4h-.59v-2.17c0-.78-.34-1.38-1.14-1.38a1.37 1.37 0 00-1.33 1.51v2h-.59zM121.64 106.38c0 .76-.61 1.17-1.51 1.17s-1.69-.45-1.69-1.45h.56c0 .71.5 1 1.13 1s1-.23 1-.65c0-.58-.66-.62-1.31-.78s-1.2-.35-1.2-1.12.66-1.14 1.44-1.14 1.57.5 1.57 1.32h-.57c0-.55-.37-.85-1-.85s-.9.23-.9.66.45.58 1.2.71 1.28.34 1.28 1.13zM123.01 106.44c.36 0 .7.28.7.93a1.05 1.05 0 01-1.2 1.14v-.32a.59.59 0 00.64-.38.82.82 0 000-.38.3.3 0 01-.23.08.52.52 0 01-.52-.53.53.53 0 01.61-.54zM61.64 115a1.63 1.63 0 00-.35 0c-1 0-1.45.79-1.45 1.72v1.72h-.58v-4h.58v1a1.5 1.5 0 011.43-1 1 1 0 01.37 0zM62.53 116.58a1.34 1.34 0 001.39 1.47 1.16 1.16 0 001.18-.74h.59a1.69 1.69 0 01-1.78 1.24 1.94 1.94 0 01-2-2.11 1.9 1.9 0 011.91-2.07 1.79 1.79 0 011.89 1.79 3.57 3.57 0 010 .42zm0-.45h2.64a1.23 1.23 0 00-1.32-1.26 1.26 1.26 0 00-1.31 1.26zM69.76 115.92a1.13 1.13 0 00-1.24-1 1.56 1.56 0 000 3.12 1.15 1.15 0 001.24-.94h.58a1.7 1.7 0 01-1.83 1.47 2.1 2.1 0 010-4.19 1.67 1.67 0 011.81 1.56zM71.64 116.58a1.34 1.34 0 001.39 1.47 1.16 1.16 0 001.19-.74h.58a1.69 1.69 0 01-1.78 1.24 1.94 1.94 0 01-2-2.11 1.9 1.9 0 011.91-2.07 1.79 1.79 0 011.89 1.79 2.39 2.39 0 010 .42zm0-.45h2.64a1.23 1.23 0 00-1.31-1.26 1.27 1.27 0 00-1.33 1.26zM76.35 112.37a.54.54 0 11-.54.54.53.53 0 01.54-.54zm-.29 2.07h.58v4h-.58zM78.06 114.44l1.42 3.17 1.43-3.17h.63l-1.9 4h-.41l-1.83-4zM82.64 112.37a.54.54 0 11-.53.54.52.52 0 01.53-.54zm-.31 2.07h.59v4h-.59zM84.39 114.44h.59v.88a1.57 1.57 0 011.53-1 1.5 1.5 0 011.18.5 1.94 1.94 0 01.35 1.24v2.38h-.59v-2.17c0-.78-.34-1.38-1.14-1.38a1.37 1.37 0 00-1.33 1.55v2h-.59zM93.16 118.77a1.85 1.85 0 01-2.07 2.09 1.82 1.82 0 01-2.07-1.83h.62a1.29 1.29 0 001.47 1.3c.93 0 1.5-.45 1.5-1.56v-1.17a1.67 1.67 0 01-1.57 1 2.09 2.09 0 010-4.18 1.68 1.68 0 011.57.94v-.92h.59zm-3.61-2.33a1.51 1.51 0 101.51-1.55 1.5 1.5 0 00-1.51 1.55zM99.53 117.38c0 .76-.61 1.17-1.51 1.17s-1.7-.45-1.7-1.45h.57c0 .71.5 1 1.13 1s1-.22 1-.64c0-.58-.66-.62-1.31-.78s-1.2-.35-1.2-1.12.66-1.15 1.44-1.15 1.57.51 1.57 1.33h-.57c0-.55-.37-.85-1-.85s-.9.23-.9.66.45.57 1.2.71 1.28.33 1.28 1.12zM102.73 118.44a4 4 0 01-.68.06c-.51 0-1.2-.11-1.2-1.39v-2.15h-.81v-.52h.81v-1.47h.58v1.47h1.21v.51h-1.16v2c0 .85.32 1 .73 1a4.63 4.63 0 00.57 0zM103.08 116.44a2.1 2.1 0 112.1 2.09 2 2 0 01-2.1-2.09zm3.61 0a1.51 1.51 0 10-1.51 1.56 1.5 1.5 0 001.51-1.56zM111.23 115.92a1.12 1.12 0 00-1.24-1 1.56 1.56 0 000 3.12 1.15 1.15 0 001.24-.94h.58a1.7 1.7 0 01-1.83 1.47 2.1 2.1 0 010-4.19 1.69 1.69 0 011.82 1.56zM114.13 116.44l2 2h-.77l-1.87-1.86v1.86h-.59v-6.3h.59v4.19l1.85-1.89h.77zM118.49 116.44a2.1 2.1 0 112.1 2.09 2 2 0 01-2.1-2.09zm3.61 0a1.51 1.51 0 10-1.51 1.56 1.5 1.5 0 001.51-1.56zM124.28 115.31a1.68 1.68 0 011.57-.94 2.09 2.09 0 010 4.18 1.67 1.67 0 01-1.57-1v3.17h-.59v-6.28h.59zm0 1.14a1.51 1.51 0 101.51-1.55 1.5 1.5 0 00-1.51 1.54zM131.03 118.44a4 4 0 01-.69.06c-.51 0-1.19-.11-1.19-1.39v-2.15h-.81v-.52h.81v-1.47h.57v1.47h1.16v.51h-1.16v2c0 .85.33 1 .73 1a5 5 0 00.58 0zM132.14 112.37a.54.54 0 110 1.07.54.54 0 010-1.07zm-.28 2.09h.58v4h-.58zM133.56 116.44a2.1 2.1 0 112.09 2.09 2 2 0 01-2.09-2.09zm3.61 0a1.52 1.52 0 10-1.52 1.56 1.5 1.5 0 001.52-1.56zM138.76 114.44h.58v.88a1.59 1.59 0 011.53-1 1.49 1.49 0 011.18.5 1.89 1.89 0 01.35 1.24v2.38h-.58v-2.17c0-.78-.34-1.38-1.14-1.38a1.38 1.38 0 00-1.34 1.55v2h-.58zM146.55 117.38c0 .76-.62 1.17-1.52 1.17s-1.69-.45-1.69-1.45h.57c0 .71.49 1 1.12 1s1-.22 1-.64c0-.58-.66-.62-1.32-.78s-1.2-.35-1.2-1.12.66-1.15 1.45-1.15a1.38 1.38 0 011.56 1.33h-.57c0-.55-.36-.85-1-.85s-.9.23-.9.66.45.57 1.21.71 1.29.33 1.29 1.12zM69.51 280.28h-1.7v-.55h4v.55h-1.7v5.75h-.6zM75.56 282.04v4h-.59v-.85a1.68 1.68 0 01-1.57.95 2.09 2.09 0 010-4.18 1.67 1.67 0 011.58.95v-.86zm-.59 2a1.51 1.51 0 10-1.51 1.56 1.5 1.5 0 001.51-1.56zM76.93 279.73h.58v6.3h-.58zM79.15 284.16a1.33 1.33 0 001.38 1.46 1.15 1.15 0 001.19-.74h.59a1.71 1.71 0 01-1.78 1.25 1.94 1.94 0 01-2-2.12 1.9 1.9 0 011.91-2.06 1.79 1.79 0 011.89 1.78 3.64 3.64 0 010 .43zm0-.45h2.64a1.23 1.23 0 00-1.31-1.27 1.26 1.26 0 00-1.32 1.27zM83.43 282.04h.59v.87a1.57 1.57 0 011.53-1 1.45 1.45 0 011.18.5 1.93 1.93 0 01.35 1.24v2.34h-.59v-2.17c0-.78-.34-1.39-1.14-1.39a1.38 1.38 0 00-1.33 1.51v2h-.59zM90.5 286.03a4.25 4.25 0 01-.69.05c-.51 0-1.19-.11-1.19-1.38v-2.16h-.81v-.5h.83v-1.48h.57v1.48h1.16v.5h-1.18v2c0 .84.33 1 .73 1h.58zM93.76 279.94a.53.53 0 01.54.54.54.54 0 01-1.07 0 .54.54 0 01.53-.54zm-.28 2.1h.58v4h-.58zM98.39 284.96c0 .75-.61 1.17-1.51 1.17s-1.69-.45-1.69-1.45h.56c0 .71.5 1 1.13 1s1-.22 1-.65-.65-.62-1.31-.77-1.2-.35-1.2-1.13.66-1.14 1.44-1.14 1.57.5 1.57 1.32h-.57c0-.55-.37-.84-1-.84s-.9.22-.9.65.45.58 1.21.72 1.27.33 1.27 1.12zM104.02 282.58a1.17 1.17 0 00-.35 0c-1 0-1.45.79-1.45 1.72v1.77h-.58v-4h.58v.95a1.5 1.5 0 011.43-1 .82.82 0 01.37.06zM104.96 284.16a1.33 1.33 0 001.39 1.46 1.15 1.15 0 001.18-.74h.59a1.7 1.7 0 01-1.78 1.25 1.94 1.94 0 01-2-2.12 1.9 1.9 0 011.91-2.06 1.79 1.79 0 011.89 1.78 3.64 3.64 0 010 .43zm0-.45h2.68a1.23 1.23 0 00-1.32-1.26 1.26 1.26 0 00-1.35 1.26zM111.54 282.69l-1.18 3.34h-.42l-1.54-4h.62l1.12 3.11 1.11-3.11h.58l1.11 3.11 1.12-3.11h.58l-1.54 4h-.41zM119.03 282.04v4h-.59v-.85a1.68 1.68 0 01-1.57.95 2.09 2.09 0 010-4.18 1.67 1.67 0 011.58.95v-.86zm-.59 2a1.51 1.51 0 10-1.51 1.56 1.5 1.5 0 001.51-1.56zM122.78 282.58a1.17 1.17 0 00-.35 0c-1 0-1.45.79-1.45 1.72v1.77h-.59v-4h.59v.95a1.49 1.49 0 011.42-1 .87.87 0 01.38.06zM126.7 285.18a1.68 1.68 0 01-1.57.95 2.09 2.09 0 010-4.18 1.66 1.66 0 011.58.95v-3.17h.59v6.3h-.59zm0-1.14a1.51 1.51 0 10-1.51 1.56 1.5 1.5 0 001.51-1.56zM128.92 284.16a1.33 1.33 0 001.38 1.46 1.15 1.15 0 001.19-.74h.59a1.71 1.71 0 01-1.78 1.25 1.94 1.94 0 01-2-2.12 1.9 1.9 0 011.91-2.06 1.79 1.79 0 011.89 1.78 3.64 3.64 0 010 .43zm0-.45h2.64a1.23 1.23 0 00-1.32-1.26 1.26 1.26 0 00-1.31 1.26zM136.45 285.18a1.68 1.68 0 01-1.57.95 2.09 2.09 0 010-4.18 1.67 1.67 0 011.58.95v-3.17h.59v6.3h-.59zm0-1.14a1.51 1.51 0 10-1.51 1.56 1.5 1.5 0 001.51-1.56zM200.31 102.06h.63v6.31h-.63zM202.31 104.38h.58v.87a1.58 1.58 0 011.53-1 1.48 1.48 0 011.18.49 1.89 1.89 0 01.35 1.24v2.35h-.58v-2.17c0-.79-.34-1.39-1.14-1.39a1.38 1.38 0 00-1.34 1.51v2.05h-.58zM207.01 104.38l1.42 3.17 1.43-3.17h.63l-1.86 4h-.41l-1.83-4zM211.26 106.49a1.34 1.34 0 001.39 1.47 1.17 1.17 0 001.19-.74h.58a1.69 1.69 0 01-1.78 1.22 1.93 1.93 0 01-2-2.11 1.9 1.9 0 011.91-2.06 1.79 1.79 0 011.89 1.78 2.34 2.34 0 010 .42zm0-.45h2.64a1.24 1.24 0 00-1.32-1.26 1.27 1.27 0 00-1.31 1.26zM218.4 107.29c0 .76-.61 1.17-1.51 1.17s-1.7-.45-1.7-1.45h.57c0 .72.5 1 1.13 1s.95-.23.95-.65c0-.58-.66-.62-1.31-.77s-1.2-.36-1.2-1.13.66-1.14 1.44-1.14 1.57.5 1.57 1.32h-.57c0-.55-.37-.85-1-.85s-.9.23-.9.66.45.58 1.2.71 1.33.34 1.33 1.13zM221.64 108.37a5.62 5.62 0 01-.68 0c-.51 0-1.2-.11-1.2-1.39v-2.15h-.81v-.5h.81v-1.48h.58v1.48h1.16v.5h-1.16v2c0 .84.32 1 .73 1a4.48 4.48 0 00.57 0zM221.95 106.38a2.1 2.1 0 112.1 2.08 2 2 0 01-2.1-2.08zm3.61 0a1.51 1.51 0 10-1.51 1.55 1.5 1.5 0 001.51-1.55zM229.54 104.92a1.22 1.22 0 00-.35 0c-1 0-1.45.79-1.45 1.72v1.78h-.58v-4h.58v.94a1.5 1.5 0 011.42-1 .86.86 0 01.38.07zM233.06 107.29c0 .76-.61 1.17-1.51 1.17s-1.69-.45-1.69-1.45h.56c0 .72.5 1 1.13 1s1-.23 1-.65c0-.58-.65-.62-1.31-.77s-1.2-.36-1.2-1.13.66-1.14 1.44-1.14 1.57.5 1.57 1.32h-.57c0-.55-.37-.85-1-.85s-.9.23-.9.66.45.58 1.21.71 1.27.34 1.27 1.13zM236.89 105.22a1.68 1.68 0 011.58-.93 2.09 2.09 0 010 4.17 1.68 1.68 0 01-1.58-1v3.18h-.58v-6.31h.58zm0 1.15a1.52 1.52 0 101.52-1.56 1.5 1.5 0 00-1.52 1.56zM243.91 104.92a1.22 1.22 0 00-.35 0c-1 0-1.45.79-1.45 1.72v1.78h-.58v-4h.58v.94a1.5 1.5 0 011.43-1 .82.82 0 01.37.07zM244.22 106.38a2.1 2.1 0 112.1 2.08 2 2 0 01-2.1-2.08zm3.61 0a1.51 1.51 0 10-1.51 1.55 1.5 1.5 0 001.51-1.55zM249.2 104.38l1.41 3.17 1.43-3.17h.6l-1.85 4h-.42l-1.82-4zM253.75 102.28a.54.54 0 11-.53.54.53.53 0 01.53-.54zm-.29 2.1h.59v4h-.59zM258.77 107.52a1.68 1.68 0 01-1.57.94 2.09 2.09 0 010-4.17 1.68 1.68 0 011.58.94v-3.17h.59v6.31h-.59zm0-1.14a1.51 1.51 0 10-1.51 1.55 1.5 1.5 0 001.51-1.55zM260.99 106.49a1.34 1.34 0 001.39 1.47 1.15 1.15 0 001.19-.74h.58a1.69 1.69 0 01-1.78 1.24 1.93 1.93 0 01-2-2.11 1.9 1.9 0 011.91-2.06 1.79 1.79 0 011.89 1.78 2.34 2.34 0 010 .42zm0-.45h2.65a1.24 1.24 0 00-1.31-1.26 1.28 1.28 0 00-1.33 1.26zM204.37 113.61a1.28 1.28 0 00-.47-.08c-.36 0-.77.08-.77.9v1h1.24v.5h-1.24v3.48h-.58v-3.48h-.91v-.5h.9v-.99c0-1.36.77-1.47 1.24-1.47a1.25 1.25 0 01.58.1zm1.22-.31a.52.52 0 01.52.52.51.51 0 01-.52.51.5.5 0 01-.51-.51.51.51 0 01.56-.52zm-.29 2.08h.58v4h-.58zM207.35 115.38h.59v.87a1.57 1.57 0 011.53-1 1.48 1.48 0 011.18.49 1.94 1.94 0 01.35 1.24v2.34h-.59v-2.17c0-.78-.34-1.38-1.14-1.38a1.37 1.37 0 00-1.33 1.51v2h-.59zM216.12 115.38v4h-.59v-.84a1.68 1.68 0 01-1.57.94 2.09 2.09 0 010-4.17 1.68 1.68 0 011.58.94v-.85zm-.59 2a1.51 1.51 0 10-1.51 1.56 1.5 1.5 0 001.51-1.57zM217.49 115.38h.58v.87a1.58 1.58 0 011.53-1 1.48 1.48 0 011.18.49 1.94 1.94 0 01.35 1.24v2.34h-.58v-2.17c0-.78-.35-1.38-1.15-1.38a1.37 1.37 0 00-1.33 1.51v2h-.58zM225.36 116.83a1.12 1.12 0 00-1.24-1 1.56 1.56 0 000 3.12 1.14 1.14 0 001.23-.94h.59a1.71 1.71 0 01-1.84 1.47 2.09 2.09 0 010-4.18 1.67 1.67 0 011.82 1.55zM227.4 113.28a.54.54 0 110 1.07.54.54 0 010-1.07zm-.28 2.1h.58v4h-.58zM233.01 115.38v4h-.58v-.84a1.69 1.69 0 01-1.58.94 2.09 2.09 0 010-4.17 1.69 1.69 0 011.59.94v-.85zm-.58 2a1.52 1.52 0 10-1.52 1.56 1.5 1.5 0 001.52-1.57zM234.39 113.06h.58v6.3h-.58zM241.47 116.83a1.12 1.12 0 00-1.24-1 1.56 1.56 0 000 3.12 1.14 1.14 0 001.23-.94h.59a1.71 1.71 0 01-1.84 1.47 2.09 2.09 0 010-4.18 1.67 1.67 0 011.82 1.55zM246.95 115.38v4h-.58v-.84a1.68 1.68 0 01-1.58.94 2.09 2.09 0 010-4.17 1.69 1.69 0 011.59.94v-.85zm-.58 2a1.52 1.52 0 10-1.51 1.56 1.5 1.5 0 001.51-1.57zM248.91 116.22a1.69 1.69 0 011.58-.93 2.09 2.09 0 010 4.17 1.69 1.69 0 01-1.58-1v3.18h-.58v-6.31h.58zm0 1.14a1.52 1.52 0 101.52-1.55 1.51 1.51 0 00-1.52 1.55zM253.93 113.28a.54.54 0 11-.53.54.52.52 0 01.53-.54zm-.29 2.1h.58v4h-.58zM257.82 119.36a4 4 0 01-.68.06c-.51 0-1.2-.11-1.2-1.39v-2.15h-.81v-.5h.81v-1.48h.58v1.48h1.12v.5h-1.16v2c0 .85.32 1 .73 1a4.48 4.48 0 00.57 0zM262.37 115.38v4h-.59v-.84a1.68 1.68 0 01-1.57.94 2.09 2.09 0 010-4.17 1.68 1.68 0 011.58.94v-.85zm-.59 2a1.51 1.51 0 10-1.51 1.56 1.5 1.5 0 001.51-1.57zM263.74 113.06h.59v6.3h-.59zM188.56 279.73h.63v6.3h-.63zM190.56 282.04h.58v.87a1.58 1.58 0 011.53-1 1.45 1.45 0 011.18.5 1.93 1.93 0 01.35 1.24v2.34h-.56v-2.17c0-.78-.35-1.39-1.15-1.39a1.38 1.38 0 00-1.33 1.51v2h-.58zM195.26 282.04l1.42 3.17 1.43-3.17h.63l-1.86 4h-.41l-1.83-4zM199.51 284.16a1.33 1.33 0 001.39 1.46 1.17 1.17 0 001.19-.74h.55a1.7 1.7 0 01-1.78 1.25 1.94 1.94 0 01-2-2.12 1.89 1.89 0 011.9-2.06 1.8 1.8 0 011.9 1.78 2.44 2.44 0 010 .43zm0-.45h2.64a1.23 1.23 0 00-1.31-1.27 1.27 1.27 0 00-1.32 1.27zM206.64 284.96c0 .75-.61 1.17-1.51 1.17s-1.7-.45-1.7-1.45h.57c0 .71.5 1 1.13 1s.95-.22.95-.65-.66-.62-1.31-.77-1.2-.35-1.2-1.13.66-1.14 1.44-1.14 1.57.5 1.57 1.32h-.57c0-.55-.37-.84-1-.84s-.9.22-.9.65.45.58 1.2.72 1.33.33 1.33 1.12zM209.85 286.03a4.12 4.12 0 01-.68.05c-.51 0-1.2-.11-1.2-1.38v-2.16h-.81v-.5h.81v-1.48h.58v1.48h1.16v.5h-1.16v2c0 .84.32 1 .73 1h.57zM210.2 284.04a2.1 2.1 0 112.1 2.09 2 2 0 01-2.1-2.09zm3.61 0a1.51 1.51 0 10-1.51 1.56 1.5 1.5 0 001.51-1.56zM217.79 282.58a1.17 1.17 0 00-.35 0c-1 0-1.45.79-1.45 1.72v1.77h-.59v-4h.59v.95a1.49 1.49 0 011.42-1 .87.87 0 01.38.06zM221.31 284.96c0 .75-.61 1.17-1.51 1.17s-1.69-.45-1.69-1.45h.53c0 .71.5 1 1.13 1s1-.22 1-.65-.66-.62-1.31-.77-1.2-.35-1.2-1.13.66-1.14 1.44-1.14 1.57.5 1.57 1.32h-.63c0-.55-.37-.84-1-.84s-.9.22-.9.65.45.58 1.2.72 1.37.33 1.37 1.12zM228.39 282.04v4h-.58v-.85a1.69 1.69 0 01-1.58.95 2.09 2.09 0 010-4.18 1.68 1.68 0 011.59.95v-.86zm-.58 2a1.52 1.52 0 10-1.52 1.56 1.51 1.51 0 001.52-1.56zM232.15 282.58a1.17 1.17 0 00-.35 0c-1 0-1.45.79-1.45 1.72v1.77h-.58v-4h.58v.95a1.5 1.5 0 011.43-1 .82.82 0 01.37.06zM233.08 284.16a1.33 1.33 0 001.39 1.46 1.17 1.17 0 001.19-.74h.58a1.7 1.7 0 01-1.78 1.25 1.94 1.94 0 01-2-2.12 1.89 1.89 0 011.9-2.06 1.8 1.8 0 011.9 1.78 2.44 2.44 0 010 .43zm0-.45h2.64a1.23 1.23 0 00-1.32-1.26 1.27 1.27 0 00-1.31 1.26zM241.93 282.58a1.2 1.2 0 00-.35 0c-1 0-1.45.79-1.45 1.72v1.77h-.59v-4h.59v.95a1.49 1.49 0 011.42-1 .89.89 0 01.38.06zM242.85 284.16a1.33 1.33 0 001.39 1.46 1.15 1.15 0 001.19-.74h.58a1.7 1.7 0 01-1.78 1.25 1.94 1.94 0 01-2-2.12 1.9 1.9 0 011.91-2.06 1.79 1.79 0 011.89 1.78 2.44 2.44 0 010 .43zm0-.45h2.64a1.23 1.23 0 00-1.31-1.26 1.27 1.27 0 00-1.32 1.26zM249.43 282.69l-1.18 3.34h-.42l-1.54-4h.62l1.13 3.11 1.11-3.11h.57l1.11 3.11 1.12-3.11h.63l-1.54 4h-.4zM256.93 282.04v4h-.58v-.85a1.7 1.7 0 01-1.58.95 2.09 2.09 0 010-4.18 1.68 1.68 0 011.59.95v-.86zm-.58 2a1.52 1.52 0 10-1.52 1.56 1.51 1.51 0 001.52-1.56zM260.64 282.58a1.17 1.17 0 00-.35 0c-1 0-1.45.79-1.45 1.72v1.77h-.58v-4h.58v.95a1.5 1.5 0 011.43-1 .82.82 0 01.37.06zM264.64 285.18a1.69 1.69 0 01-1.58.95 2.09 2.09 0 010-4.18 1.68 1.68 0 011.58.95v-3.17h.58v6.3h-.58zm0-1.14a1.52 1.52 0 10-1.51 1.56 1.5 1.5 0 001.51-1.56zM266.82 284.16a1.33 1.33 0 001.39 1.46 1.17 1.17 0 001.19-.74h.58a1.7 1.7 0 01-1.78 1.25 1.94 1.94 0 01-2-2.12 1.9 1.9 0 011.91-2.06 1.79 1.79 0 011.89 1.78 2.44 2.44 0 010 .43zm0-.45h2.64a1.23 1.23 0 00-1.32-1.26 1.27 1.27 0 00-1.31 1.26zM274.36 285.18a1.71 1.71 0 01-1.58.95 2.09 2.09 0 010-4.18 1.68 1.68 0 011.59.95v-3.17h.58v6.3h-.58zm0-1.14a1.52 1.52 0 10-1.52 1.56 1.51 1.51 0 001.52-1.56zM139.46 24.44a1.48 1.48 0 001.64 1.53c.86 0 1.45-.44 1.45-1.22s-.73-1.08-1.41-1.27c-1.07-.29-2.05-.61-2.05-1.81a1.73 1.73 0 011.94-1.72 1.82 1.82 0 012 1.9h-.6a1.26 1.26 0 00-1.38-1.35c-.77 0-1.34.4-1.34 1.13s.69 1 1.42 1.22c1 .28 2 .6 2 1.86a1.84 1.84 0 01-2.07 1.82 2 2 0 01-2.21-2.09zM146.32 26.44a4.21 4.21 0 01-.68 0c-.51 0-1.2-.11-1.2-1.39v-2.12h-.8v-.49h.81v-1.49h.58v1.49h1.16v.51h-1.16v2c0 .85.32 1 .73 1a5 5 0 00.58 0zM150.86 22.44v4h-.58v-.84a1.69 1.69 0 01-1.58.94 2.09 2.09 0 010-4.18 1.68 1.68 0 011.59.95v-.87zm-.58 2a1.52 1.52 0 10-1.52 1.56 1.5 1.5 0 001.52-1.56zM154.64 22.96a1.63 1.63 0 00-.35 0c-1 0-1.45.79-1.45 1.72v1.76h-.58v-4h.58v.95a1.5 1.5 0 011.42-1 1 1 0 01.38.05zM157.41 26.44a4 4 0 01-.68.06c-.51 0-1.2-.11-1.2-1.39v-2.18h-.81v-.49h.81v-1.49h.58v1.49h1.16v.51h-1.16v2c0 .85.32 1 .73 1a4.63 4.63 0 00.57 0zM161.64 22.44v4h-.58v-.9a1.59 1.59 0 01-1.52 1 1.52 1.52 0 01-1.2-.5 2 2 0 01-.34-1.25v-2.35h.58v2.17c0 .79.34 1.39 1.14 1.39a1.38 1.38 0 001.33-1.56v-2zM163.58 23.27a1.68 1.68 0 011.57-.94 2.09 2.09 0 010 4.18 1.67 1.67 0 01-1.57-.95v3.17h-.59v-6.29h.59zm0 1.14a1.51 1.51 0 101.51-1.55 1.5 1.5 0 00-1.51 1.58zM170.77 20.33a.54.54 0 11-.53.54.52.52 0 01.53-.54zm-.29 2.11h.59v4h-.59zM175.39 25.34c0 .76-.61 1.17-1.51 1.17s-1.69-.45-1.69-1.45h.57c0 .71.49 1 1.12 1s1-.22 1-.64c0-.58-.66-.62-1.32-.78s-1.2-.35-1.2-1.12.66-1.15 1.45-1.15a1.38 1.38 0 011.56 1.33h-.57c0-.55-.36-.85-1-.85s-.9.23-.9.66.45.57 1.21.71 1.28.33 1.28 1.12zM179.23 26.44h-.59v-6.3h.59v3.17a1.67 1.67 0 011.58-.95 2.09 2.09 0 010 4.18 1.68 1.68 0 01-1.57-.94zm3-2a1.51 1.51 0 10-1.51 1.56 1.5 1.5 0 001.53-1.56zM183.49 24.44a2.1 2.1 0 112.1 2.09 2 2 0 01-2.1-2.09zm3.61 0a1.51 1.51 0 10-1.46 1.54 1.5 1.5 0 001.46-1.54zM191.08 22.96a1.63 1.63 0 00-.35 0c-1 0-1.45.79-1.45 1.72v1.76h-.58v-4h.58v.95a1.5 1.5 0 011.42-1 1 1 0 01.38.06zM191.75 22.44h.58v.88a1.59 1.59 0 011.53-1 1.49 1.49 0 011.18.5 1.94 1.94 0 01.35 1.24v2.38h-.58v-2.2c0-.78-.34-1.38-1.15-1.38a1.38 1.38 0 00-1.33 1.51v2h-.58zM131.47 355.82v2.35h2.83v.55h-2.83v2.3h2.83v.56h-3.44v-6.3h3.44v.54zM138.57 361.58h-.67l-1.08-1.55-1.07 1.55h-.67l1.4-2-1.38-2h.67l1.05 1.53 1.06-1.53h.67l-1.39 2zM139.99 358.44a1.66 1.66 0 011.58-.94 2.09 2.09 0 010 4.18 1.68 1.68 0 01-1.58-1v3.18h-.58v-6.31h.58zm0 1.14a1.52 1.52 0 101.52-1.56 1.51 1.51 0 00-1.52 1.56zM144.88 359.7a1.34 1.34 0 001.39 1.47 1.15 1.15 0 001.18-.74h.59a1.7 1.7 0 01-1.78 1.25 1.94 1.94 0 01-2-2.12 1.9 1.9 0 011.91-2.06 1.79 1.79 0 011.89 1.78 3.49 3.49 0 010 .42zm0-.44h2.64a1.24 1.24 0 00-1.32-1.27 1.27 1.27 0 00-1.31 1.27zM151.55 358.13a1.22 1.22 0 00-.35-.05c-1 0-1.45.8-1.45 1.72v1.78h-.59v-4h.59v.94a1.49 1.49 0 011.42-1 .87.87 0 01.38.06zM152.64 355.49a.53.53 0 01.54.54.54.54 0 01-1.07 0 .53.53 0 01.53-.54zm-.29 2.1h.59v4h-.59zM154.64 359.7a1.34 1.34 0 001.38 1.47 1.15 1.15 0 001.19-.74h.59a1.72 1.72 0 01-1.79 1.25 1.94 1.94 0 01-2-2.12 1.9 1.9 0 011.91-2.06 1.79 1.79 0 011.89 1.78 2.34 2.34 0 010 .42zm0-.44h2.63a1.24 1.24 0 00-1.31-1.27 1.26 1.26 0 00-1.32 1.27zM158.92 357.59h.58v.85a1.59 1.59 0 011.54-1 1.46 1.46 0 011.17.49 1.9 1.9 0 01.36 1.25v2.34h-.59v-2.08c0-.79-.34-1.39-1.14-1.39a1.38 1.38 0 00-1.34 1.51v2.05h-.58zM166.8 359.05a1.13 1.13 0 00-1.25-1 1.57 1.57 0 000 3.13 1.13 1.13 0 001.23-.94h.59a1.72 1.72 0 01-1.84 1.47 2.1 2.1 0 010-4.19 1.67 1.67 0 011.82 1.56zM168.71 359.7a1.34 1.34 0 001.39 1.47 1.17 1.17 0 001.19-.74h.58a1.7 1.7 0 01-1.78 1.25 1.94 1.94 0 01-2-2.12 1.9 1.9 0 011.91-2.06 1.79 1.79 0 011.89 1.78 2.34 2.34 0 010 .42zm0-.44h2.64a1.24 1.24 0 00-1.32-1.27 1.28 1.28 0 00-1.31 1.27zM176.25 360.73a1.71 1.71 0 01-1.58.95 2.09 2.09 0 010-4.18 1.69 1.69 0 011.59.94v-3.16h.58v6.3h-.58zm0-1.14a1.52 1.52 0 10-1.52 1.56 1.51 1.51 0 001.52-1.56zM182.5 361.58a5.62 5.62 0 01-.68.05c-.52 0-1.2-.11-1.2-1.38v-2.16h-.81v-.5h.83v-1.48h.57v1.48h1.17v.5h-1.17v2c0 .84.33 1 .73 1a4.65 4.65 0 00.58-.05zM187.05 357.59v4h-.59v-.85a1.68 1.68 0 01-1.57.95 2.09 2.09 0 010-4.18 1.68 1.68 0 011.58.94v-.85zm-.59 2a1.51 1.51 0 10-1.51 1.56 1.5 1.5 0 001.51-1.56zM188.42 355.28h.59v6.3h-.59zM190.64 359.7a1.33 1.33 0 001.38 1.47 1.15 1.15 0 001.19-.74h.58a1.7 1.7 0 01-1.78 1.25 1.94 1.94 0 01-2-2.12 1.9 1.9 0 011.91-2.06 1.79 1.79 0 011.89 1.78 2.34 2.34 0 010 .42zm0-.44h2.64a1.24 1.24 0 00-1.31-1.27 1.28 1.28 0 00-1.33 1.27zM194.93 357.59h.58v.85a1.58 1.58 0 011.53-1 1.48 1.48 0 011.18.49 1.9 1.9 0 01.35 1.25v2.34h-.58v-2.08c0-.79-.34-1.39-1.14-1.39a1.38 1.38 0 00-1.34 1.51v2.05h-.58zM201.98 361.58a5.62 5.62 0 01-.68.05c-.51 0-1.2-.11-1.2-1.38v-2.16h-.81v-.5h.81v-1.48h.54v1.48h1.16v.5h-1.16v2c0 .84.32 1 .73 1a4.48 4.48 0 00.57-.05zM117.5 372.58h-.59v-6.31h.59v3.17a1.68 1.68 0 011.58-.94 2.09 2.09 0 010 4.17 1.68 1.68 0 01-1.57-.94zm3-2a1.51 1.51 0 10-1.51 1.55 1.5 1.5 0 001.53-1.54zM122.38 370.7a1.34 1.34 0 001.39 1.47 1.15 1.15 0 001.19-.74h.58a1.69 1.69 0 01-1.78 1.24 1.93 1.93 0 01-2-2.11 1.9 1.9 0 011.91-2.06 1.79 1.79 0 011.89 1.78 2.34 2.34 0 010 .42zm0-.45h2.64a1.24 1.24 0 00-1.31-1.26 1.28 1.28 0 00-1.32 1.26zM129.64 370.05a1.11 1.11 0 00-1.24-1 1.56 1.56 0 000 3.12 1.14 1.14 0 001.23-.93h.59a1.71 1.71 0 01-1.84 1.46 2.09 2.09 0 010-4.18 1.67 1.67 0 011.82 1.56zM130.91 370.59a2.1 2.1 0 112.09 2.08 2 2 0 01-2.09-2.08zm3.61 0a1.52 1.52 0 10-1.52 1.55 1.51 1.51 0 001.52-1.55zM141.41 372.58v-2.35c0-.85-.39-1.21-.94-1.21-.72 0-1.13.61-1.13 1.53v2h-.57v-2.25c0-1-.42-1.31-.94-1.31-.72 0-1.14.62-1.14 1.53v2h-.58v-4h.58v.92a1.29 1.29 0 011.3-1 1.18 1.18 0 011.25 1 1.39 1.39 0 011.39-1c.85 0 1.36.55 1.36 1.56v2.52zM143.56 370.7a1.34 1.34 0 001.39 1.47 1.17 1.17 0 001.19-.74h.58a1.69 1.69 0 01-1.78 1.24 1.93 1.93 0 01-2-2.11 1.9 1.9 0 011.91-2.06 1.79 1.79 0 011.89 1.78 2.34 2.34 0 010 .42zm0-.45h2.64a1.24 1.24 0 00-1.32-1.26 1.27 1.27 0 00-1.31 1.26zM150.7 371.5c0 .76-.61 1.17-1.51 1.17s-1.7-.45-1.7-1.45h.57c0 .72.5 1 1.13 1s.95-.23.95-.65c0-.58-.66-.62-1.31-.77s-1.19-.36-1.19-1.16.66-1.14 1.44-1.14 1.57.5 1.57 1.32h-.57c0-.55-.37-.85-1-.85s-.9.23-.9.66.45.58 1.2.71 1.32.37 1.32 1.16zM156.13 366.82a1.28 1.28 0 00-.47-.08c-.36 0-.77.08-.77.9v.95h1.24v.5h-1.24v3.49h-.58v-3.49h-.9v-.5h.9v-.89c0-1.36.77-1.48 1.24-1.48a1.25 1.25 0 01.58.1zM156.3 370.59a2.1 2.1 0 112.1 2.08 2 2 0 01-2.1-2.08zm3.61 0a1.51 1.51 0 10-1.51 1.55 1.5 1.5 0 001.51-1.55zM165.05 368.59v4h-.57v-.88a1.59 1.59 0 01-1.52 1 1.52 1.52 0 01-1.2-.5 1.87 1.87 0 01-.34-1.24v-2.34h.57v2.17c0 .78.35 1.38 1.15 1.38a1.38 1.38 0 001.34-1.51v-2zM166.42 368.59h.59v.85a1.57 1.57 0 011.53-1 1.49 1.49 0 011.18.49 1.94 1.94 0 01.35 1.24v2.35h-.59v-2.08c0-.79-.34-1.39-1.14-1.39a1.37 1.37 0 00-1.33 1.51v2.05h-.59zM174.64 371.73a1.68 1.68 0 01-1.57.94 2.09 2.09 0 010-4.17 1.68 1.68 0 011.57.94v-3.17h.59v6.31h-.59zm0-1.14a1.51 1.51 0 10-1.51 1.55 1.5 1.5 0 001.51-1.55zM176.83 370.7a1.33 1.33 0 001.38 1.47 1.15 1.15 0 001.19-.74h.58a1.69 1.69 0 01-1.78 1.24 1.93 1.93 0 01-2-2.11 1.9 1.9 0 011.91-2.06 1.79 1.79 0 011.89 1.78 2.34 2.34 0 010 .42zm0-.45h2.64a1.24 1.24 0 00-1.31-1.26 1.28 1.28 0 00-1.33 1.26zM183.49 369.13a1.22 1.22 0 00-.35-.05c-1 0-1.45.79-1.45 1.72v1.78h-.58v-4h.58v.94a1.5 1.5 0 011.43-1 .82.82 0 01.37.07zM183.8 371.55c.36 0 .69.28.69.94a1 1 0 01-1.19 1.13v-.32a.61.61 0 00.64-.37.87.87 0 000-.39.34.34 0 01-.23.08.52.52 0 01-.53-.53.54.54 0 01.62-.54zM193.09 372.58v-2.35c0-.85-.4-1.21-.95-1.21-.72 0-1.12.61-1.12 1.53v2h-.58v-2.25c0-1-.41-1.31-.93-1.31-.72 0-1.14.62-1.14 1.53v2h-.58v-4h.58v.92a1.29 1.29 0 011.3-1 1.18 1.18 0 011.25 1 1.38 1.38 0 011.39-1c.84 0 1.36.55 1.36 1.56v2.52zM195.24 370.7a1.34 1.34 0 001.39 1.47 1.15 1.15 0 001.18-.74h.59a1.7 1.7 0 01-1.78 1.24 1.94 1.94 0 01-2-2.11 1.9 1.9 0 011.91-2.06 1.79 1.79 0 011.89 1.78 3.49 3.49 0 010 .42zm0-.45h2.64a1.24 1.24 0 00-1.32-1.26 1.26 1.26 0 00-1.31 1.26zM199.52 368.59h.59v.85a1.57 1.57 0 011.53-1 1.48 1.48 0 011.18.49 1.94 1.94 0 01.35 1.24v2.35h-.59v-2.08c0-.79-.34-1.39-1.14-1.39a1.37 1.37 0 00-1.33 1.51v2.05h-.59zM206.58 372.58a5.62 5.62 0 01-.68.05c-.52 0-1.2-.11-1.2-1.39v-2.15h-.81v-.5h.81v-1.48h.57v1.48h1.17v.5h-1.17v2c0 .84.33 1 .73 1a4.65 4.65 0 00.58-.05zM206.93 370.59a2.1 2.1 0 112.1 2.08 2 2 0 01-2.1-2.08zm3.61 0a1.51 1.51 0 10-1.51 1.55 1.5 1.5 0 001.51-1.55zM214.53 369.13a1.32 1.32 0 00-.35-.05c-1 0-1.45.79-1.45 1.72v1.78h-.59v-4h.59v.94a1.48 1.48 0 011.42-1 .89.89 0 01.38.07zM214.83 371.55c.36 0 .69.28.69.94a1 1 0 01-1.19 1.13v-.32a.6.6 0 00.64-.37.87.87 0 000-.39.3.3 0 01-.23.08.52.52 0 01-.53-.53.54.54 0 01.62-.54zM144.72 379.59v4h-.58v-.84a1.68 1.68 0 01-1.58.94 2.09 2.09 0 010-4.17 1.69 1.69 0 011.59.94v-.85zm-.58 2a1.52 1.52 0 10-1.5 1.55 1.5 1.5 0 001.5-1.56zM146.1 379.59h.54v.85a1.59 1.59 0 011.54-1 1.47 1.47 0 011.17.49 1.89 1.89 0 01.36 1.24v2.34h-.59v-2.07c0-.78-.34-1.38-1.14-1.38a1.38 1.38 0 00-1.34 1.51v2h-.58zM154.87 383.89a1.86 1.86 0 01-2.07 2.1 1.82 1.82 0 01-2.07-1.84h.58a1.29 1.29 0 001.47 1.31c.92 0 1.5-.45 1.5-1.57v-1.17a1.67 1.67 0 01-1.57 1 2.09 2.09 0 010-4.17 1.67 1.67 0 011.57.93v-.84h.59zm-3.61-2.32a1.51 1.51 0 101.51-1.55 1.5 1.5 0 00-1.51 1.55zM156.48 381.7a1.34 1.34 0 001.38 1.47 1.15 1.15 0 001.19-.74h.59a1.71 1.71 0 01-1.79 1.24 1.94 1.94 0 01-2-2.11 1.9 1.9 0 011.91-2.06 1.79 1.79 0 011.89 1.78 2.34 2.34 0 010 .42zm0-.45h2.63a1.23 1.23 0 00-1.31-1.26 1.26 1.26 0 00-1.31 1.26zM160.76 377.27h.59v6.3h-.59zM165.28 377.49a.54.54 0 11-.53.54.52.52 0 01.53-.54zm-.29 2.1h.59v4h-.59zM167.05 379.59h.59v.85a1.57 1.57 0 011.53-1 1.49 1.49 0 011.18.49 1.94 1.94 0 01.35 1.24v2.34h-.59v-2.07c0-.78-.34-1.38-1.14-1.38a1.37 1.37 0 00-1.33 1.51v2h-.59zM171.76 379.59l1.41 3.16 1.43-3.16h.63l-1.85 4h-.42l-1.82-4zM176.01 381.7a1.34 1.34 0 001.38 1.47 1.15 1.15 0 001.19-.74h.59a1.71 1.71 0 01-1.79 1.24 1.94 1.94 0 01-2-2.11 1.9 1.9 0 011.91-2.06 1.79 1.79 0 011.89 1.78 2.34 2.34 0 010 .42zm0-.45h2.63a1.23 1.23 0 00-1.31-1.26 1.26 1.26 0 00-1.31 1.26zM183.14 382.5c0 .76-.61 1.17-1.51 1.17s-1.69-.45-1.69-1.45h.57c0 .71.49 1 1.12 1s1-.23 1-.65c0-.58-.66-.62-1.32-.78s-1.2-.35-1.2-1.12.66-1.14 1.44-1.14 1.57.5 1.57 1.32h-.57c0-.55-.37-.85-1-.85s-.9.23-.9.66.45.58 1.21.71 1.28.34 1.28 1.13zM186.35 383.57a4.21 4.21 0 01-.69.06c-.51 0-1.19-.11-1.19-1.39v-2.15h-.83v-.5h.82v-1.48h.57v1.48h1.16v.5h-1.15v2c0 .85.33 1 .73 1a4.83 4.83 0 00.58-.05zM186.7 381.58a2.1 2.1 0 112.09 2.09 2 2 0 01-2.09-2.09zm3.61 0a1.52 1.52 0 10-1.52 1.56 1.5 1.5 0 001.52-1.56zM194.29 380.13a1.22 1.22 0 00-.35-.05c-1 0-1.45.79-1.45 1.72v1.77h-.58v-4h.58v.94a1.5 1.5 0 011.43-1 1 1 0 01.37.06z"></path>
  <path d="M27.7 225.35h1.57a1.51 1.51 0 110 3h-1.12v1.54h-.45zm2.65 1.51a1.06 1.06 0 00-1.08-1.11h-1.12v2.21h1.12a1.06 1.06 0 001.08-1.1zM31.64 225.35h1.57a1.47 1.47 0 011.52 1.51 1.45 1.45 0 01-1.09 1.43l1 1.61h-.5l-1-1.54h-1.05v1.54h-.45zm2.65 1.51a1.06 1.06 0 00-1.08-1.11h-1.12v2.21h1.13a1.06 1.06 0 001.08-1.1zM35.38 227.62a2.34 2.34 0 112.34 2.38 2.31 2.31 0 01-2.34-2.38zm4.23 0a1.89 1.89 0 10-1.89 2 1.89 1.89 0 001.92-2zM42.32 225.35a2.28 2.28 0 110 4.55h-1.33v-4.55zm-.89.4v3.75h.89a1.88 1.88 0 100-3.75zM45.48 225.35h.44v3.09a1.1 1.1 0 102.19 0v-3.12h.44v3.12a1.54 1.54 0 01-3.07 0zM53.85 228.56a2.11 2.11 0 01-2.12 1.44 2.3 2.3 0 01-2.36-2.38 2.28 2.28 0 012.35-2.37 2 2 0 012.13 1.63h-.45a1.6 1.6 0 00-1.67-1.23 1.87 1.87 0 00-1.91 2 1.9 1.9 0 001.93 2 1.64 1.64 0 001.62-1zM55.58 225.75h-1.22v-.4h2.89v.4h-1.23v4.15h-.44zM58.01 225.35h.46v4.55h-.46zM61.1 229.9h-.34l-1.61-4.55h.49l1.32 3.84 1.32-3.84h.46zM63.42 225.35h.45v4.55h-.45zM65.83 225.75h-1.19v-.4h2.89v.4h-1.26v4.15h-.44zM69.21 229.9h-.48l.92-1.8-1.74-2.75h.51l1.45 2.29 1.18-2.29h.48zM38.02 235.44h2.22v.41h-.48a2 2 0 01-2.11 1.8 2.27 2.27 0 01-2.36-2.35 2.3 2.3 0 012.31-2.4 1.81 1.81 0 011.89 1.28h-.45a1.41 1.41 0 00-1.43-.88 1.89 1.89 0 00-1.88 2 1.87 1.87 0 001.93 2 1.52 1.52 0 001.64-1.4h-1.28zM41.08 232.96h1.56a1.51 1.51 0 01.45 2.95l1 1.6h-.45l-1-1.54h-1.12v1.54h-.44zm2.64 1.48a1.06 1.06 0 00-1.08-1.08h-1.12v2.21h1.12a1.05 1.05 0 001.08-1.13zM44.8 235.24a2.34 2.34 0 112.34 2.37 2.31 2.31 0 01-2.34-2.37zm4.23 0a1.89 1.89 0 10-1.89 2 1.9 1.9 0 001.89-2zM52.84 233.71l-1.2 3.8h-.3l-1.54-4.55h.46l1.24 3.81 1.14-3.81h.35l1.15 3.81 1.24-3.81h.47l-1.54 4.55h-.34zM57.52 233.36h-1.23v-.4h2.9v.4h-1.24v4.15h-.43zM62.71 235.44h-2.35v2.06h-.44v-4.55h.44v2.09h2.35v-2.09h.44v4.55h-.44zM265.11 225.35h.44v3.09a1.1 1.1 0 102.19 0v-3.12h.44v3.12a1.54 1.54 0 01-3.07 0zM269.27 225.35h1.57a1.51 1.51 0 110 3h-1.13v1.54h-.44zm2.65 1.51a1.06 1.06 0 00-1.08-1.11h-1.13v2.21h1.13a1.06 1.06 0 001.08-1.1zM273.44 228.49a1.06 1.06 0 001.18 1.1c.62 0 1-.31 1-.87s-.53-.78-1-.92c-.77-.21-1.48-.44-1.48-1.31a1.25 1.25 0 011.4-1.24 1.32 1.32 0 011.44 1.37h-.44a.91.91 0 00-1-1c-.55 0-1 .28-1 .81s.49.74 1 .88c.71.21 1.47.43 1.47 1.34a1.33 1.33 0 01-1.49 1.32 1.48 1.48 0 01-1.61-1.51zM277.49 227.76v2.14h-.45v-4.55h.45v2.14l2.12-2.14h.57l-2.24 2.27 2.24 2.28h-.54zM280.93 225.35h.46v4.55h-.46zM284.64 229.5v.4h-2v-4.55h.44v4.15zM287.41 229.5v.4h-2v-4.55h.45v4.15zM288.25 225.35h.46v4.55h-.46zM292.64 229.14v-3.79h.44v4.55h-.44l-2.29-3.8v3.8h-.45v-4.55h.49zM296.78 227.79h2.23v.41h-.48a2 2 0 01-2.12 1.8 2.28 2.28 0 01-2.36-2.36 2.3 2.3 0 012.32-2.39 1.81 1.81 0 011.89 1.28h-.45a1.41 1.41 0 00-1.43-.88 1.89 1.89 0 00-1.88 2 1.86 1.86 0 001.93 2 1.52 1.52 0 001.64-1.39h-1.29zM264.46 233.71l-1.15 3.8h-.34l-1.54-4.55h.46l1.24 3.81 1.16-3.81h.35l1.16 3.81 1.24-3.81h.46l-1.54 4.55h-.32zM267.82 235.24a2.34 2.34 0 112.34 2.37 2.31 2.31 0 01-2.34-2.37zm4.22 0a1.88 1.88 0 10-1.88 2 1.89 1.89 0 001.88-2zM273.45 232.96h1.56a1.51 1.51 0 01.46 2.95l1 1.6h-.51l-1-1.54h-1.12v1.54h-.44zm2.64 1.51a1.06 1.06 0 00-1.08-1.11h-1.12v2.21h1.12a1.06 1.06 0 001.08-1.13zM277.93 235.37v2.14h-.44v-4.55h.44v2.14l2.13-2.14h.58l-2.24 2.28 2.24 2.27h-.56zM281.79 233.36v1.8h2v.4h-2v1.95h-.44v-4.55h2.48v.4zM284.64 235.24a2.34 2.34 0 112.34 2.37 2.31 2.31 0 01-2.34-2.37zm4.22 0a1.88 1.88 0 10-1.88 2 1.89 1.89 0 001.91-2zM290.3 232.96h1.56a1.51 1.51 0 01.46 2.95l1 1.6h-.51l-1-1.54h-1.07v1.54h-.44zm2.64 1.48a1.06 1.06 0 00-1.08-1.11h-1.12v2.21h1.12a1.06 1.06 0 001.08-1.1zM298.52 236.17a2.13 2.13 0 01-2.13 1.44 2.38 2.38 0 010-4.75 2 2 0 012.14 1.63h-.46a1.61 1.61 0 00-1.67-1.23 1.88 1.88 0 00-1.91 2 1.91 1.91 0 001.93 2 1.66 1.66 0 001.63-1zM299.89 233.36v1.69h2v.4h-2v1.66h2v.4h-2.48v-4.55h2.48v.4zM266.19 164.36h.45v4.56h-.45zM270.64 168.15v-3.79h.44v4.56h-.48l-2.3-3.8v3.8h-.44v-4.56h.49zM275.04 168.15v-3.79h.44v4.56H275l-2.3-3.8v3.8h-.44v-4.56h.49zM276.41 166.64a2.34 2.34 0 112.34 2.37 2.3 2.3 0 01-2.34-2.37zm4.23 0a1.89 1.89 0 10-1.89 2 1.9 1.9 0 001.89-2zM283.27 168.92h-.33l-1.61-4.56h.46l1.32 3.85 1.31-3.85h.46zM287.64 168.92l-.28-.82h-2l-.27.82h-.45l1.57-4.56h.33l1.56 4.56zm-1.27-3.86l-.86 2.64h1.72zM289.14 164.76h-1.23v-.4h2.9v.4h-1.24v4.16h-.43zM291.57 164.36h.45v4.56h-.45zM292.96 166.64a2.34 2.34 0 112.34 2.37 2.3 2.3 0 01-2.34-2.37zm4.23 0a1.89 1.89 0 10-1.89 2 1.9 1.9 0 001.89-2zM301.33 168.15v-3.79h.44v4.56h-.48l-2.3-3.8v3.8h-.44v-4.56h.49z" fill="#2f40ca"></path>
  <path fill="none" stroke="#000" stroke-miterlimit="10" stroke-width=".5" d="M291.85 110.31h42.39v173.13h-42.76"></path>
  <path fill="none" stroke="#000" stroke-miterlimit="10" stroke-width=".5" d="M295.32 113.53l-3.47-3.22 3.47-3.22M107.15 23.78H.25v346.21h107.26"></path>
  <path fill="none" stroke="#000" stroke-miterlimit="10" stroke-width=".5" d="M103.68 27l3.47-3.22-3.47-3.23M199.61 48.13v38.04M196.39 82.7l3.23 3.47 3.22-3.47M199.61 134.67v38.04M196.39 169.24l3.23 3.47 3.22-3.47M199.61 221.21v38.04M196.39 255.78l3.23 3.47 3.22-3.47M134.87 48.13v38.04M131.65 82.7l3.23 3.47 3.22-3.47M134.87 134.67v38.04M131.65 169.24l3.23 3.47 3.22-3.47"></path>
  <path fill="#2f40ca" stroke="#2f40ca" stroke-miterlimit="10" stroke-width=".75" d="M119.96 193.79l-61.09-16.91M63.39 174.53l-4.52 2.35 2.67 4.34M119.96 200.51l-61.09 16.9M63.39 219.77l-4.52-2.36 2.67-4.34M214.53 193.79l61.09-16.91M271.1 174.53l4.52 2.35-2.67 4.34M214.53 200.51l61.09 16.9M271.1 219.77l4.52-2.36-2.67-4.34"></path>
  <path fill="none" stroke="#000" stroke-miterlimit="10" stroke-width=".5" d="M134.87 221.21v38.04M131.65 255.78l3.23 3.47 3.22-3.47M134.87 307.75v38.04M131.65 342.32l3.23 3.47 3.22-3.47"></path>
  <path d="M30.64 167.51a1.38 1.38 0 01-1.42 1.5 1.43 1.43 0 01-1.48-1.51h.44a1 1 0 001 1.11 1 1 0 001-1.1v-3.15h.46zM31.5 166.64a2.34 2.34 0 112.34 2.37 2.3 2.3 0 01-2.34-2.37zm4.23 0a1.89 1.89 0 10-1.89 2 1.9 1.9 0 001.89-2zM37.11 164.36h1.53a1.2 1.2 0 011.31 1.23 1 1 0 01-.78 1 1 1 0 01.81 1 1.23 1.23 0 01-1.34 1.33h-1.53zm1.53 2.08a.84.84 0 100-1.67h-1.09v1.67zm-1.13.39v1.69h1.13a.83.83 0 00.88-.84.85.85 0 00-.86-.85zM46.64 167.58a2.13 2.13 0 01-2.13 1.43 2.3 2.3 0 01-2.35-2.38 2.27 2.27 0 012.34-2.36 2 2 0 012.14 1.62h-.45a1.63 1.63 0 00-1.68-1.23 1.88 1.88 0 00-1.91 2 1.91 1.91 0 001.93 2 1.66 1.66 0 001.63-1zM47.64 164.36h1.57a1.51678113 1.51678113 0 01.45 3l1 1.61h-.51l-1-1.55h-1.08v1.55h-.43zm2.64 1.51a1.06 1.06 0 00-1.07-1.11h-1.14v2.22h1.13a1.06 1.06 0 001.07-1.11zM52.09 164.76v1.68h2v.4h-2v1.66h2v.41h-2.45v-4.56h2.5v.4zM57.89 168.92l-.28-.82h-1.97l-.27.82h-.46l1.57-4.56h.33l1.56 4.56zm-1.25-3.86l-.86 2.64h1.72zM59.35 164.76h-1.23v-.4h2.9v.4h-1.24v4.16h-.43zM61.78 164.36h.45v4.56h-.45zM63.17 166.64a2.34 2.34 0 112.34 2.37 2.3 2.3 0 01-2.34-2.37zm4.23 0a1.89 1.89 0 10-1.89 2 1.9 1.9 0 001.89-2zM71.54 168.15v-3.79h.44v4.56h-.48l-2.3-3.8v3.8h-.44v-4.56h.49z" fill="#2f40ca"></path>
  <path d="M107.51 173.08h119.46v48.14H107.51z"></path>
  <path d="M128.5 197.54a1.48 1.48 0 001.64 1.53c.86 0 1.45-.44 1.45-1.22s-.73-1.08-1.41-1.26c-1.07-.3-2-.62-2-1.81a1.73 1.73 0 011.95-1.72 1.82 1.82 0 012 1.89h-.61a1.24 1.24 0 00-1.37-1.34c-.78 0-1.35.39-1.35 1.12s.69 1 1.42 1.22c1 .28 2 .6 2 1.86a1.84 1.84 0 01-2.07 1.82 2 2 0 01-2.23-2.09zM135.37 199.49a4.11 4.11 0 01-.69.06c-.51 0-1.19-.11-1.19-1.39v-2.15h-.85v-.51h.81v-1.47h.57v1.47h1.16v.51h-1.16v2c0 .85.33 1 .73 1a4.83 4.83 0 00.58-.05zM139.92 195.5v4h-.58v-.84a1.68 1.68 0 01-1.58.94 2.09 2.09 0 010-4.18 1.7 1.7 0 011.59.95v-.86zm-.58 2a1.52 1.52 0 10-1.52 1.56 1.5 1.5 0 001.52-1.56zM143.64 196.04a1.63 1.63 0 00-.35 0c-1 0-1.45.79-1.45 1.72v1.77h-.58v-4h.58v.91a1.5 1.5 0 011.43-1 1 1 0 01.37.06z" fill="#fff"></path>
  <path d="M146.29 199.49a4 4 0 01-.68.06c-.51 0-1.2-.11-1.2-1.39v-2.15h-.77v-.51h.81v-1.47h.58v1.47h1.16v.51h-1.16v2c0 .85.32 1 .73 1a4.48 4.48 0 00.57-.05zM150.42 195.5v4h-.57v-.87a1.59 1.59 0 01-1.52 1 1.52 1.52 0 01-1.2-.5 2 2 0 01-.34-1.24v-2.35h.57v2.17c0 .79.35 1.39 1.15 1.39a1.38 1.38 0 001.34-1.51v-2.05zM152.38 196.35a1.68 1.68 0 011.57-.94 2.09 2.09 0 010 4.18 1.67 1.67 0 01-1.57-1v3.18h-.59v-6.32h.59zm0 1.14a1.51 1.51 0 101.51-1.55 1.5 1.5 0 00-1.51 1.55zM159.57 193.44a.54.54 0 11-.53.54.52.52 0 01.53-.54zm-.29 2.09h.59v4h-.59zM164.19 198.44c0 .76-.62 1.17-1.52 1.17s-1.69-.45-1.69-1.45h.57c0 .71.49 1 1.12 1s1-.23 1-.65c0-.58-.66-.62-1.32-.78s-1.19-.35-1.19-1.12.65-1.15 1.44-1.15a1.38 1.38 0 011.56 1.33h-.57c0-.55-.36-.85-1-.85s-.9.23-.9.66.45.57 1.21.71 1.29.32 1.29 1.13zM170.29 198.44c0 .76-.61 1.17-1.52 1.17s-1.69-.45-1.69-1.45h.56c0 .71.49 1 1.12 1s1-.23 1-.65c0-.58-.66-.62-1.32-.78s-1.19-.35-1.19-1.12.63-1.17 1.39-1.17 1.56.51 1.56 1.33h-.56c0-.55-.37-.85-1-.85s-.9.23-.9.66.45.57 1.2.71 1.35.34 1.35 1.15zM174.91 195.5v4h-.57v-.87a1.59 1.59 0 01-1.52 1 1.52 1.52 0 01-1.2-.5 1.89 1.89 0 01-.34-1.24v-2.35h.57v2.17c0 .79.34 1.39 1.15 1.39a1.38 1.38 0 001.34-1.51v-2.05zM179.22 196.96a1.11 1.11 0 00-1.24-1 1.41 1.41 0 00-1.45 1.55 1.43 1.43 0 001.47 1.57 1.13 1.13 0 001.23-.93h.59a1.71 1.71 0 01-1.84 1.46 2.09 2.09 0 010-4.18 1.67 1.67 0 011.82 1.55zM183.82 196.96a1.11 1.11 0 00-1.24-1 1.41 1.41 0 00-1.45 1.55 1.43 1.43 0 001.47 1.57 1.14 1.14 0 001.23-.93h.59a1.71 1.71 0 01-1.84 1.46 2.09 2.09 0 010-4.18 1.67 1.67 0 011.82 1.55zM185.73 197.62a1.34 1.34 0 001.39 1.47 1.15 1.15 0 001.18-.74h.59a1.7 1.7 0 01-1.78 1.24 1.94 1.94 0 01-2-2.11 1.9 1.9 0 011.91-2.07 1.79 1.79 0 011.89 1.79 3.49 3.49 0 010 .42zm0-.45h2.64a1.23 1.23 0 00-1.32-1.26 1.26 1.26 0 00-1.31 1.26zM192.88 198.44c0 .76-.62 1.17-1.52 1.17s-1.72-.47-1.72-1.47h.57c0 .71.49 1 1.12 1s1-.23 1-.65c0-.58-.66-.62-1.32-.78s-1.19-.35-1.19-1.12.65-1.15 1.44-1.15a1.38 1.38 0 011.56 1.33h-.56c0-.55-.37-.85-1-.85s-.9.23-.9.66.45.57 1.21.71 1.31.34 1.31 1.15zM196.8 198.44c0 .76-.61 1.17-1.51 1.17s-1.65-.47-1.65-1.47h.56c0 .71.5 1 1.13 1s.95-.23.95-.65c0-.58-.65-.62-1.31-.78s-1.2-.35-1.2-1.12.66-1.15 1.44-1.15 1.57.51 1.57 1.33h-.57c0-.55-.37-.85-1-.85s-.9.23-.9.66.45.57 1.21.71 1.28.34 1.28 1.15zM200.07 193.74a1.34 1.34 0 00-.48-.08c-.36 0-.77.08-.77.9v.94h1.25v.51h-1.25v3.48h-.58v-3.48h-.9v-.51h.9v-.89c0-1.36.77-1.47 1.24-1.47a1.33 1.33 0 01.59.1zM204.32 195.5v4h-.58v-.87a1.59 1.59 0 01-1.52 1 1.52 1.52 0 01-1.2-.5 2 2 0 01-.34-1.24v-2.35h.57v2.17c0 .79.35 1.39 1.15 1.39a1.38 1.38 0 001.34-1.51v-2.05zM205.64 193.19h.59v6.3h-.59z" fill="#fff"></path>
</svg>
