<?xml version="1.0" encoding="UTF-8"?>
<svg preserveAspectRatio="xMidYMid slice" xmlns="http://www.w3.org/2000/svg" width="480px" height="480px" viewBox="0 0 1000 1000" fill="none">
  <path d="M376.211 419.986C378.769 416.528 380.053 412.289 379.843 407.989C380.069 403.697 378.692 399.475 375.981 396.145C374.562 394.633 372.827 393.454 370.9 392.692C368.973 391.931 366.901 391.606 364.834 391.741H345.729V424.543H365.142C367.213 424.701 369.293 424.371 371.215 423.58C373.137 422.788 374.848 421.558 376.211 419.986V419.986ZM571.073 409.663C571.073 403.282 569.813 398.7 567.287 395.918C564.757 393.136 560.816 391.743 555.456 391.741H538.623V429.098H555.456C565.874 429.098 571.081 422.621 571.079 409.663H571.073V409.663ZM739.572 440.184L729.109 391.133H721.842L711.379 440.184H739.572V440.184ZM473.812 452.716C476.797 447.398 478.288 438.489 478.285 425.986C478.285 413.484 476.771 404.398 473.742 398.727C470.714 393.055 465.154 390.222 457.062 390.222C448.968 390.225 443.408 393.061 440.379 398.727C437.351 404.396 435.836 413.481 435.836 425.986C435.836 438.492 437.327 447.398 440.31 452.713C443.293 458.029 448.879 460.685 457.07 460.688C465.255 460.688 470.839 458.029 473.817 452.713H473.812V452.716ZM782.349 477.089V373.821H817.683L842.554 458.859H844.071V373.826H865V477.089H830.579L804.795 392.048H803.281V477.089H782.349V477.089ZM682.401 477.089L705.603 373.821H745.335L768.537 477.084H747.616L743.527 458.406H707.424L703.338 477.086H682.401V477.089ZM606.998 477.089V373.821H673.724V392.043H627.932V416.191H664.631V434.108H627.932V458.864H673.729V477.086H606.998V477.089ZM517.694 477.089V373.821H555.611C580.076 373.821 592.31 385.766 592.312 409.66C592.312 421.707 589.204 430.943 582.987 437.372C576.767 443.804 567.642 447.018 555.611 447.018H538.629V477.086H517.694V477.089ZM324.8 477.089V373.821H364.832C389.099 373.821 401.231 385.159 401.231 407.834C401.231 421.3 396.176 431.222 386.063 437.603L400.777 477.086H377.877L365.903 442.46H345.732V477.084H324.8V477.089ZM141.6 477.089V373.821H208.329V392.043H162.537V416.191H199.239V434.108H162.535V458.864H208.329V477.086H141.6V477.089ZM423.92 466.078C417.5 457.523 414.29 444.131 414.29 425.912C414.29 407.687 417.5 394.145 423.918 385.284C430.341 376.429 441.389 372 457.059 372C472.728 372 483.773 376.429 490.193 385.284C496.613 394.148 499.823 407.687 499.823 425.909C499.823 444.131 496.613 457.52 490.193 466.078C483.776 474.633 472.73 478.91 457.059 478.907C441.389 478.907 430.343 474.631 423.926 466.081H423.92V466.078ZM234.506 470.028C227.985 464.105 224.724 454.815 224.724 442.16V373.821H245.669V442.613C245.669 454.663 251.785 460.685 264.018 460.685C276.252 460.685 282.368 454.66 282.368 442.613V373.824H303.297V442.16C303.297 454.818 300.036 464.107 293.515 470.028C286.996 475.951 277.163 478.91 264.018 478.91C250.877 478.91 241.044 475.951 234.522 470.03L234.506 470.028V470.028ZM446.561 569.081C449.121 565.622 450.404 561.381 450.193 557.079C450.42 552.788 449.044 548.567 446.334 545.238C444.915 543.726 443.18 542.546 441.253 541.784C439.326 541.023 437.255 540.697 435.188 540.831H416.08V573.647H435.489C437.562 573.804 439.642 573.472 441.564 572.679C443.486 571.886 445.197 570.653 446.559 569.078H446.561V569.081ZM721.474 558.75C721.474 552.372 720.21 547.79 717.684 545.008C715.158 542.226 711.213 540.833 705.856 540.831H689.024V578.194H705.856C716.269 578.194 721.474 571.713 721.474 558.753V558.75ZM352.376 589.277L341.91 540.225H334.63L324.17 589.274H352.374L352.376 589.277ZM668.095 626.179V522.911H706.008C730.471 522.911 742.705 534.857 742.707 558.75C742.707 570.8 739.599 580.038 733.382 586.468C727.162 592.897 718.037 596.11 706.008 596.108H689.024V626.179H668.095V626.179ZM507.541 626.179V541.441H479.941V522.911H555.768V541.441H528.47V626.179H507.541V626.179ZM395.153 626.179V522.911H435.188C459.452 522.911 471.585 534.251 471.585 556.929C471.585 570.393 466.527 580.314 456.416 586.693L471.128 626.179H448.231L436.25 591.553H416.08V626.179H395.153V626.179ZM295.202 626.179L318.404 522.916H358.15L381.347 626.179H360.417L356.331 607.502H320.226L316.134 626.179H295.202V626.179ZM242.443 626.179V541.441H214.845V522.911H290.67V541.441H263.372V626.179H242.443V626.179ZM758.458 624.358L753.008 623.295L755.131 607.049C765.428 608.6 775.811 609.513 786.219 609.78C796.935 609.78 802.295 605.325 802.295 596.413C802.352 594.938 802.042 593.471 801.394 592.146C800.746 590.82 799.779 589.677 798.581 588.819C793.979 586.108 788.993 584.114 783.794 582.906C772.067 579.573 763.802 575.596 758.998 570.985C754.196 566.374 751.795 559.969 751.795 551.775C751.795 541.446 754.928 533.753 761.198 528.692C767.466 523.626 776.06 521.095 786.98 521.098C796.551 521.312 806.087 522.327 815.49 524.135L820.938 525.198L819.272 541.754C805.017 540.132 794.957 539.323 789.095 539.323C778.073 539.323 772.561 542.965 772.561 550.256C772.507 551.752 772.859 553.234 773.579 554.545C774.299 555.856 775.36 556.947 776.65 557.701C782.789 560.796 789.214 563.287 795.833 565.139C805.893 568.379 812.945 572.048 816.989 576.15C821.032 580.247 823.056 586.548 823.056 595.055C823.056 605.89 819.769 614.089 813.197 619.659C806.627 625.226 798.036 628.005 787.426 628C777.672 627.775 767.966 626.555 758.458 624.358V624.358ZM577.814 619.131C571.292 613.208 568.032 603.922 568.032 591.264V522.911H588.961V591.708C588.961 603.753 595.076 609.778 607.313 609.778C619.544 609.778 625.659 603.753 625.659 591.708V522.911H646.589V591.248C646.589 603.908 643.328 613.197 636.809 619.115C630.285 625.036 620.455 627.997 607.313 628C594.168 628 584.335 625.038 577.816 619.115L577.814 619.131V619.131ZM142.66 624.358L137.212 623.295L139.338 607.049C149.636 608.6 160.019 609.513 170.426 609.78C181.143 609.78 186.503 605.325 186.503 596.413C186.562 594.937 186.254 593.47 185.605 592.144C184.957 590.818 183.988 589.675 182.788 588.819C178.187 586.107 173.201 584.114 168.001 582.906C156.272 579.573 148.007 575.596 143.205 570.982C138.401 566.371 136 559.969 136 551.775C136 541.446 139.135 533.753 145.4 528.692C151.671 523.626 160.265 521.095 171.185 521.098C180.756 521.312 190.292 522.327 199.695 524.135L205.143 525.198L203.477 541.754C189.221 540.121 179.167 539.304 173.31 539.312C162.289 539.312 156.78 542.957 156.78 550.248C156.726 551.743 157.078 553.224 157.798 554.534C158.517 555.844 159.577 556.933 160.866 557.687C167.006 560.784 173.431 563.277 180.051 565.131C190.111 568.371 197.161 572.04 201.204 576.137C205.25 580.237 207.272 586.54 207.272 595.05C207.272 605.879 203.987 614.081 197.417 619.651C190.843 625.215 182.249 628 171.631 628C161.878 627.775 152.174 626.555 142.668 624.358H142.663H142.66Z" fill="black"></path>
</svg>
