<?xml version="1.0" encoding="UTF-8"?>
<!-- Generator: Adobe Illustrator 24.2.0, SVG Export Plug-In . SVG Version: 6.00 Build 0)  -->
<svg preserveAspectRatio="xMidYMid slice" width="425px" height="141px" xmlns="http://www.w3.org/2000/svg" xmlns:xlink="http://www.w3.org/1999/xlink" version="1.1" id="Capa_1" x="0px" y="0px" viewBox="0 0 425.2 141.7" style="enable-background:new 0 0 425.2 141.7;" xml:space="preserve">
<path d="M58.7,39.1c5.4,0,10.3,2.2,13.8,5.7l0,0c7.6,7.6,20,7.6,27.7,0c7.6-7.6,7.6-20,0-27.7C89.6,6.6,74.9,0,58.7,0  C26.3,0,0,26.3,0,58.7c0,16.2,6.6,30.9,17.2,41.5l41.5,41.5l41.5-41.5c7.6-7.6,7.6-20,0-27.7c-7.6-7.6-20-7.6-27.7,0L58.7,86.4  L44.9,72.5l0,0c-3.5-3.5-5.7-8.4-5.7-13.8C39.1,47.9,47.9,39.1,58.7,39.1z M38,79.5l20.8,20.8l20.8-20.8c3.8-3.8,10-3.8,13.8,0  s3.8,10,0,13.8l-34.6,34.6L24.1,93.3C15.3,84.4,9.8,72.2,9.8,58.7c0-27,21.9-48.9,48.9-48.9c13.5,0,25.7,5.5,34.6,14.3l0,0  c3.8,3.8,3.8,10,0,13.8s-10,3.8-13.8,0l0,0c-5.3-5.3-12.7-8.6-20.8-8.6c-16.2,0-29.4,13.1-29.4,29.4C29.4,66.8,32.6,74.2,38,79.5z   M231.6,36.2c-4.4-4.3-10.4-6.9-17.2-6.9c-15.7,0.1-27.8,12.3-27.8,29.4l0,0c0,17.1,12,29.3,27.8,29.4c6.8,0,12.8-2.6,17.2-6.9v5.4  H242V30.8l-10.4,0.9V36.2z M214.4,78.2c-9.3-0.1-17.1-7.6-17.1-19.6S205,39.1,214.4,39c9.3,0.1,17.1,7.6,17.1,19.6  C231.4,70.6,223.7,78.2,214.4,78.2z M158.8,39.1c6.1,0.1,11.6,3.6,14.6,9.1l9-5.5c-4.8-8.2-13.4-13.4-23.6-13.4  C143,29.4,131,41.6,131,58.7l0,0c0,17.1,12,29.3,27.8,29.4c10.2,0,18.8-5.2,23.6-13.4l-9-5.5c-3,5.5-8.5,9.1-14.6,9.1  c-9.3-0.1-17.1-7.6-17.1-19.6S149.5,39.2,158.8,39.1z M280.4,29.3c-6.8,0-12.8,2.6-17.2,6.9V9.8l-10.4,0.9v75.9h10.4v-5.4  c4.4,4.3,10.4,6.9,17.2,6.9c15.7-0.1,27.8-12.3,27.8-29.4l0,0C308.2,41.6,296.1,29.4,280.4,29.3z M280.4,78.2  c-9.3-0.1-17.1-7.6-17.1-19.6S271,39.1,280.4,39c9.3,0.1,17.1,7.6,17.1,19.6S289.7,78.2,280.4,78.2z M413.3,30.8l-16,36.7  l-17.1-36.7H358V26c0-5.7,2.7-8.1,8.2-8.1c1.7,0,3.7,0.3,5.7,0.8l2.5-8.7c-3.3-1.1-6.9-1.7-10.9-1.7c-10.8,0-16.6,6.9-16.6,17v5.6  l-9.5,0.8v8.8h9.5v46.1H358V40.4h14.5L391.8,80c-1.6,3.5-3.6,7.4-6.7,9.8c-2.8,2.2-6.3,2.4-9.7,1.7l-2.6,9c5,1.8,11.3,1.6,16-0.9  c5.1-2.8,8.5-8,10.8-13.2l25.5-55.7L413.3,30.8L413.3,30.8z M322.8,8.2c-4.2,0-7.6,3.3-7.6,7.6c0,4.2,3.4,7.5,7.6,7.5  s7.6-3.3,7.6-7.5C330.3,11.6,327,8.2,322.8,8.2z M317.3,86.5h11.1V30.8l-11.1,1V86.5z"></path>
</svg>
