<?xml version="1.0" encoding="UTF-8"?>
<!-- Generator: Adobe Illustrator 24.2.0, SVG Export Plug-In . SVG Version: 6.00 Build 0)  -->
<svg preserveAspectRatio="xMidYMid slice" width="480px" height="98px" xmlns="http://www.w3.org/2000/svg" xmlns:xlink="http://www.w3.org/1999/xlink" version="1.1" id="Layer_1" x="0px" y="0px" viewBox="0 0 611 125" style="enable-background:new 0 0 611 125;" xml:space="preserve">
<path d="M22.1,26.5h15.7V38H22.1v45.4h12.8v12.2H10V38H0V26.5h10V10.4h11.9v16.1H22.1L22.1,26.5z M105.1,59.5v5.4h-47  c0.5,12,7.1,21.2,17.8,21.2c8.2,0,13-3.4,18.5-12.7l9.3,6.6c-5.7,11.5-15.3,17.3-27.6,17.3c-18,0-30.1-14.7-30.1-36.4  s12.1-36.4,29.9-36.4S105.1,38.5,105.1,59.5L105.1,59.5z M93.5,55.1c-0.5-11-7.1-19-17.3-19c-9.8,0-17.3,8.8-17.6,19H93.5z   M145.5,36.3c8.9,0,15.3,5.6,16.9,15.9l11.4-2.4c-2.3-15.4-13.5-25.2-28.3-25.2c-17.8,0-30.3,14.7-30.3,36.4s12.3,36.4,30.3,36.4  c15.1,0,26-9.8,28.3-25.2l-11.4-2.4c-1.6,10.3-7.8,15.9-16.9,15.9c-11.2,0-18.5-9.5-18.5-24.7C127.3,45.8,134.5,36.3,145.5,36.3  L145.5,36.3z M197.5,0.4h-11.9v95h11.9V39.2h30.1v56.2h11.9V26.5h-42V0.4z M255,95.4h11.9v-95H255L255,95.4L255,95.4z M339.3,59.5  v5.4h-47c0.5,12,7.1,21.2,17.8,21.2c8.2,0,13-3.4,18.5-12.7L338,80c-5.7,11.5-15.3,17.3-27.6,17.3c-18,0-30.1-14.7-30.1-36.4  s12.1-36.4,29.9-36.4S339.3,38.5,339.3,59.5L339.3,59.5z M327.7,55.1c-0.5-11-7.1-19-17.3-19c-9.8,0-17.3,8.8-17.6,19H327.7z   M396.6,26.5H408v69.1h-11.4V90h-0.2c-3.9,4.6-10.3,7.6-17.8,7.6c-16.9,0-29-14.7-29-36.4c0-22,12.3-36.4,29-36.4  c7.5,0,13.9,2.9,17.8,7.6h0.2V26.5L396.6,26.5z M395.9,52.1c0-8.8-6.8-15.9-16.2-15.9c-11.2,0-18.2,8.8-18.2,24.7  c0,15.6,7.1,24.7,18.2,24.7c9.6,0,16.2-7.1,16.2-15.9V52.1L395.9,52.1z M481.9,60.9c0,21.5-12.1,36.4-28.7,36.4  c-7.5,0-14.4-3.4-18.2-8.3h-0.2v35.7h-11.9V26.5h11.6v6.3h0.2c4.1-4.9,10.7-8.3,18.5-8.3C469.8,24.5,481.9,39.4,481.9,60.9z   M470,60.9c0-15.1-7.1-24.7-18-24.7c-9.8,0-17.3,8.1-17.3,18.6V67c0,10.5,7.5,18.6,17.1,18.6C462.7,85.6,470,76.1,470,60.9z   M496.2,95.4h16V78.8h-16V95.4z M530.2,95.4h11.9V39.2h30.1v56.2H584V26.5h-53.8V95.4L530.2,95.4z M598.2,0.4v95H610v-95H598.2z"></path>
</svg>
