<?xml version="1.0" encoding="UTF-8"?>
<svg preserveAspectRatio="xMidYMid slice" xmlns="http://www.w3.org/2000/svg" width="576px" height="576px" viewBox="0 0 1000 1000" fill="none">
  <path d="M381.912 408.854V533.57C381.912 544.595 382.15 551.273 382.706 557.715H382.19C379.493 550.364 376.28 543.923 371.52 535.546L297.462 408.854H263.626V591.146H290.005V466.43C290.005 455.405 289.727 448.727 289.251 442.285H289.767C292.464 449.636 295.677 456.077 300.437 464.454L374.455 591.146H407.934V408.854H381.912V408.854ZM682.625 469.868C660.809 469.868 645.22 479.906 637.366 494.803C637.366 459.633 649.662 429.008 678.897 429.008C697.461 429.008 704.839 439.677 708.805 457.104L735.858 451.69C729.511 421.539 710.273 406.878 679.095 406.878C639.944 406.878 610.63 436.832 610.63 503.971C610.63 563.563 635.065 593.043 677.151 593.043C711.939 593.043 738 569.372 738 530.408C738 499.941 721.697 469.868 682.625 469.868V469.868ZM677.231 571.032C655.652 571.032 640.698 551.273 638.119 525.034C644.664 502.667 659.222 491.524 676.398 491.524C698.492 491.524 710.947 507.765 710.947 530.883C710.947 555.699 696.747 571.032 677.231 571.032ZM490.996 567.515C504.76 558.031 524.514 542.263 533.28 533.53C543.237 523.611 571.598 498.083 571.598 461.728C571.598 424.108 547.005 406.918 513.764 406.918C473.463 406.918 453.55 431.655 453.55 459.95C453.55 464.81 454.145 469.631 455.335 474.334L482.943 476.981C481.793 471.844 481.158 466.588 481.158 461.333C481.158 440.151 495.24 429.996 512.852 429.996C530.028 429.996 542.721 439.598 542.721 462.637C542.721 486.07 531.218 502.035 513.685 519.502C495.399 537.758 466.125 559.532 452.003 569.57V591.146H573.661V567.515H490.996V567.515ZM262 638.369H409.56V662H262V638.369ZM262 338H409.56V361.631H262V338Z" fill="#282828"></path>
</svg>
