<?xml version="1.0" encoding="UTF-8"?>
<!-- Generator: Adobe Illustrator 24.2.0, SVG Export Plug-In . SVG Version: 6.00 Build 0)  -->
<svg preserveAspectRatio="xMidYMid slice" width="576px" height="226px" xmlns="http://www.w3.org/2000/svg" xmlns:xlink="http://www.w3.org/1999/xlink" version="1.1" id="taxfix_wordmark" x="0px" y="0px" viewBox="0 0 869.1 342.4" style="enable-background:new 0 0 869.1 342.4;" xml:space="preserve">
<path id="Fill-1-Copy" d="M161.9,167.7h-26.4v50.4c0,11.1,6,14.1,15,14.1c4.4,0,8.4-0.8,10.9-1.4V265c-1.6,0.8-8.4,3.8-21.5,3.8  c-28,0-45.2-16.5-45.2-43.4v-57.8H70.8v-36.1h6.8c14.1,0,21-9.5,21-22V92.3h37v39.3h26.4V167.7z"></path>
<path id="Fill-4-Copy" d="M249.6,235c16.6,0,30.7-13,30.7-35.8c0-23.3-13.9-35.5-30.7-35.5c-16.6,0-29.9,12.2-29.9,35.5  C219.7,221.5,233.5,235,249.6,235L249.6,235z M280.6,249.4c-6,13-19.6,21.1-36.5,21.1c-38.6,0-66.1-30.1-66.1-71.6  c0-40.1,25.8-71,64.8-71c24.2,0,34.8,13.3,37.5,19.5V132h40l0.3,134.8h-40.3l0.3-16V249.4z"></path>
<polygon id="Fill-6-Copy" points="368.6,269.2 340.3,244.5 438.8,130.7 467.9,155.3 "></polygon>
<path id="Path" d="M364.5,132.6c13.6,0,24.5,10.6,24.5,24.1c0,13.3-10.9,24.1-24.5,24.1c-13.1,0-23.9-10.8-23.9-24.1  C340.6,143.1,351.4,132.6,364.5,132.6L364.5,132.6z"></path>
<path id="Fill-8-Copy" d="M502,268.8V168.8h-21.5v-34.7H502v-11.7c0-30.9,18.8-52.1,51.7-52.1c8.4,0,15.8,1.1,19.6,3V107  c-2.2-0.5-5.7-1.4-12.2-1.4c-7.3,0-17.7,3.3-17.7,18.2v10.3h29.4v34.7h-29.4v100.1H502z"></path>
<path id="Fill-10-Copy" d="M596.8,267.7h41.4V133h-41.4V267.7z M617.2,67.6c13.6,0,24.5,10.8,24.5,24.1c0,13.3-10.9,24.1-24.5,24.1  c-13.1,0-23.9-10.8-23.9-24.1C593.3,78.5,604.2,67.6,617.2,67.6L617.2,67.6z"></path>
<polygon id="Fill-12-Copy" points="727.6,227.5 683.5,271.4 656.5,244.5 700.6,200.6 657.6,158 684.6,131.5 727.3,174 770.8,130.7   797.8,157.5 754.2,200.9 798.3,244.5 771.4,271.4 "></polygon>
<path id="Path_1_" d="M468.2,242.9c0,13.3-10.9,24.1-24.5,24.1c-13.1,0-23.9-10.8-23.9-24.1c0-13.6,10.9-24.1,23.9-24.1  C457.3,218.8,468.2,229.4,468.2,242.9z"></path>
</svg>
