<?xml version="1.0" encoding="UTF-8"?>
<svg xmlns="http://www.w3.org/2000/svg" width="1000" height="240" viewBox="0 0 1000 240" fill="none">
  <path d="M837.39 30.912L812.317 209.544C812.263 209.967 812.124 210.375 811.907 210.745C811.691 211.114 811.401 211.437 811.055 211.694C810.71 211.951 810.315 212.138 809.895 212.243C809.475 212.347 809.038 212.368 808.61 212.304H778.415C776.098 212.304 774.707 210.912 775.171 209.088L800.244 30.456C800.298 30.0329 800.437 29.6247 800.654 29.2554C800.87 28.8861 801.16 28.5633 801.506 28.3061C801.851 28.0488 802.246 27.8623 802.666 27.7575C803.086 27.6527 803.523 27.6318 803.951 27.696H834.146C836.439 27.696 837.854 29.088 837.39 30.912ZM763.098 30.912L753.805 98.4C753.341 100.248 754.756 101.64 757.073 101.64H777.488C779.805 101.64 781.22 103.008 780.756 104.856L776.098 135.792C776.044 136.215 775.905 136.623 775.688 136.993C775.471 137.362 775.181 137.685 774.836 137.942C774.49 138.199 774.096 138.386 773.676 138.491C773.256 138.595 772.819 138.616 772.39 138.552H751.073C750.643 138.488 750.204 138.51 749.783 138.616C749.361 138.722 748.966 138.911 748.62 139.171C748.274 139.43 747.985 139.756 747.769 140.128C747.554 140.5 747.417 140.911 747.366 141.336L738.073 209.64C738.019 210.063 737.88 210.471 737.663 210.841C737.447 211.21 737.157 211.533 736.812 211.79C736.466 212.047 736.071 212.234 735.651 212.339C735.231 212.443 734.794 212.464 734.366 212.4H704.146C701.707 212.4 700.415 211.008 700.878 209.184L725.951 30.456C726.005 30.0305 726.145 29.62 726.363 29.249C726.581 28.8779 726.873 28.5539 727.222 28.2963C727.57 28.0387 727.967 27.8528 728.39 27.7497C728.813 27.6465 729.253 27.6283 729.683 27.696H759.854C762.171 27.696 763.561 29.088 763.098 30.912ZM698.098 30.912L693.927 61.848C693.873 62.2711 693.734 62.6794 693.517 63.0486C693.3 63.4179 693.011 63.7407 692.665 63.9979C692.32 64.2552 691.925 64.4417 691.505 64.5465C691.085 64.6513 690.648 64.6722 690.22 64.608H632.171C629.854 64.608 628.463 63.24 628.927 61.392L633.098 30.456C633.151 30.0329 633.291 29.6247 633.507 29.2554C633.724 28.8861 634.014 28.5633 634.359 28.3061C634.705 28.0488 635.099 27.8623 635.519 27.7575C635.939 27.6527 636.376 27.6318 636.805 27.696H694.976C697.171 27.696 698.561 29.088 698.098 30.912ZM623.341 33.6L614.488 98.4C614.024 100.248 615.415 101.64 617.732 101.64H640.488C643.268 101.64 644.195 103.488 641.878 105.792L605.707 137.088C604.522 138.01 603.047 138.494 601.537 138.456H575.073C572.634 138.456 571.341 137.088 571.805 135.24L581.561 66.912C581.656 66.1719 581.912 65.4608 582.312 64.827C582.712 64.1933 583.246 63.652 583.878 63.24L619.634 31.848C621.951 29.544 623.805 30.912 623.341 33.6ZM687.878 104.664L678.122 172.992C678.013 173.746 677.738 174.467 677.317 175.105C676.896 175.743 676.338 176.284 675.683 176.688L640.073 208.152C637.634 210.552 635.878 209.088 636.341 206.304L650.756 104.304C650.81 103.881 650.949 103.473 651.166 103.103C651.383 102.734 651.672 102.411 652.018 102.154C652.363 101.897 652.758 101.71 653.178 101.605C653.598 101.501 654.035 101.48 654.463 101.544H684.634C686.951 101.544 688.341 102.912 687.878 104.76V104.664ZM558.829 30.912L533.756 209.544C533.703 209.969 533.563 210.38 533.344 210.751C533.126 211.122 532.834 211.446 532.486 211.704C532.138 211.961 531.74 212.147 531.317 212.25C530.894 212.353 530.455 212.372 530.024 212.304H499.854C497.537 212.304 496.146 210.912 496.61 209.088L521.805 30.456C521.859 30.0329 521.998 29.6247 522.215 29.2554C522.431 28.8861 522.721 28.5633 523.067 28.3061C523.412 28.0488 523.807 27.8623 524.227 27.7575C524.647 27.6527 525.084 27.6318 525.512 27.696H555.683C557.878 27.696 559.293 29.088 558.829 30.912ZM630.78 178.608L626.683 209.544C626.629 209.969 626.489 210.38 626.271 210.751C626.053 211.122 625.761 211.446 625.413 211.704C625.064 211.961 624.667 212.147 624.244 212.25C623.821 212.353 623.381 212.372 622.951 212.304H564.854C562.415 212.304 561.146 210.912 561.61 209.088L565.707 178.152C565.761 177.729 565.9 177.321 566.117 176.951C566.334 176.582 566.623 176.259 566.969 176.002C567.315 175.745 567.709 175.558 568.129 175.453C568.549 175.349 568.986 175.328 569.415 175.392H627.463C629.854 175.392 631.244 176.784 630.78 178.608ZM484.439 30.912L464.463 172.152C464 174 465.39 175.392 467.732 175.392H490.463C493.268 175.392 494.195 177.24 491.854 179.544L456.22 210.912C455.033 211.851 453.546 212.345 452.024 212.304H425.561C423.122 212.304 421.854 210.912 422.317 209.088L447.39 30.456C447.444 30.0352 447.583 29.6292 447.798 29.2618C448.013 28.8943 448.3 28.5727 448.643 28.3157C448.986 28.0588 449.378 27.8716 449.795 27.7652C450.212 27.6588 450.647 27.6353 451.073 27.696H481.268C483.61 27.696 485 29.088 484.537 30.912H484.439ZM298.732 30.912L294.634 61.848C294.58 62.2711 294.441 62.6794 294.224 63.0486C294.008 63.4179 293.718 63.7407 293.372 63.9979C293.027 64.2552 292.632 64.4417 292.212 64.5465C291.792 64.6513 291.355 64.6722 290.927 64.608H232.902C230.463 64.608 229.171 63.24 229.634 61.392L233.829 30.456C233.883 30.0329 234.022 29.6247 234.239 29.2554C234.456 28.8861 234.745 28.5633 235.091 28.3061C235.437 28.0488 235.831 27.8623 236.251 27.7575C236.671 27.6527 237.108 27.6318 237.537 27.696H295.561C297.902 27.696 299.293 29.088 298.829 30.912H298.732ZM363.732 30.912L338.878 209.544C338.825 209.969 338.685 210.38 338.466 210.751C338.248 211.122 337.956 211.446 337.608 211.704C337.259 211.961 336.862 212.147 336.439 212.25C336.016 212.353 335.577 212.372 335.146 212.304H304.854C302.415 212.304 301.146 210.912 301.61 209.088L326.683 30.456C326.737 30.0329 326.876 29.6247 327.093 29.2554C327.309 28.8861 327.599 28.5633 327.945 28.3061C328.29 28.0488 328.685 27.8623 329.105 27.7575C329.525 27.6527 329.962 27.6318 330.39 27.696H360.561C362.902 27.696 364.293 29.088 363.829 30.912H363.732ZM407.829 178.608L403.756 209.544C403.699 209.968 403.557 210.377 403.338 210.746C403.119 211.116 402.827 211.438 402.479 211.695C402.132 211.952 401.736 212.139 401.314 212.243C400.893 212.348 400.454 212.368 400.024 212.304H351.244C348.805 212.304 347.512 210.912 347.976 209.088L352.171 178.152C352.224 177.722 352.365 177.307 352.587 176.932C352.808 176.557 353.104 176.231 353.458 175.973C353.812 175.714 354.215 175.53 354.644 175.43C355.073 175.33 355.517 175.317 355.951 175.392H404.732C407 175.392 408.39 176.784 407.927 178.608H407.829ZM224.073 33.6L215.244 98.4C214.78 100.248 216.171 101.64 218.488 101.64H241.317C244.098 101.64 245.024 103.488 242.707 105.792L206.439 137.088C205.243 138.006 203.761 138.489 202.244 138.456H175.78C173.463 138.456 172.073 137.088 172.537 135.24L182.293 66.912C182.388 66.1719 182.644 65.4608 183.044 64.827C183.444 64.1933 183.978 63.652 184.61 63.24L220.366 31.848C222.683 29.544 224.537 30.912 224.073 33.6ZM288.61 104.76L278.854 173.088C278.742 173.841 278.466 174.56 278.045 175.198C277.624 175.836 277.068 176.377 276.415 176.784L240.78 208.152C238.341 210.552 236.61 209.088 237.073 206.304L251.463 104.304C251.517 103.881 251.656 103.473 251.873 103.103C252.09 102.734 252.38 102.411 252.725 102.154C253.071 101.897 253.465 101.71 253.885 101.605C254.305 101.501 254.742 101.48 255.171 101.544H285.366C287.659 101.544 289.073 102.912 288.61 104.76ZM231.561 178.608L227.317 209.544C227.263 209.967 227.124 210.375 226.907 210.745C226.691 211.114 226.401 211.437 226.055 211.694C225.71 211.951 225.315 212.138 224.895 212.243C224.475 212.347 224.038 212.368 223.61 212.304H165.561C163.244 212.304 161.854 210.912 162.317 209.088L166.488 178.152C166.545 177.728 166.687 177.319 166.906 176.95C167.125 176.58 167.417 176.258 167.764 176.001C168.112 175.744 168.508 175.557 168.93 175.453C169.351 175.348 169.79 175.328 170.22 175.392H228.244C230.561 175.392 231.976 176.784 231.561 178.608ZM862.463 0H137.244C134.927 0 134 0.936 134 3.24V236.76C134 239.16 134.927 240 137.244 240H862.463C864.781 240 865.707 239.088 865.707 236.76V3.24C865.707 0.936 864.781 0 862.463 0Z" fill="white"></path>
</svg>
