<?xml version="1.0" encoding="UTF-8"?>
<svg preserveAspectRatio="xMidYMid slice" xmlns="http://www.w3.org/2000/svg" width="960px" height="960px" viewBox="0 0 1000 1000" fill="none">
  <path d="M493.897 512.109C497.534 510.547 500.133 508.462 501.951 505.598C503.512 503.256 504.55 500.13 505.07 495.701C505.849 491.277 506.108 485.546 506.108 478.255V474.869C506.108 473.045 505.849 471.222 505.849 468.879C505.591 466.795 505.329 464.452 505.07 462.368C504.619 460.526 504.099 458.701 503.512 456.898C501.951 453.253 499.354 450.647 496.493 449.085C493.376 447.525 489.739 446.742 485.579 446.742H464.791V514.452H480.383C485.579 514.194 490.518 513.411 493.897 512.109V512.109ZM472.847 454.033H484.282C488.699 454.033 492.077 455.338 494.156 458.202C496.235 461.066 497.275 465.754 497.275 472.784V486.586C497.275 490.494 497.014 493.88 496.493 496.484C495.976 499.087 494.935 501.171 493.635 502.734C492.336 504.294 490.777 505.337 488.699 506.12C486.62 506.639 484.021 507.161 481.162 507.161H473.106V454.033H472.847V454.033ZM545.088 499.87C545.088 501.171 544.829 502.212 544.309 503.256C544.054 504.332 543.516 505.321 542.75 506.12C541.971 506.9 541.192 507.68 540.151 508.202C539.106 508.735 537.946 509.003 536.773 508.984C535.457 508.974 534.148 508.799 532.877 508.462C531.577 507.943 530.798 507.161 529.757 506.12C528.978 505.076 528.199 503.256 527.937 501.171C527.419 499.087 527.158 496.484 527.158 493.098H553.665V489.192C553.665 485.285 553.406 481.899 552.885 479.035C552.365 476.17 551.586 473.825 550.286 471.743C548.987 469.92 547.428 468.357 545.088 467.575C543.009 466.534 540.151 466.273 536.773 466.273C532.615 466.273 529.498 467.056 527.158 468.357C524.854 469.625 522.961 471.523 521.701 473.828C520.401 476.17 519.622 478.774 519.363 481.899C519.101 485.024 518.843 488.149 518.843 491.796C518.843 497.005 519.363 501.171 520.142 504.296C521.18 507.422 522.48 509.764 524.041 511.588C525.599 513.15 527.678 514.452 529.757 514.974C531.836 515.495 534.174 515.756 536.773 515.756C541.71 515.756 545.87 514.452 548.728 512.109C551.586 509.764 553.144 505.859 553.144 500.389H545.088V499.87V499.87ZM527.937 479.295C528.457 477.211 528.978 475.649 530.016 474.608C530.798 473.567 531.836 472.784 532.877 472.265C533.915 472.004 535.214 471.743 536.252 471.743C537.552 471.743 538.852 472.004 540.151 472.263C541.451 472.523 542.23 473.306 543.271 474.347C544.05 475.388 544.829 476.95 545.088 479.035C545.608 481.119 545.87 483.722 545.87 487.369H527.419C527.158 483.983 527.419 481.38 527.937 479.295V479.295ZM598.881 504.296V466.795H591.086V498.307C591.086 500.389 590.825 501.951 590.304 503.256C589.786 504.557 589.007 505.859 588.225 506.639C587.446 507.422 586.408 508.202 585.108 508.462C584.068 508.984 583.03 508.984 581.989 508.984C579.131 508.984 577.311 508.202 576.014 506.381C574.714 504.557 573.935 502.212 573.935 499.348V466.795H566.138V502.995C566.138 507.163 567.178 510.028 569.516 512.109C571.595 514.194 574.973 515.234 578.872 515.234C581.471 515.234 583.55 514.713 585.888 513.672C588.015 512.582 589.743 510.851 590.825 508.723H591.086V514.452H599.14C599.14 512.892 598.881 511.068 598.881 509.506V504.294V504.296ZM627.725 508.465C625.905 508.465 624.608 508.202 623.568 507.682C622.527 507.161 622.009 506.639 621.489 506.12C620.969 505.337 620.71 504.816 620.71 504.036V472.787H631.104V467.058H620.71V454.553L612.912 457.939V467.053H605.117V472.782H612.912V506.378C612.912 509.242 613.694 511.324 615.511 512.628C617.072 514.188 619.93 514.71 623.568 514.71C624.867 514.71 626.167 514.71 627.467 514.449C628.766 514.191 630.063 514.191 631.363 513.93V507.941C630.583 507.941 629.804 508.199 629.284 508.199C628.246 508.46 627.984 508.46 627.725 508.46V508.465ZM661.768 490.233C659.948 488.929 658.128 487.891 656.05 487.108C653.971 486.328 652.153 485.285 650.333 484.505C648.514 483.722 647.217 482.681 645.917 481.64C644.876 480.597 644.097 479.556 644.097 477.994C644.097 475.909 644.876 474.347 646.176 473.306C647.475 472.265 649.295 471.743 651.374 471.743C653.712 471.743 655.791 472.263 656.831 473.567C658.128 474.869 658.649 476.692 658.649 479.295H667.225C667.484 476.953 667.225 474.869 666.446 473.306C665.778 471.675 664.705 470.24 663.327 469.137C662.027 468.097 660.21 467.317 658.39 466.795C656.443 466.262 654.431 465.999 652.412 466.012C649.034 466.012 646.435 466.534 644.356 467.317C642.277 468.097 640.46 469.398 639.419 470.7C638.226 471.858 637.333 473.289 636.82 474.869C636.302 476.429 636.041 477.733 636.041 479.037C636.041 481.38 636.561 483.461 637.861 485.024C638.899 486.586 640.46 488.149 642.277 489.451C644.097 490.755 645.917 491.796 647.996 492.576C650.075 493.358 651.892 494.399 653.712 495.182C655.532 495.962 656.831 497.005 658.128 498.046C659.169 499.087 659.948 500.389 659.948 501.693C659.948 504.036 659.169 505.859 657.611 507.161C656.05 508.465 654.232 508.984 651.892 508.984C650.075 508.984 648.514 508.723 647.475 507.943C646.435 507.161 645.656 506.381 645.138 505.337C644.636 504.371 644.368 503.301 644.356 502.212C644.356 501.171 644.097 500.391 644.097 499.609H635.52C635.52 505.076 636.82 508.984 639.681 511.327C642.539 513.672 646.696 514.974 651.633 514.974C653.971 514.974 656.05 514.713 658.128 514.194C660.21 513.672 662.027 512.889 663.327 511.588C664.885 510.547 665.926 508.984 666.705 507.163C667.484 505.337 668.005 503.256 668.005 500.391C668.005 498.046 667.484 495.962 666.185 494.141C665.147 492.837 663.586 491.535 661.768 490.233V490.233ZM702.827 503.775C702.306 505.079 701.786 506.12 701.007 506.9C700.228 507.682 699.448 508.204 698.669 508.462C697.89 508.723 697.108 508.984 696.849 508.984C694.77 508.984 693.212 508.723 691.912 507.943C690.613 507.161 689.572 506.12 688.793 504.296C688.014 502.734 687.493 500.65 687.234 497.785C686.896 494.497 686.723 491.194 686.714 487.888C686.714 484.766 686.976 481.899 687.493 480.078C688.014 477.994 688.534 476.431 689.572 475.388C690.354 474.347 691.392 473.306 692.692 473.045C694.012 472.512 695.425 472.246 696.849 472.263C697.628 472.263 698.408 472.523 699.187 472.784C699.969 473.045 700.748 473.567 701.266 474.347C701.786 475.129 702.565 476.17 702.827 477.472C703.347 478.776 703.347 480.336 703.347 482.42H711.401C711.662 477.211 710.363 473.045 708.023 470.442C705.426 467.836 701.786 466.273 697.108 466.273C692.95 466.273 689.834 467.056 687.493 468.357C685.189 469.625 683.296 471.523 682.036 473.828C680.739 476.17 679.957 478.774 679.698 481.899C679.439 485.024 679.178 488.149 679.178 491.796C679.178 497.005 679.698 501.171 680.478 504.296C681.518 507.422 682.818 509.764 684.376 511.588C685.935 513.15 688.014 514.452 690.092 514.974C692.171 515.495 694.512 515.756 697.108 515.756C698.408 515.756 699.969 515.495 701.786 514.974C703.602 514.475 705.287 513.587 706.723 512.37C708.423 510.972 709.761 509.185 710.622 507.161C711.662 505.076 712.18 502.212 712.18 499.087H704.126C703.606 500.65 703.347 502.212 702.827 503.775V503.775ZM732.451 486.328C732.451 484.244 732.709 482.421 732.971 480.858C733.161 479.368 733.649 477.931 734.408 476.633C735.167 475.336 736.18 474.204 737.387 473.306C738.687 472.523 740.245 472.265 742.065 472.265C743.624 472.265 744.923 472.523 746.223 473.045C747.264 473.567 748.302 474.349 748.822 475.129C749.601 475.909 749.86 476.95 750.122 478.255C750.381 479.556 750.381 480.858 750.381 482.16V514.194H758.178V480.597C758.178 475.129 757.138 471.483 755.059 469.14C752.98 466.795 749.86 465.754 745.703 465.754C742.586 465.754 739.987 466.273 738.167 467.314C736.349 468.357 734.529 470.178 732.971 472.787H732.709V446.479H724.915V514.191H732.709V486.328H732.451V486.328ZM775.847 511.068C777.408 512.628 779.487 513.933 781.566 514.452C783.644 514.974 785.982 515.234 788.581 515.234C793.518 515.234 797.417 513.93 800.534 511.588C803.394 509.245 804.953 505.337 804.953 499.87H796.638C796.638 501.171 796.376 502.212 795.858 503.256C795.603 504.332 795.064 505.321 794.297 506.12C793.518 506.9 792.739 507.68 791.701 508.202C790.656 508.734 789.496 509.003 788.322 508.984C787.006 508.974 785.696 508.799 784.424 508.462C783.124 507.943 782.345 507.161 781.304 506.12C780.525 505.076 779.746 503.256 779.487 501.171C778.966 499.087 778.707 496.484 778.707 493.098H805.212V489.192C805.212 485.285 804.953 481.899 804.432 479.035C803.912 476.17 803.133 473.825 801.833 471.743C800.534 469.92 798.975 468.357 796.638 467.575C794.559 466.534 791.701 466.273 788.322 466.273C784.165 466.273 781.045 467.056 778.707 468.357C776.403 469.625 774.51 471.523 773.25 473.828C771.951 476.17 771.171 478.774 770.91 481.899C770.651 485.024 770.39 488.149 770.39 491.796C770.39 497.005 770.91 501.171 771.689 504.296C772.989 506.9 774.288 509.245 775.847 511.068V511.068ZM779.487 479.295C780.004 477.211 780.525 475.649 781.566 474.608C782.325 473.618 783.303 472.816 784.424 472.265C785.462 472.004 786.761 471.743 787.802 471.743C789.102 471.743 790.401 472.004 791.701 472.263C792.998 472.523 793.78 473.306 794.818 474.347C795.597 475.388 796.376 476.95 796.638 479.035C797.158 481.119 797.417 483.722 797.417 487.369H778.966C778.707 483.983 778.966 481.38 779.487 479.295V479.295ZM499.354 571.745C496.755 569.924 494.156 568.101 491.298 566.799C488.501 565.535 485.807 564.055 483.241 562.372C480.642 560.81 478.563 559.247 477.005 557.424C475.31 555.473 474.386 552.972 474.406 550.391C474.406 548.309 474.667 546.747 475.446 545.184C476.226 543.88 477.005 542.578 478.043 541.798C479.084 541.015 480.383 540.235 481.683 539.975C482.982 539.714 484.541 539.453 485.84 539.453C490.257 539.453 493.376 540.757 494.935 543.1C496.493 545.703 497.275 548.828 497.275 552.997H507.149C507.408 545.445 505.849 539.714 502.212 536.328C498.572 532.944 493.376 531.121 486.361 531.121C483.241 531.121 480.383 531.64 477.525 532.423C474.93 533.202 472.535 534.534 470.507 536.328C468.428 538.151 466.87 540.235 465.832 542.839C464.791 545.445 464.27 548.309 464.27 551.695C464.27 555.339 465.052 558.465 466.87 561.068C468.428 563.674 470.507 565.756 473.106 567.579C475.696 569.379 478.385 571.032 481.162 572.528C484.021 573.832 486.879 575.392 489.219 576.954C491.818 578.517 493.897 580.08 495.455 582.164C497.15 584.115 498.074 586.615 498.054 589.197C498.054 591.539 497.793 593.363 497.014 594.925C496.235 596.485 495.455 597.79 494.156 598.83C492.856 599.874 491.557 600.393 489.998 600.915C488.44 601.436 486.62 601.436 484.8 601.436C483.241 601.436 481.683 601.176 480.383 600.654C478.825 600.132 477.525 599.352 476.226 598.311C474.926 597.268 474.147 595.966 473.368 594.143C472.588 592.319 472.327 590.238 472.327 587.632V585.55H462.712V589.718C462.712 591.278 462.971 593.102 463.232 594.925C463.491 596.749 464.27 598.57 465.05 600.135C465.832 601.956 467.131 603.518 468.948 604.82C470.507 606.124 472.588 607.165 475.185 608.206C477.784 608.988 480.904 609.51 484.541 609.51C487.66 609.51 490.518 609.249 493.376 608.467C496.235 607.687 498.572 606.643 500.654 605.081C502.732 603.521 504.55 601.176 505.849 598.57C507.149 595.966 507.669 592.58 507.669 588.672C507.669 584.767 506.89 581.384 505.07 578.778C503.771 575.914 501.692 573.569 499.354 571.745V571.745ZM539.372 601.697C537.552 601.697 535.993 601.436 534.955 600.915C533.915 600.393 533.135 599.874 532.615 599.091C532.095 598.311 531.836 597.531 531.836 596.749V561.851H543.271V555.339H531.577V541.276L523 545.184V555.339H514.426V561.851H523V599.352C523 602.477 524.041 604.82 525.858 606.385C527.678 607.945 530.798 608.728 534.694 608.728C535.993 608.728 537.552 608.728 538.852 608.467C540.151 608.206 541.71 608.206 543.009 607.945V601.176C541.971 601.436 541.192 601.436 540.671 601.436C540.151 601.436 539.631 601.697 539.372 601.697V601.697ZM585.888 595.447V570.185C585.888 567.84 585.629 566.017 585.108 563.935C584.588 562.111 583.809 560.288 582.509 558.986C581.032 557.508 579.262 556.355 577.311 555.6C575.232 554.82 572.374 554.296 568.996 554.296C563.28 554.296 559.122 555.339 556.002 557.685C552.885 560.027 551.327 564.196 551.066 569.924H560.422C560.16 567.06 560.68 564.976 562.239 563.152C563.538 561.329 565.879 560.549 568.737 560.549C571.074 560.549 572.894 561.068 573.935 561.851C575.232 562.631 576.014 563.935 576.532 565.237C577.052 566.538 577.311 568.101 577.572 569.924V575.134C574.714 575.134 571.595 575.134 568.216 575.392C564.838 575.653 561.98 576.174 559.381 577.215C556.782 578.256 554.444 579.821 552.624 582.164C550.807 584.506 550.027 587.632 550.027 591.539C550.027 594.143 550.286 596.227 550.807 598.572C551.324 600.654 552.106 602.477 553.144 604.04C554.185 605.602 555.744 606.643 557.563 607.687C559.381 608.467 561.721 608.988 564.579 608.988C567.958 608.988 570.557 608.206 572.636 606.904C574.714 605.602 576.532 603.26 577.831 600.393H578.093V607.945H587.446L586.667 601.695C585.888 599.613 585.888 597.529 585.888 595.444V595.447ZM576.793 592.061C576.344 594.294 575.461 596.417 574.194 598.311C573.153 599.871 571.854 600.654 570.557 601.176C569.32 601.684 567.996 601.948 566.658 601.956C563.8 601.956 561.721 600.915 560.422 599.091C559.122 597.268 558.343 594.923 558.343 592.319C558.343 589.455 558.863 587.373 560.16 586.069C561.504 584.738 563.092 583.677 564.838 582.944C566.658 582.425 568.737 581.903 571.074 581.903H577.572C577.572 586.072 577.311 589.455 576.793 592.061V592.061ZM614.991 555.861C613.694 556.38 612.653 557.421 611.615 558.465C610.455 559.892 609.493 561.469 608.755 563.152H608.496V555.339H599.919V607.945H608.496V576.954C608.496 575.134 608.755 573.571 609.016 571.748C609.275 569.924 610.054 568.362 610.833 567.06C611.615 565.756 612.912 564.715 614.473 563.935C616.032 563.152 617.852 562.631 620.189 562.631H621.489C621.748 562.631 622.268 562.631 622.527 562.891C622.789 562.891 623.309 562.891 623.568 563.152C624.088 563.152 624.347 563.152 624.608 563.413V554.299C622.527 554.299 620.71 554.299 619.151 554.559C617.852 554.82 616.291 555.079 614.991 555.861V555.861ZM657.09 601.695C655.27 601.695 653.712 601.436 652.674 600.915C651.633 600.393 650.854 599.874 650.333 599.091C649.813 598.311 649.554 597.531 649.554 596.749V561.851H660.989V555.339H649.554V541.276L640.978 545.184V555.339H632.403V561.851H640.978V599.352C640.978 602.477 642.018 604.82 643.838 606.385C645.656 607.945 648.775 608.728 652.674 608.728C653.971 608.728 655.532 608.728 656.831 608.467C658.128 608.206 659.689 608.206 660.989 607.945V601.176C659.948 601.436 659.169 601.436 658.649 601.436C657.87 601.436 657.349 601.697 657.09 601.697V601.695ZM704.906 597.01V555.339H696.329V590.238C696.329 592.58 696.07 594.406 695.291 595.966C694.512 597.529 693.73 598.83 692.951 599.613C691.912 600.654 690.872 601.173 689.572 601.697C688.275 602.216 687.234 602.477 685.935 602.477C682.818 602.477 680.739 601.436 679.178 599.613C677.62 597.79 677.099 595.186 677.099 591.8V555.339H668.525V595.447C668.525 599.871 669.825 603.257 672.162 605.602C674.5 607.945 678.14 608.988 682.556 608.988C685.414 608.988 688.014 608.467 690.354 607.165C692.692 605.861 694.512 604.04 696.07 601.697H696.329V607.948H705.426C705.165 606.124 705.165 604.301 705.165 602.477C704.906 600.654 704.906 598.83 704.906 597.01V597.01ZM753.239 558.986C751.68 557.163 749.86 555.861 747.781 555.339C745.743 554.824 743.648 554.562 741.545 554.559C738.687 554.559 736.349 555.079 734.529 556.383C732.5 557.82 730.814 559.687 729.593 561.851H729.331V555.6H720.757V628H729.331V602.738H729.593C731.151 604.82 732.709 606.382 734.529 607.426C736.349 608.467 738.687 608.986 741.027 608.986C745.185 608.986 748.563 608.206 750.901 606.385C753.239 604.562 755.059 602.477 756.099 599.874C757.138 597.268 757.917 594.145 758.178 590.759C758.437 587.373 758.437 583.987 758.437 580.862C758.437 575.134 757.917 570.446 756.879 567.06C756.099 563.413 754.8 560.81 753.239 558.986V558.986ZM749.081 589.977C748.822 592.58 748.302 594.925 747.523 596.488C746.743 598.311 745.703 599.613 744.403 600.393C743.106 601.176 741.286 601.697 738.948 601.697C736.608 601.697 734.788 601.176 733.491 599.874C732.192 598.57 731.151 597.01 730.631 595.186C729.851 593.363 729.593 591.539 729.331 589.194C729.072 587.112 729.072 585.028 729.072 583.466V576.433C729.072 573.829 729.331 571.487 729.851 569.144C730.372 566.799 731.412 564.976 732.709 563.152C734.009 561.592 736.088 560.81 738.687 560.81C741.286 560.81 743.365 561.329 744.923 562.633C746.223 563.935 747.523 565.497 748.043 567.579C748.822 569.402 749.081 571.748 749.343 573.829C749.343 576.174 749.601 578.256 749.601 580.08C749.602 583.385 749.428 586.689 749.081 589.977V589.977ZM803.653 586.072C802.34 584.194 800.661 582.6 798.716 581.384C796.896 580.08 794.559 578.778 792.48 577.998C790.14 576.954 788.061 576.174 786.244 575.134C784.424 574.09 782.604 573.049 781.304 572.006C780.005 570.965 779.487 569.663 779.487 568.101C779.487 565.756 780.266 563.932 781.824 562.891C783.383 561.59 785.203 561.068 787.54 561.068C790.14 561.068 792.218 561.851 793.779 563.152C795.077 564.457 795.858 566.799 795.858 569.403H805.212C805.473 566.799 805.212 564.715 804.174 562.633C803.394 560.81 802.095 559.247 800.534 557.943C798.975 556.641 797.158 555.861 795.077 555.339C792.865 554.809 790.597 554.547 788.322 554.559C784.682 554.559 781.566 555.079 779.225 556.119C776.888 557.163 775.068 558.204 773.768 559.766C772.468 561.329 771.43 562.891 770.91 564.454C770.399 565.964 770.136 567.547 770.131 569.142C770.131 571.748 770.651 574.09 771.951 575.914C773.264 577.791 774.943 579.386 776.888 580.601C778.707 581.906 781.045 583.205 783.124 584.248C785.462 585.289 787.543 586.33 789.36 587.373C791.18 588.414 792.998 589.455 794.297 590.498C795.597 591.539 796.117 593.102 796.117 594.404C796.117 597.01 795.338 599.091 793.518 600.393C791.701 601.697 789.622 602.477 787.023 602.477C784.944 602.477 783.124 602.216 782.086 601.436C780.786 600.654 780.004 599.874 779.487 598.572C778.966 597.529 778.707 596.488 778.446 595.186C778.446 594.143 778.187 593.102 778.187 592.322H768.572C768.311 598.311 769.872 602.738 773.25 605.342C776.629 607.945 781.045 609.249 786.761 609.249C789.36 609.249 791.701 608.988 794.038 608.467C796.151 607.995 798.114 607.011 799.755 605.602C801.392 604.248 802.721 602.561 803.653 600.654C804.694 598.57 804.953 596.227 804.953 593.363C805.412 590.855 804.951 588.265 803.653 586.069V586.072ZM486.879 400.906C486.382 399.888 485.56 399.063 484.541 398.564C483.5 398.042 482.462 397.523 480.904 397.001C482.203 396.74 483.5 396.218 484.282 395.438C485.061 394.656 485.84 393.876 486.361 393.093C486.879 392.313 487.14 391.273 487.399 389.968C487.658 388.927 487.66 387.626 487.66 386.063C487.66 382.155 486.879 379.291 485.061 377.729C483.241 376.169 480.642 375.386 477.005 375.386H464.532V420.437H477.264C481.162 420.437 484.021 419.396 485.84 417.312C487.658 415.228 488.699 412.102 488.699 407.936C488.699 406.632 488.699 405.33 488.44 404.029C487.919 402.988 487.658 401.947 486.879 400.904V400.906ZM468.428 378.772H478.563C479.343 378.772 480.122 379.03 480.904 379.552C481.683 380.074 482.203 380.856 482.721 381.897C483.241 382.938 483.5 384.24 483.5 386.321C483.5 387.626 483.5 388.927 483.241 389.968C482.969 390.988 482.53 391.955 481.942 392.833C481.421 393.615 480.642 394.398 479.604 394.656C478.563 395.438 477.525 395.438 475.964 395.438H468.169V378.772H468.428V378.772ZM484.021 412.627C483.5 413.668 482.982 414.711 482.203 415.23C481.421 416.013 480.383 416.534 479.084 416.793C477.784 417.054 476.484 417.314 474.667 417.314H468.428V399.083H476.484C478.304 399.083 479.604 399.344 480.642 399.865C481.683 400.387 482.462 401.17 482.982 402.208C483.5 403.251 484.021 404.292 484.021 405.336C484.282 406.376 484.282 407.417 484.282 408.461C484.541 410.021 484.282 411.325 484.021 412.627V412.627ZM510.786 411.322C510.786 411.844 510.786 412.627 510.527 413.407C510.268 414.189 510.007 414.969 509.228 415.752C508.707 416.532 507.928 417.054 507.149 417.575C506.37 418.094 505.329 418.355 504.029 418.355C502.732 418.355 501.692 418.094 500.913 417.314C500.133 416.532 499.613 415.752 499.354 414.969C499.093 414.189 498.834 413.148 498.834 412.366V388.927H495.196V411.325C495.196 412.627 495.196 413.928 495.455 414.969C495.714 416.274 496.235 417.314 496.755 418.094C497.275 419.138 498.313 419.657 499.354 420.179C500.392 420.7 501.692 420.961 503.25 420.961C505.07 420.961 506.37 420.7 507.669 419.918C508.969 419.138 510.007 418.094 511.048 416.793V420.179H514.165V388.927H510.786V411.325V411.322ZM541.71 391.792C541.192 390.751 540.151 389.968 539.113 389.449C538.072 388.927 536.514 388.406 534.435 388.406C532.615 388.406 531.316 388.927 530.016 389.71C528.732 390.476 527.66 391.55 526.899 392.835V388.927H523.259V420.44H526.899V400.643C526.899 398.822 527.158 397.52 527.419 396.218C527.937 394.914 528.457 394.134 528.978 393.354C529.498 392.572 530.277 392.05 531.057 391.789C531.836 391.528 532.615 391.27 533.394 391.27C534.435 391.27 535.473 391.528 536.252 391.789C537.034 392.311 537.552 392.833 538.072 393.352C538.593 394.134 538.852 394.656 539.113 395.697C539.372 396.477 539.372 397.52 539.372 398.3V420.437H543.009V398.3C543.009 397.259 543.009 396.216 542.75 394.914C542.75 393.873 542.491 392.833 541.71 391.789V391.792ZM571.336 414.45V375.386H567.696V392.05C566.658 390.746 565.617 389.966 564.318 389.186C563.021 388.664 561.721 388.145 560.16 388.145C558.602 388.145 557.302 388.403 556.002 388.925C554.964 389.447 553.924 390.229 553.406 391.009C552.624 391.789 552.106 392.833 551.845 394.134C551.324 395.175 551.066 396.477 551.066 397.779C550.807 399.083 550.807 400.124 550.807 401.425V404.811C550.807 406.635 550.807 408.458 551.066 410.54C551.324 412.624 551.586 414.187 552.106 415.749C552.624 417.309 553.665 418.614 554.964 419.654C556.264 420.698 558.081 421.217 560.422 421.217C562.239 421.217 563.8 420.959 565.099 420.176C566.396 419.396 567.437 418.353 568.478 416.79L568.737 420.698H572.374C572.374 420.176 572.115 419.394 572.115 418.353C571.336 417.312 571.336 416.01 571.336 414.448V414.45ZM567.696 407.678C567.696 409.502 567.437 411.325 567.178 412.627C566.658 413.928 566.138 414.969 565.617 416.013C565.099 416.793 564.318 417.573 563.28 417.834C562.5 418.094 561.721 418.355 560.68 418.355C559.642 418.355 558.86 418.094 557.822 417.834C557.37 417.688 556.952 417.451 556.594 417.138C556.236 416.825 555.947 416.442 555.744 416.013C555.116 414.783 554.678 413.465 554.444 412.105C554.102 409.776 553.928 407.426 553.924 405.072V399.865C553.924 398.303 554.185 396.74 554.703 395.438C555.223 394.134 555.744 393.354 556.782 392.574C557.563 391.792 558.86 391.531 560.68 391.531C561.721 391.531 562.759 391.792 563.538 392.313C564.318 392.835 565.099 393.354 565.617 393.873C566.138 394.656 566.658 395.438 566.917 396.218C567.178 397.001 567.437 397.781 567.437 398.564C567.437 399.344 567.696 400.124 567.696 400.645V407.678V407.678ZM600.439 405.594C600.439 403.251 600.439 401.17 600.18 399.085C600.18 397.001 599.66 395.178 598.881 393.615C598.102 392.053 597.061 390.751 595.761 389.968C594.203 388.927 592.124 388.667 589.525 388.667C585.888 388.667 583.288 389.71 581.471 391.792C579.651 393.876 578.611 397.262 578.611 401.95V409.762C578.611 412.105 578.872 414.187 579.651 415.491C580.172 417.054 581.21 418.094 581.989 419.138C583.03 419.918 584.068 420.698 585.367 420.961C586.667 421.22 587.966 421.48 589.266 421.48C590.825 421.48 592.383 421.22 593.683 420.961C594.982 420.7 596.023 419.918 597.061 419.138C598.102 418.355 598.622 417.314 599.401 416.013C599.919 414.708 600.18 413.148 600.439 411.325H596.543C596.543 413.407 596.023 415.23 594.982 416.532C593.944 417.836 592.124 418.616 589.786 418.616C588.225 418.616 587.187 418.355 586.147 417.575C585.108 417.054 584.588 416.013 584.068 415.23C583.55 414.189 583.288 413.148 583.03 411.844C582.768 410.542 582.768 409.502 582.768 408.461V406.116H600.439V405.594V405.594ZM582.768 398.042C583.03 396.74 583.288 395.438 583.809 394.398C584.329 393.354 585.108 392.574 585.888 392.053C586.926 391.531 587.966 391.273 589.525 391.273C591.086 391.273 592.124 391.531 593.165 392.053C594.203 392.574 594.723 393.357 595.244 394.398C595.761 395.438 596.023 396.479 596.282 398.042C596.543 399.346 596.543 400.906 596.543 402.73H582.25C582.509 400.906 582.768 399.344 582.768 398.042V398.042ZM622.009 405.075C620.969 404.292 619.93 403.512 618.631 402.99C617.331 402.469 616.291 401.95 615.253 401.167C614.212 400.645 613.433 399.865 612.653 399.085C611.874 398.303 611.615 397.262 611.615 395.96C611.615 394.656 612.133 393.354 612.912 392.574C613.953 391.792 614.991 391.27 616.291 391.27C618.369 391.27 619.93 391.792 620.448 392.835C621.23 393.876 621.489 395.438 621.748 397.523H625.388C625.388 396.218 625.126 395.178 624.867 394.137C624.595 393.117 624.156 392.15 623.568 391.273C623.047 390.49 622.009 389.71 620.969 389.188C619.93 388.667 618.631 388.406 617.072 388.406C615.773 388.406 614.473 388.667 613.174 388.927C612.133 389.188 611.095 389.71 610.054 390.232C609.275 390.751 608.496 391.792 607.975 392.574C607.455 393.615 607.196 394.917 607.196 396.218C607.196 398.042 607.455 399.344 608.237 400.387C609.016 401.428 609.795 402.469 610.833 403.251C611.874 404.031 612.912 404.811 614.212 405.333C615.511 405.855 616.552 406.376 617.59 407.156C618.631 407.678 619.41 408.461 620.189 409.502C620.969 410.282 621.23 411.586 621.23 412.888C621.23 414.711 620.71 416.013 619.93 417.054C619.151 418.094 617.59 418.616 615.773 418.616C614.473 418.616 613.694 418.355 612.912 418.094C612.133 417.834 611.615 417.314 611.095 416.534C610.575 416.013 610.316 415.23 610.316 414.189C610.054 413.407 610.054 412.366 610.054 411.325H606.937C606.937 414.711 607.717 417.314 609.016 418.877C610.575 420.437 612.912 421.22 616.291 421.22C619.151 421.22 621.489 420.44 623.047 418.877C624.608 417.314 625.388 415.23 625.388 412.105C625.388 410.282 625.126 408.98 624.347 407.678C623.827 406.896 623.047 405.855 622.009 405.075V405.075ZM639.419 415.752L631.624 388.927H627.725L637.081 420.44H641.498L650.854 388.927H647.217L639.419 415.752V415.752ZM675.02 405.594C675.02 403.251 675.02 401.17 674.761 399.085C674.761 397.001 674.241 395.178 673.462 393.615C672.683 392.053 671.642 390.751 670.342 389.968C668.784 388.927 666.705 388.667 664.106 388.667C660.469 388.667 657.87 389.71 656.05 391.792C654.232 393.876 653.192 397.262 653.192 401.95V409.762C653.192 412.105 653.453 414.187 654.232 415.491C654.753 417.054 655.791 418.094 656.57 419.138C657.611 419.918 658.649 420.698 659.948 420.961C661.248 421.22 662.547 421.48 663.847 421.48C665.406 421.48 666.964 421.22 668.264 420.961C669.563 420.7 670.604 419.918 671.642 419.138C672.683 418.355 673.2 417.314 673.982 416.013C674.5 414.708 674.762 413.148 675.02 411.325H671.122C671.122 413.407 670.604 415.23 669.563 416.532C668.525 417.836 666.705 418.616 664.367 418.616C662.806 418.616 661.768 418.355 660.728 417.575C659.689 417.054 659.169 416.013 658.649 415.23C658.128 414.189 657.87 413.148 657.611 411.844C657.349 410.542 657.349 409.502 657.349 408.461V406.116H675.02V405.594V405.594ZM657.349 398.042C657.611 396.74 657.87 395.438 658.39 394.398C658.91 393.354 659.689 392.574 660.469 392.053C661.507 391.531 662.547 391.273 664.106 391.273C665.664 391.273 666.705 391.531 667.746 392.053C668.784 392.574 669.304 393.357 669.825 394.398C670.342 395.438 670.604 396.479 670.863 398.042C671.122 399.346 671.122 400.906 671.122 402.73H656.831C657.09 400.906 657.09 399.344 657.349 398.042V398.042ZM686.455 393.354V389.186H682.818V420.7H686.455V400.387C686.455 397.781 687.234 395.699 688.793 394.137C690.354 392.574 692.433 392.053 695.291 392.313V388.406C693.471 388.406 691.651 388.927 690.092 389.71C688.275 390.49 687.234 391.792 686.455 393.354ZM720.757 394.398C720.498 393.354 719.978 392.313 719.198 391.273C718.419 390.229 717.637 389.71 716.34 389.188C715.3 388.667 713.741 388.406 712.18 388.406C710.363 388.406 708.802 388.667 707.505 389.449C706.205 390.229 705.165 391.273 704.126 392.835V375.386H700.487V418.874C700.487 419.396 700.228 419.918 700.228 420.44H704.126V416.532C705.685 419.396 708.284 420.961 711.921 420.961C714.259 420.961 716.079 420.44 717.379 419.399C718.678 418.355 719.716 417.054 720.237 415.491C720.757 413.928 721.277 412.105 721.536 410.282C721.795 408.461 721.795 406.637 721.795 404.814V401.689C721.795 400.384 721.795 399.344 721.536 398.042C721.277 396.74 721.016 395.699 720.757 394.398V394.398ZM717.637 410.023C717.637 411.583 717.379 413.148 716.858 414.189C716.34 415.491 715.82 416.271 714.779 417.054C713.741 417.834 712.442 418.094 710.622 418.094C708.802 418.094 707.505 417.575 706.723 416.534C705.685 415.491 705.165 414.45 704.644 412.888C704.126 411.583 703.865 410.023 703.865 408.461V404.292C703.865 403.251 703.865 401.689 704.126 400.387C704.385 398.824 704.644 397.523 704.906 396.218C705.426 394.917 705.944 393.876 706.984 392.835C708.023 392.053 709.063 391.531 710.622 391.531C712.442 391.531 713.741 391.792 714.779 392.574C715.82 393.354 716.34 394.134 716.858 395.438C717.379 396.74 717.637 398.042 717.637 399.865V405.075C717.899 406.713 717.899 408.382 717.637 410.021V410.023ZM748.302 412.627V396.74C748.302 394.656 748.043 393.093 747.264 392.053C746.484 391.012 745.703 389.968 744.665 389.449C743.624 388.927 742.586 388.667 741.545 388.406C740.507 388.406 739.466 388.147 738.687 388.147C737.387 388.147 736.088 388.406 734.788 388.667C733.556 388.917 732.4 389.452 731.412 390.229C730.372 391.012 729.593 391.792 729.072 392.835C728.552 393.876 728.034 395.178 728.034 396.74H731.93C731.93 394.917 732.451 393.615 733.75 392.572C735.05 391.792 736.349 391.273 738.167 391.273C740.766 391.273 742.324 392.053 743.106 393.354C743.885 394.658 744.403 396.479 744.403 398.824V401.428C743.365 401.428 742.324 401.689 741.027 401.689C739.728 401.689 738.428 401.95 737.129 401.95C735.829 402.208 734.529 402.469 733.491 402.73C732.192 402.99 731.151 403.773 730.372 404.292C729.331 405.075 728.552 406.116 728.034 407.156C727.514 408.461 727.252 409.762 727.252 411.844C727.252 414.708 728.034 416.793 729.593 418.616C731.151 420.44 733.23 421.22 736.088 421.22C739.987 421.22 743.106 419.66 744.923 416.795V420.7H748.822C748.563 418.877 748.563 417.314 748.563 416.271C748.302 414.969 748.302 413.928 748.302 412.627V412.627ZM744.403 410.282C744.403 411.325 744.144 412.366 743.885 413.407C743.365 414.45 742.845 415.23 742.324 416.013C741.545 416.793 740.766 417.314 739.987 417.834C738.948 418.355 738.167 418.616 736.867 418.616C734.788 418.616 733.491 418.094 732.451 416.793C731.412 415.491 731.151 413.928 731.151 412.105C731.151 410.282 731.671 408.719 732.451 407.678C733.23 406.637 734.529 406.116 735.829 405.594C737.129 405.075 738.687 405.075 740.246 404.814H744.665V410.282H744.403V410.282ZM775.329 391.792C774.809 390.751 773.768 389.968 772.73 389.449C771.689 388.927 770.131 388.406 768.052 388.406C766.232 388.406 764.932 388.927 763.635 389.71C762.351 390.476 761.278 391.55 760.516 392.835V388.927H756.879V420.44H760.516V400.643C760.516 398.822 760.775 397.52 761.036 396.218C761.443 395.207 761.966 394.246 762.595 393.354C763.115 392.572 763.894 392.05 764.674 391.789C765.453 391.528 766.232 391.27 767.014 391.27C768.052 391.27 769.093 391.528 769.872 391.789C770.651 392.311 771.171 392.833 771.689 393.352C772.21 394.134 772.468 394.656 772.73 395.697C772.989 396.477 772.989 397.52 772.989 398.3V420.437H776.629V398.3C776.629 397.259 776.629 396.216 776.367 394.914C776.367 393.873 776.108 392.833 775.329 391.789V391.792ZM805.212 418.355V375.386H801.574V392.05C800.534 390.746 799.496 389.966 798.196 389.186C796.896 388.664 795.597 388.145 794.038 388.145C792.48 388.145 791.18 388.403 789.881 388.925C788.84 389.447 787.802 390.229 787.282 391.009C786.502 391.789 785.982 392.833 785.723 394.134C785.203 395.175 784.944 396.477 784.944 397.779C784.682 399.083 784.682 400.124 784.682 401.425V404.811C784.682 406.635 784.682 408.458 784.944 410.54C785.203 412.624 785.462 414.187 785.982 415.749C786.502 417.309 787.541 418.614 788.84 419.654C790.14 420.698 791.96 421.217 794.297 421.217C796.117 421.217 797.676 420.959 798.975 420.176C800.275 419.396 801.316 418.353 802.354 416.79L802.613 420.698H806.252C805.212 420.176 805.212 419.394 805.212 418.353V418.355ZM801.316 407.678C801.316 409.502 801.054 411.325 800.795 412.627C800.275 413.928 799.755 414.969 799.237 416.013C798.716 416.793 797.937 417.573 796.896 417.834C796.117 418.094 795.338 418.355 794.297 418.355C793.259 418.355 792.48 418.094 791.439 417.834C790.986 417.688 790.568 417.451 790.211 417.138C789.853 416.825 789.564 416.442 789.36 416.013C788.734 414.782 788.296 413.465 788.061 412.105C787.718 409.776 787.545 407.426 787.54 405.072V399.865C787.54 398.303 787.802 396.74 788.322 395.438C788.84 394.134 789.36 393.354 790.401 392.574C791.18 391.792 792.48 391.531 794.297 391.531C795.338 391.531 796.376 391.792 797.158 392.313C797.937 392.835 798.716 393.354 799.237 393.873C799.755 394.656 800.275 395.438 800.534 396.218C800.795 397.001 801.054 397.781 801.054 398.564C801.054 399.344 801.316 400.124 801.316 400.645V407.678V407.678ZM853.806 593.102C853.806 590.759 853.806 588.675 853.547 586.591C853.547 584.509 853.027 582.686 852.248 581.123C851.469 579.56 850.428 578.259 849.128 577.476C847.57 576.435 845.491 576.174 842.892 576.174C839.255 576.174 836.655 577.215 834.838 579.3C833.018 581.384 831.977 584.77 831.977 589.458V597.268C831.977 599.613 832.239 601.697 833.018 602.996C833.538 604.562 834.577 605.605 835.356 606.643C836.396 607.426 837.435 608.206 838.734 608.467C840.034 608.728 841.333 608.988 842.633 608.988C844.191 608.988 845.75 608.728 847.049 608.467C848.349 608.206 849.39 607.426 850.428 606.643C851.469 605.863 851.989 604.822 852.768 603.518C853.286 602.216 853.547 600.654 853.806 598.833H849.91C849.91 600.915 849.39 602.738 848.349 604.04C847.311 605.344 845.491 606.124 843.153 606.124C841.592 606.124 840.554 605.863 839.513 605.083C838.475 604.562 837.955 603.518 837.435 602.738C836.917 601.697 836.655 600.654 836.397 599.352C836.135 598.05 836.135 597.01 836.135 595.966V593.624H853.806V593.102V593.102ZM836.135 585.55C836.397 584.246 836.655 582.946 837.176 581.903C837.696 580.862 838.475 580.082 839.255 579.56C840.293 579.039 841.333 578.778 842.892 578.778C844.453 578.778 845.491 579.039 846.532 579.56C847.57 580.082 848.09 580.862 848.611 581.903C849.128 582.946 849.39 583.987 849.649 585.55C849.91 586.854 849.91 588.414 849.91 590.238H835.617C835.876 588.414 835.876 586.852 836.135 585.55V585.55ZM862.122 608.208H866.799V603.518H862.122V608.208ZM896.685 562.891L885.511 603.26L874.856 562.894H870.698L883.171 607.948H888.108L900.584 562.894H896.685V562.891ZM900.322 603.26V607.948H905V603.26H900.322V603.26ZM396.967 579.821H334.6V611.073H396.967V579.821ZM236.931 560.147L178.842 582.908L190.197 612.014L248.284 589.258L236.929 560.15L236.931 560.147ZM145.304 550.82L95 587.765L113.43 612.973L163.737 576.026L145.307 550.82H145.304ZM319.281 570.009L257.824 580.66L263.138 611.454L324.595 600.805L319.281 570.009V570.009ZM308.072 502.217L246.541 512.426L256.725 574.093L318.256 563.886L308.072 502.22V502.217ZM296.617 433.705L235.086 443.909L245.269 505.575L306.801 495.369L296.617 433.705V433.705ZM396.967 510.547H334.6V573.049H396.967V510.547ZM396.967 372H334.6V434.503H396.967V372ZM396.967 441.272H334.6V503.775H396.967V441.272ZM211.944 495.701L153.745 518.168L176.166 576.497L234.365 554.027L211.944 495.698V495.701Z" fill="black"></path>
</svg>
