<?xml version="1.0" encoding="UTF-8"?>
<!-- Generator: Adobe Illustrator 24.2.0, SVG Export Plug-In . SVG Version: 6.00 Build 0)  -->
<svg preserveAspectRatio="xMidYMid slice" width="300px" height="100px" xmlns="http://www.w3.org/2000/svg" xmlns:xlink="http://www.w3.org/1999/xlink" version="1.1" id="Layer_1" x="0px" y="0px" viewBox="0 0 300 100" style="enable-background:new 0 0 300 100;" xml:space="preserve">
<path d="M288.4,12.9l-10.3,74.4c-0.1,0.7-0.8,1.2-1.5,1.2c0,0,0,0,0,0h-12.4c-1,0-1.5-0.6-1.3-1.3l10.3-74.4  c0.1-0.7,0.8-1.2,1.5-1.2c0,0,0,0,0,0h12.4C288,11.5,288.6,12.1,288.4,12.9z M257.9,12.9L254.1,41c-0.2,0.8,0.4,1.3,1.3,1.3h8.4  c1,0,1.5,0.6,1.3,1.3l-1.9,12.9c-0.1,0.7-0.8,1.2-1.5,1.2c0,0,0,0,0,0H253c-0.7-0.1-1.4,0.4-1.5,1.1c0,0,0,0,0,0l-3.8,28.5  c-0.1,0.7-0.8,1.2-1.5,1.2c0,0,0,0,0,0h-12.4c-1,0-1.5-0.6-1.3-1.3l10.3-74.5c0.1-0.7,0.8-1.2,1.5-1.2c0,0,0,0,0,0h12.4  C257.5,11.5,258.1,12.1,257.9,12.9L257.9,12.9z M231.3,12.9l-1.7,12.9c-0.1,0.7-0.8,1.2-1.5,1.2c0,0,0,0,0,0h-23.8  c-0.9,0-1.5-0.6-1.3-1.3l1.7-12.9c0.1-0.7,0.8-1.2,1.5-1.2c0,0,0,0,0,0H230C230.9,11.5,231.5,12.1,231.3,12.9L231.3,12.9z M200.6,14  L197,41c-0.2,0.8,0.4,1.3,1.3,1.3h9.3c1.1,0,1.5,0.8,0.6,1.7l-14.8,13c-0.5,0.4-1.1,0.6-1.7,0.6h-10.8c-1,0-1.5-0.6-1.3-1.3l4-28.5  c0.1-0.6,0.4-1.2,0.9-1.5l14.7-13.1C200.1,12.3,200.8,12.9,200.6,14z M227.1,43.6l-4,28.5c-0.1,0.6-0.5,1.2-1,1.5l-14.6,13.1  c-1,1-1.7,0.4-1.5-0.8l5.9-42.5c0.1-0.7,0.8-1.2,1.5-1.2c0,0,0,0,0,0h12.4C226.7,42.3,227.3,42.9,227.1,43.6L227.1,43.6z   M174.2,12.9l-10.3,74.4c-0.1,0.7-0.8,1.2-1.5,1.2c0,0,0,0,0,0H150c-0.9,0-1.5-0.6-1.3-1.3L159,12.7c0.1-0.7,0.8-1.2,1.5-1.2  c0,0,0,0,0,0h12.4C173.8,11.5,174.4,12.1,174.2,12.9z M203.7,74.4L202,87.3c-0.1,0.7-0.8,1.2-1.5,1.2c0,0,0,0,0,0h-23.8  c-1,0-1.5-0.6-1.3-1.3l1.7-12.9c0.1-0.7,0.8-1.2,1.5-1.2c0,0,0,0,0,0h23.8C203.3,73.1,203.9,73.7,203.7,74.4z M143.7,12.9l-8.2,58.8  c-0.2,0.8,0.4,1.3,1.3,1.3h9.3c1.1,0,1.5,0.8,0.6,1.7l-14.6,13.1c-0.5,0.4-1.1,0.6-1.7,0.6h-10.8c-1,0-1.5-0.6-1.3-1.3l10.3-74.4  c0.1-0.7,0.8-1.2,1.5-1.2c0,0,0,0,0,0h12.4C143.3,11.5,143.9,12.1,143.7,12.9L143.7,12.9z M67.5,12.9l-1.7,12.9  c-0.1,0.7-0.8,1.2-1.5,1.2c0,0,0,0,0,0H40.5c-1,0-1.5-0.6-1.3-1.3l1.7-12.9c0.1-0.7,0.8-1.2,1.5-1.2c0,0,0,0,0,0h23.8  C67.2,11.5,67.8,12.1,67.5,12.9L67.5,12.9z M94.2,12.9L84,87.3c-0.1,0.7-0.8,1.2-1.5,1.2c0,0,0,0,0,0H70.1c-1,0-1.5-0.6-1.3-1.3  L79,12.7c0.1-0.7,0.8-1.2,1.5-1.2c0,0,0,0,0,0h12.4C93.8,11.5,94.4,12.1,94.2,12.9L94.2,12.9z M112.3,74.4l-1.7,12.9  c-0.1,0.7-0.8,1.3-1.5,1.2c0,0,0,0,0,0h-20c-1,0-1.5-0.6-1.3-1.3l1.7-12.9c0.1-0.7,0.8-1.2,1.5-1.2c0,0,0,0,0.1,0h20  C111.9,73.1,112.5,73.7,112.3,74.4L112.3,74.4z M36.9,14l-3.6,27c-0.2,0.8,0.4,1.3,1.3,1.3H44c1.1,0,1.5,0.8,0.6,1.7l-14.9,13  c-0.5,0.4-1.1,0.6-1.7,0.6H17.1c-1,0-1.5-0.6-1.3-1.3l4-28.5c0.1-0.6,0.4-1.2,1-1.5l14.7-13.1C36.4,12.3,37.1,12.9,36.9,14z   M63.4,43.7l-4,28.5c-0.1,0.6-0.5,1.2-1,1.5L43.8,86.7c-1,1-1.7,0.4-1.5-0.8l5.9-42.5c0.1-0.7,0.8-1.2,1.5-1.2c0,0,0,0,0,0h12.4  C63,42.3,63.6,42.9,63.4,43.7z M40,74.4l-1.7,12.9c-0.1,0.7-0.8,1.2-1.5,1.2c0,0,0,0,0,0H12.9c-0.9,0-1.5-0.6-1.3-1.3l1.7-12.9  c0.1-0.7,0.8-1.3,1.5-1.2c0,0,0,0,0,0h23.8C39.6,73.1,40.2,73.7,40,74.4z M298.7,0H1.3C0.4,0,0,0.4,0,1.4v97.3c0,1,0.4,1.3,1.3,1.3  h297.3c1,0,1.3-0.4,1.3-1.3V1.4C300,0.4,299.6,0,298.7,0z"></path>
</svg>
